<svg xmlns="http://www.w3.org/2000/svg" width="44" height="48"><g fill="#1D7BE2"><path d="M30.446 20.571c0-1.06-.839-1.92-1.873-1.92H9.279c-1.035 0-1.873.86-1.873 1.92s.838 1.92 1.873 1.92h19.294c1.034 0 1.873-.86 1.873-1.92zM9.54 26.057c-1.027 0-1.86.86-1.86 1.92s.833 1.92 1.86 1.92h11.64c1.027 0 1.86-.86 1.86-1.92s-.833-1.92-1.86-1.92H9.54z"/><path d="M13.797 44.25H7.515a3.758 3.758 0 01-3.758-3.75v-33a3.758 3.758 0 013.758-3.75H30.61a3.758 3.758 0 013.757 3.75v11.531c0 1.036.842 1.875 1.88 1.875 1.037 0 1.878-.84 1.878-1.875V7.5c0-4.136-3.371-7.5-7.515-7.5H7.515C3.37 0 0 3.365 0 7.5v33C0 44.636 3.371 48 7.515 48h6.282c1.038 0 1.88-.84 1.88-1.875a1.877 1.877 0 00-1.88-1.875z"/><path d="M41.412 27.153a5.667 5.667 0 00-7.982-.001L23.1 37.42c-.22.218-.382.487-.472.782l-2.25 7.379a1.87 1.87 0 00.454 1.853 1.885 1.885 0 001.85.498l7.594-2.096c.313-.086.598-.251.827-.48l10.31-10.25a5.615 5.615 0 00-.001-7.953zM28.795 42.355l-3.821 1.054 1.118-3.667 6.97-6.929 2.662 2.652-6.93 6.89zm9.957-9.901l-.364.362-2.661-2.65.363-.362a1.889 1.889 0 012.661 0 1.87 1.87 0 01.001 2.65zM28.573 11.246H9.279c-1.035 0-1.873.86-1.873 1.92s.838 1.92 1.873 1.92h19.294c1.034 0 1.873-.86 1.873-1.92s-.839-1.92-1.873-1.92z"/></g></svg>