<svg xmlns="http://www.w3.org/2000/svg" width="144" height="48"><g fill="none"><path fill="#A6A6A6" d="M132.162 0H11.442c-.44 0-.875 0-1.314.002-.367.003-.732.01-1.103.016-.806.01-1.61.08-2.404.212a7.998 7.998 0 00-2.282.752 7.725 7.725 0 00-3.356 3.36 7.921 7.921 0 00-.75 2.284 15.592 15.592 0 00-.215 2.402c-.011.368-.012.737-.018 1.105V37.87c.006.373.007.734.018 1.107.01.805.082 1.608.215 2.402.132.795.385 1.566.75 2.285a7.45 7.45 0 001.414 1.937 7.53 7.53 0 001.942 1.415c.719.365 1.488.62 2.282.757.795.13 1.598.201 2.404.212.371.008.736.013 1.103.013.439.002.874.002 1.314.002h120.72c.431 0 .87 0 1.3-.002.366 0 .741-.005 1.107-.013a15.96 15.96 0 002.4-.212 8.165 8.165 0 002.29-.757 7.533 7.533 0 001.94-1.415 7.674 7.674 0 001.418-1.937c.363-.72.613-1.49.743-2.285.134-.794.208-1.597.223-2.402.005-.373.005-.734.005-1.107.009-.436.009-.87.009-1.312V11.443c0-.44 0-.875-.01-1.31 0-.368 0-.737-.004-1.105a16.208 16.208 0 00-.223-2.402 7.941 7.941 0 00-.743-2.284 7.76 7.76 0 00-3.358-3.36 8.121 8.121 0 00-2.29-.752 15.653 15.653 0 00-2.4-.213c-.366-.005-.74-.012-1.106-.015C133.03 0 132.593 0 132.162 0z"/><path fill="#000" d="M10.134 46.95c-.366 0-.723-.005-1.085-.013a15.225 15.225 0 01-2.243-.196 7.06 7.06 0 01-1.988-.657 6.487 6.487 0 01-1.677-1.22 6.385 6.385 0 01-1.224-1.676 6.866 6.866 0 01-.652-1.988 14.896 14.896 0 01-.2-2.25c-.007-.253-.017-1.096-.017-1.096v-27.72s.01-.83.017-1.074c.01-.753.076-1.504.199-2.247a6.907 6.907 0 01.652-1.994A6.448 6.448 0 013.134 3.14a6.679 6.679 0 011.683-1.227 6.988 6.988 0 011.984-.652 15.103 15.103 0 012.25-.197l1.083-.015h123.323l1.095.015c.748.01 1.493.074 2.23.195.698.119 1.373.34 2.006.658a6.712 6.712 0 012.898 2.904c.312.623.529 1.29.642 1.978.124.75.194 1.506.208 2.265.004.34.004.705.004 1.068.01.45.01.879.01 1.31v25.115c0 .436 0 .861-.01 1.29 0 .39 0 .748-.005 1.116a15.277 15.277 0 01-.205 2.224 6.887 6.887 0 01-.648 2.004 6.576 6.576 0 01-1.219 1.663c-.49.496-1.057.91-1.679 1.227a7.062 7.062 0 01-2.002.66 15.05 15.05 0 01-2.243.195c-.351.008-.72.013-1.076.013l-1.301.002-122.028-.002z"/><path d="M29.723 24.36a5.939 5.939 0 012.828-4.982 6.079 6.079 0 00-4.79-2.589c-2.015-.211-3.968 1.206-4.995 1.206-1.047 0-2.628-1.185-4.33-1.15a6.378 6.378 0 00-5.368 3.274c-2.32 4.018-.59 9.923 1.633 13.17 1.113 1.591 2.413 3.368 4.114 3.305 1.664-.07 2.286-1.062 4.295-1.062 1.99 0 2.574 1.062 4.309 1.022 1.786-.03 2.911-1.598 3.985-3.203a13.154 13.154 0 001.822-3.711 5.738 5.738 0 01-3.503-5.28zm-3.278-9.707a5.847 5.847 0 001.337-4.189 5.949 5.949 0 00-3.849 1.992 5.564 5.564 0 00-1.372 4.034 4.919 4.919 0 003.884-1.837zm24.318 17.915h-5.68l-1.364 4.027h-2.406l5.38-14.901h2.5l5.38 14.901h-2.447l-1.363-4.027zm-5.092-1.859h4.502l-2.22-6.537h-.061L45.67 30.71zm20.521.455c0 3.376-1.807 5.545-4.534 5.545a3.683 3.683 0 01-3.419-1.9h-.051v5.38h-2.23V25.731h2.158v1.807h.041a3.854 3.854 0 013.46-1.92c2.757 0 4.575 2.179 4.575 5.546zm-2.293 0c0-2.2-1.136-3.646-2.87-3.646-1.705 0-2.85 1.477-2.85 3.646 0 2.189 1.145 3.655 2.85 3.655 1.734 0 2.87-1.436 2.87-3.655zm14.251 0c0 3.376-1.808 5.545-4.535 5.545a3.683 3.683 0 01-3.418-1.9h-.052v5.38h-2.23V25.731h2.159v1.807h.041a3.854 3.854 0 013.46-1.92c2.757 0 4.574 2.179 4.574 5.546zm-2.293 0c0-2.2-1.136-3.646-2.87-3.646-1.705 0-2.85 1.477-2.85 3.646 0 2.189 1.145 3.655 2.85 3.655 1.734 0 2.87-1.436 2.87-3.655zm10.196 1.279c.165 1.478 1.6 2.448 3.562 2.448 1.88 0 3.232-.97 3.232-2.302 0-1.157-.816-1.85-2.747-2.324l-1.93-.465c-2.736-.661-4.007-1.941-4.007-4.018 0-2.57 2.241-4.337 5.423-4.337 3.148 0 5.307 1.766 5.38 4.337h-2.252c-.134-1.487-1.364-2.384-3.16-2.384-1.797 0-3.026.908-3.026 2.23 0 1.053.785 1.673 2.706 2.148l1.642.403c3.057.723 4.328 1.951 4.328 4.13 0 2.789-2.221 4.535-5.753 4.535-3.305 0-5.536-1.705-5.68-4.4h2.283zm13.962-9.283v2.57h2.066v1.767h-2.066v5.99c0 .93.414 1.363 1.322 1.363.246-.004.49-.021.734-.051v1.755a6.051 6.051 0 01-1.239.103c-2.2 0-3.057-.826-3.057-2.933v-6.227h-1.58V25.73h1.58v-2.57h2.24zm3.263 8.004c0-3.419 2.013-5.567 5.153-5.567 3.15 0 5.154 2.148 5.154 5.567 0 3.427-1.994 5.566-5.154 5.566s-5.153-2.139-5.153-5.566zm8.034 0c0-2.345-1.074-3.73-2.881-3.73-1.807 0-2.88 1.395-2.88 3.73 0 2.354 1.073 3.727 2.88 3.727s2.881-1.373 2.881-3.727zm4.111-5.434h2.127v1.85h.052a2.591 2.591 0 012.613-1.963c.257 0 .513.027.764.083v2.086a3.118 3.118 0 00-1.002-.134 2.247 2.247 0 00-2.324 2.5v6.443h-2.23V25.731zm15.838 7.674c-.3 1.973-2.22 3.326-4.678 3.326-3.16 0-5.122-2.118-5.122-5.515 0-3.408 1.972-5.618 5.028-5.618 3.006 0 4.896 2.065 4.896 5.36v.763h-7.673v.135a2.83 2.83 0 002.923 3.077 2.458 2.458 0 002.509-1.528h2.117zm-7.539-3.242h5.432a2.613 2.613 0 00-2.665-2.758 2.75 2.75 0 00-2.767 2.758zM45.391 10.477a3.168 3.168 0 013.37 3.558c0 2.288-1.237 3.602-3.37 3.602h-2.586v-7.16h2.586zm-1.474 6.148h1.35a2.251 2.251 0 002.362-2.575 2.257 2.257 0 00-2.362-2.56h-1.35v5.135zm6.1-1.692a2.56 2.56 0 115.096 0 2.56 2.56 0 11-5.096 0zm4 0c0-1.171-.527-1.856-1.45-1.856-.927 0-1.449.685-1.449 1.856 0 1.18.522 1.86 1.449 1.86.923 0 1.45-.684 1.45-1.86zm7.871 2.704h-1.106l-1.117-3.98h-.084l-1.113 3.98h-1.095l-1.49-5.403h1.082l.968 4.123h.08l1.11-4.123h1.024l1.11 4.123h.085l.963-4.123h1.067zm2.736-5.403h1.027v.858h.08a1.618 1.618 0 011.612-.963 1.757 1.757 0 011.87 2.01v3.498h-1.066v-3.23c0-.868-.377-1.3-1.166-1.3a1.24 1.24 0 00-1.29 1.37v3.16h-1.067v-5.403zm6.289-2.11h1.066v7.513h-1.066zm2.548 4.809a2.56 2.56 0 115.097 0 2.56 2.56 0 11-5.097 0zm4 0c0-1.171-.526-1.856-1.45-1.856-.927 0-1.448.685-1.448 1.856 0 1.18.521 1.86 1.448 1.86.924 0 1.45-.684 1.45-1.86zm2.22 1.177c0-.973.724-1.534 2.01-1.614l1.464-.084v-.467c0-.57-.378-.893-1.107-.893-.595 0-1.008.219-1.126.6H79.89c.109-.927.982-1.522 2.207-1.522 1.355 0 2.12.674 2.12 1.815v3.692H83.19v-.76h-.085a1.818 1.818 0 01-1.623.85 1.632 1.632 0 01-1.8-1.618zm3.474-.463v-.451l-1.32.084c-.744.05-1.082.303-1.082.78 0 .486.422.769 1.002.769a1.274 1.274 0 001.4-1.182zm2.463-.714c0-1.707.878-2.789 2.243-2.789a1.78 1.78 0 011.657.948h.08v-2.968h1.066v7.513h-1.022v-.853h-.084c-.347.605-1 .968-1.697.942-1.375 0-2.243-1.081-2.243-2.793zm1.101 0c0 1.146.54 1.836 1.444 1.836.899 0 1.454-.7 1.454-1.831 0-1.126-.56-1.836-1.454-1.836-.898 0-1.444.694-1.444 1.831zm8.357 0c0-1.707.878-2.789 2.243-2.789a1.78 1.78 0 011.657.948h.08v-2.968h1.066v7.513H99.1v-.853h-.084c-.346.605-1 .968-1.697.942-1.375 0-2.243-1.081-2.243-2.793zm1.102 0c0 1.146.54 1.836 1.443 1.836.9 0 1.455-.7 1.455-1.831 0-1.126-.562-1.836-1.455-1.836-.897 0-1.443.694-1.443 1.831zm5.554-4.297a.69.69 0 11.69.65.657.657 0 01-.69-.65zm.158 1.598h1.063v5.403h-1.063v-5.403z" fill="#FFF"/></g></svg>