<svg xmlns="http://www.w3.org/2000/svg" width="504" height="417"><defs><linearGradient id="a" x1="50.459%" x2="50.459%" y1="63.093%" y2="37.093%"><stop offset="0%" stop-color="gray" stop-opacity=".25"/><stop offset="54%" stop-color="gray" stop-opacity=".12"/><stop offset="100%" stop-color="gray" stop-opacity=".1"/></linearGradient><linearGradient id="b" x1="50.003%" x2="50.003%" y1="99.987%" y2="0%"><stop offset="0%" stop-color="gray" stop-opacity=".25"/><stop offset="54%" stop-color="gray" stop-opacity=".12"/><stop offset="100%" stop-color="gray" stop-opacity=".1"/></linearGradient></defs><g fill="none" transform="translate(1 1)"><path fill="#1D7BE2" stroke="#979797" d="M291.667 55.398c-32.183-1.118-62.833-11.507-92.102-22.875-29.268-11.368-58.258-23.964-89.67-29.986-20.203-3.874-43.31-4.42-59.586 6.41-15.668 10.443-20.73 28.42-23.45 45.119-2.049 12.561-3.252 25.784 2.357 37.54 3.898 8.165 10.81 15.028 15.594 22.85 16.643 27.211 4.878 60.768-13.153 87.338-8.453 12.467-18.274 24.367-24.803 37.625-6.529 13.257-9.547 28.47-3.834 42.005 5.66 13.427 19.15 23.492 33.764 30.578 29.681 14.397 64.643 18.514 98.76 20.846 75.498 5.167 151.394 2.93 227.09.692 28.016-.83 56.15-1.671 83.709-6.003 15.305-2.406 31.103-6.22 42.216-15.44 14.103-11.701 17.598-31.513 8.145-46.188-15.852-24.61-59.67-30.722-70.764-57.133-6.096-14.54.164-30.732 9.03-44.219 19.015-28.922 50.884-54.298 52.56-87.358 1.154-22.706-14.167-45.446-37.856-56.193-24.828-11.258-59.263-9.846-77.572 8.797-18.87 19.195-52.017 26.58-80.435 25.595z" opacity=".1"/><ellipse cx="240" cy="388" fill="#6C63FF" opacity=".1" rx="151" ry="20"/><rect width="5" height="35" x="318" y="142" fill="#3A3768" rx="2.29"/><rect width="3" height="12" x="173" y="114" fill="#3A3768" rx="1.5"/><rect width="3" height="20" x="173" y="137" fill="#3A3768" rx="1.5"/><rect width="3" height="20" x="173" y="167" fill="#3A3768" rx="1.5"/><rect width="148" height="301" x="173" y="75" fill="#3A3768" rx="9"/><path fill="#FFF" d="M301.312 83h-16.88v2.034a9.646 9.646 0 01-2.82 6.817 9.614 9.614 0 01-6.808 2.821h-53.686a9.614 9.614 0 01-6.807-2.82 9.646 9.646 0 01-2.82-6.818V83h-15.803C189.233 83 184 88.241 184 94.707v260.586c0 3.105 1.231 6.083 3.423 8.278a11.678 11.678 0 008.265 3.429h105.624c6.455 0 11.688-5.241 11.688-11.707V94.727a11.717 11.717 0 00-3.416-8.291A11.678 11.678 0 00301.312 83z"/><rect width="20" height="5" x="234" y="85" fill="#E6E8EC" rx="2.5"/><circle cx="260.5" cy="87.5" r="2.5" fill="#E6E8EC"/><path fill="#08A800" d="M372.234 61.054s-40.629-2.496-35.842 26.496c0 0-.965 5.126 3.61 7.45 0 0 .072-2.147 4.168-1.415a18.72 18.72 0 004.415.216 9.109 9.109 0 005.395-2.246s11.421-4.806 15.86-23.813c0 0 3.287-4.148 3.156-5.214l-6.856 2.983s2.345 5.037.482 9.224c0 0-.222-9.042-1.54-8.846-.265.04-3.56 1.745-3.56 1.745s4.029 8.771.989 15.15c0 0 1.153-10.811-2.249-14.516l-4.825 2.87s4.71 9.06 1.515 16.457c0 0 .82-11.342-2.533-15.76l-4.372 3.474s4.425 8.93 1.728 15.062c0 0-.352-13.2-2.673-14.197 0 0-3.827 3.44-4.41 4.846 0 0 3.03 6.486 1.148 9.906 0 0-1.153-8.796-2.1-8.845 0 0-3.811 5.828-4.207 9.828 0 0 .164-5.941 3.286-10.378 0 0-3.686.643-5.838 3.076 0 0 .593-4.118 6.78-4.482 0 0 3.15-4.422 3.99-4.688 0 0-6.148-.526-9.878 1.16 0 0 3.282-3.887 11.007-2.118l4.318-3.592s-8.096-1.125-11.532.118c0 0 3.952-3.44 12.695-.934l4.7-2.86s-6.905-1.513-11.016-.983c0 0 4.343-2.383 12.396.202l3.378-1.538s-5.057-1.013-6.539-1.175c-1.48-.162-1.558-.575-1.558-.575a17.246 17.246 0 019.5 1.077s7.132-2.708 7.012-3.165zm-41.61-13.03s-19.743-1.099-17.437 11.69c0 0-.462 2.26 1.757 3.286 0 0 .036-.96 2.031-.628a9.88 9.88 0 002.146.096 4.65 4.65 0 002.624-.998s5.56-2.12 7.72-10.506c0 0 1.596-1.827 1.533-2.298l-3.335 1.315s1.137 2.22.244 4.068c0 0-.11-3.987-.748-3.895-.13 0-1.736.772-1.736.772s1.964 3.871.483 6.682c0 0 .562-4.768-1.096-6.404l-2.348 1.286s2.291 3.996.738 7.258c0 0 .4-5.004-1.232-6.951l-2.125 1.535s2.151 3.938.842 6.644c0 0-.177-5.824-1.304-6.265 0 0-1.86 1.516-2.146 2.14 0 0 1.475 2.877.561 4.37 0 0-.561-3.882-1.04-3.9 0 0-1.854 2.57-2.046 4.317a8.878 8.878 0 011.6-4.577 5.763 5.763 0 00-2.842 1.358s.291-1.818 3.3-1.977c0 0 1.558-1.952 1.942-2.072 0 0-2.992-.23-4.806.513 0 0 1.596-1.712 5.352-.935l2.078-1.583s-3.943-.48-5.611.053c0 0 1.922-1.516 6.178-.413l2.286-1.261s-3.362-.667-5.362-.427c0 0 2.114-1.051 6.032.086l1.637-.676s-2.463-.447-3.185-.519c-.723-.071-.759-.254-.759-.254a9.173 9.173 0 014.624.48s3.512-1.209 3.45-1.41z"/><ellipse cx="430.5" cy="384.5" fill="#6C63FF" opacity=".1" rx="13.5" ry="2.5"/><ellipse cx="45.5" cy="401.5" fill="#6C63FF" opacity=".1" rx="13.5" ry="2.5"/><ellipse cx="98.5" cy="413.5" fill="#6C63FF" opacity=".1" rx="13.5" ry="2.5"/><ellipse cx="400" cy="407.5" fill="#3ACC6C" rx="20" ry="3.5"/><path fill="#3ACC6C" d="M407.076 402.97a5.666 5.666 0 001.862-2.802c.243-1.109-.233-2.42-1.303-2.851-1.195-.455-2.474.373-3.44 1.205-.968.833-2.081 1.786-3.35 1.607a5.06 5.06 0 001.58-4.748 1.995 1.995 0 00-.442-.968c-.661-.707-1.867-.407-2.66.155-2.526 1.766-3.231 5.188-3.246 8.262-.257-1.109-.039-2.265-.048-3.388-.01-1.123-.316-2.42-1.284-3.016a3.872 3.872 0 00-1.944-.455c-1.137-.043-2.4.073-3.178.9-.972 1.027-.71 2.75.126 3.873.836 1.123 2.114 1.844 3.29 2.623a7.278 7.278 0 012.348 2.231c.073.127.132.262.175.402h7.101a19.96 19.96 0 004.413-3.03zM98.71 360s2.803 3.533-1.29 8.845c-4.094 5.312-7.468 9.828-6.117 13.155 0 0 6.178-9.902 11.214-10.04 5.036-.137 1.723-6.004-3.808-11.96z"/><path fill="#000" d="M98.63 360c.247.342.442.715.578 1.11 4.96 5.549 7.604 10.73 2.835 10.857-4.439.123-9.764 7.686-11.043 9.596.041.147.093.29.15.437 0 0 6.248-9.895 11.342-10.033 5.093-.137 1.732-6.015-3.862-11.967z" opacity=".1"/><path fill="#FFD037" d="M103 363.784c0 1.224-.222 2.216-.5 2.216s-.5-.992-.5-2.216c0-1.225.278-.649.556-.649.277 0 .444-.576.444.649zm1.289 2.226c-1.173.704-2.199 1.129-2.283.949-.085-.18.787-.896 1.96-1.6 1.174-.703.714-.191.799 0 .084.193.697-.052-.476.652z"/><path fill="#3ACC6C" d="M85.293 360s-2.802 3.533 1.29 8.845c4.092 5.312 7.465 9.828 6.115 13.155 0 0-6.171-9.902-11.211-10.04-5.04-.137-1.733-6.004 3.806-11.96z"/><path fill="#000" d="M82.374 360a4.342 4.342 0 00-.582 1.11c-4.956 5.549-7.594 10.73-2.834 10.857 4.442.123 9.764 7.686 11.042 9.596a3.688 3.688 0 01-.155.437s-6.24-9.895-11.335-10.033c-5.096-.137-1.736-6.015 3.864-11.967z" opacity=".1"/><path fill="#FFD037" d="M77 363.784c0 1.224.228 2.216.504 2.216s.496-.992.496-2.216c0-1.225-.276-.649-.551-.649-.276 0-.449-.576-.449.649zm-1.286 2.226c1.172.704 2.19 1.129 2.28.949.09-.18-.792-.896-1.963-1.6-1.172-.703-.707-.191-.797 0-.09.193-.691-.052.48.652z"/><path fill="#A8A8A8" d="M81 380.292s7.524-.248 9.796-1.949c2.273-1.7 11.575-3.742 12.133-1.008.559 2.735 11.31 13.59 2.817 13.662-8.494.073-19.74-1.395-22.003-2.848-2.263-1.452-2.743-7.857-2.743-7.857z"/><path fill="#000" d="M105.897 390.119c-8.495.068-19.743-1.303-22.007-2.66-1.72-1.038-2.41-4.75-2.64-6.459H81s.49 5.976 2.739 7.338c2.248 1.361 13.511 2.727 22.006 2.66 2.45 0 3.297-.879 3.253-2.153-.343.782-1.278 1.26-3.1 1.274z" opacity=".2"/><path fill="url(#a)" d="M140 220.37a.792.792 0 001 .14 3.267 3.267 0 01-1-.14z"/><path fill="url(#b)" d="M199.838 122.626c-1.046-.308-2.534-.81-4.334-1.44a23.275 23.275 0 004.017-8.21l-.154.06c.05-.184.104-.363.154-.547-3.441 1.42-7.254-.993-9.679-4.078-2.425-3.084-4.076-6.923-6.728-9.77a31.104 31.104 0 00-3.566-3.113c-.783-.616-1.63-1.257-2.588-1.287-1.547-.044-2.762 1.49-4.254 1.952a5.752 5.752 0 01-2.975-.109c-3.853-.899-7.566-2.553-11.479-2.98a13.243 13.243 0 00-6.227.71c-1.984.765-2.876 2.28-4.463 3.477-1.72 1.301-5.147 1.271-7.174 1.49a51.292 51.292 0 01-7.408.313 16.77 16.77 0 00-4.264.159c-2.946.655-5.31 3.03-7.517 5.314a3.974 3.974 0 00-1.245 1.987 2.642 2.642 0 000 .655 4.273 4.273 0 00.298 1.739 23.067 23.067 0 002.826 5.79c.902 1.312 1.949 2.544 2.48 4.094.243.763.371 1.558.38 2.359-.027.85-.115 1.699-.262 2.538a32.326 32.326 0 01-1.909 6.75c-.466 1.152-.992 2.299-1.115 3.56a6.438 6.438 0 000 .756c-.15 3.888 3.723 6.695 4.462 10.564.059.32.095.643.11.968-.085 2.414-1.439 4.773-3.432 5.707.173.07.352.13.53.194a5.57 5.57 0 01-.53.298c.362.139.734.258 1.11.367-2.28 2-4.194 4.384-5.657 7.043-6.674 12.68-52.162 37.553-52.162 37.553s.258.144.675.393c-.169.104-.347.223-.546.357-3.937 2.662-13.179 10.43-4.824 20.225 0 0 6.52-10.455 11.087-14.9.208-.2.406-.383.6-.557.206.317.27.706.178 1.073l29.914-17.07s10.63-7.56 13.596-9.268c1.021-.586 3.624-2.215 6.738-2.936l-.347.154a13.44 13.44 0 013.431-.496c5.296.084 11.027 4.023 12.922 19.623 2.533 20.89 1.358 24.655.545 25.171-.1-.007-.2-.026-.298-.054a.522.522 0 00.08.06 1.436 1.436 0 01-.327-.06c.116.11.281.152.436.109a.426.426 0 00.332-.04h.402c0 .189-.03.388-.045.581-.04 0-.238.115 0 .13a42.186 42.186 0 000 3.8c-2.633.148-5.26.307-7.566.451l.208-1.108.094-.496c2.018-.164 3.937-.765 4.16-2.434.496-3.655-4.462-5.607-8.652-5.85-4.19-.244-29.418 1.464-29.418 1.464s-3.783 4.967 8.211 6.512c.357.189.729.397 1.106.616 4.695 2.721 11.072 7.728 14.121 10.196l.426.343-1.368 1.108c7.437 1.708 14.587 30.485 18.54 43.652 3.951 13.167 12.608 12.68 19.778 10.733 6.719-1.833 7.576-21.645 7.656-24.133v-.253l11.944 14.954.908 1.138c.352.183.694.357 1.031.521 9.049 4.376 19.045-4.008 16.199-13.544-2.87-9.635-7.333-23.875-10.308-29.895-2.48-5.04-5.707-13.41-7.661-18.665.253-.104.5-.223.739-.357 0 0-.045-.234-.124-.666l.124-.064s-2.876-15.174-3.035-25.946v-.919c2.162-.497 3.53-.696 3.53-.696l.04-.466-.253.054 1.2-13.976s4.413-9.531 1.037-13.505a8.45 8.45 0 01-1.984-4.127c-.565-3.655 0-9.74 7.87-14.8 12.112-7.803 16.814-14.146 16.814-14.146s.257-4.659-7.161-6.854zm-24.058 9.695v-6.457c2.246-.109 4.542.154 6.798 0a17.115 17.115 0 003.282-.556l.546.383a59.841 59.841 0 01-10.626 6.63zm-34.34 101.227c.887.625 1.78 1.276 2.657 1.927a141.955 141.955 0 001.061 5.587 44.85 44.85 0 00-3.718-7.514z"/><path fill="#FFBDC6" d="M160 227l-.53 3.053-.407 2.334-.74 4.273-7.18 5.34s-.648-.589-1.717-1.516c-2.943-2.574-9.128-7.815-13.67-10.629a14.894 14.894 0 00-3.756-1.839L160 227z"/><path fill="#000" d="M160 228l-.53 2.966a21.743 21.743 0 01-4.737-.253l-16.754.248c-.79-.05-1.53-.111-2.222-.187a15.08 15.08 0 00-3.757-1.787l28-.987z" opacity=".1"/><path fill="#474463" d="M155.207 230.721s8.274 1.403 8.759-2.087c.484-3.49-4.26-5.376-8.279-5.611-4.018-.235-28.146 1.403-28.146 1.403s-4.256 5.606 11.114 6.544l16.552-.249z"/><path fill="#000" d="M160 227l-.53 3.053-.407 2.334-.74 4.273-7.18 5.34s-.648-.589-1.717-1.516c-2.943-2.574-9.128-7.815-13.67-10.629a14.894 14.894 0 00-3.756-1.839L160 227z" opacity=".1"/><path fill="#000" d="M160 228l-.53 2.966a21.743 21.743 0 01-4.737-.253l-16.754.248c-.79-.05-1.53-.111-2.222-.187a15.08 15.08 0 00-3.757-1.787l28-.987z" opacity=".1"/><path fill="#000" d="M155.213 230.725s8.279 1.396 8.754-2.104c.475-3.5-4.26-5.364-8.279-5.598-4.018-.234-28.147 1.4-28.147 1.4s-4.256 5.6 11.114 6.532l16.558-.23z" opacity=".1"/><path fill="#474463" d="M129 112h45v53h-45z"/><path fill="#000" d="M129 112h45v53h-45z" opacity=".1"/><path fill="#FFBDC6" d="M78 201.144c-.692.174-1.576.843-2.56 1.813C71.208 207.153 65.144 217 65.144 217c-7.753-9.244.828-16.548 4.483-19.058.89-.608 1.487-.942 1.487-.942L78 201.144zM160.77 128s2.112 15.094 9.39 18.688c7.28 3.595-9.39 10.312-9.39 10.312L138 148.368s12.912-4.316 10.329-17.014l12.44-3.354zM135 219l-.524 3.044-.427 2.345-.74 4.274-7.175 5.337s-.647-.584-1.715-1.511c-2.941-2.575-9.121-7.818-13.665-10.633a14.787 14.787 0 00-3.754-1.84L135 219z"/><path fill="#000" d="M135 219l-.525 2.966a21.67 21.67 0 01-4.738-.254l-16.753.249a50.044 50.044 0 01-2.227-.188A14.966 14.966 0 00107 219.98l28-.98z" opacity=".1"/><path fill="#474463" d="M129.217 221.725s8.28 1.396 8.75-2.1c.47-3.494-4.256-5.368-8.28-5.602-4.023-.234-28.145 1.4-28.145 1.4s-4.261 5.599 11.116 6.536l16.56-.234z"/><path fill="#000" d="M136 226.145l-.768 3.493-7.45 4.362s-.673-.477-1.782-1.235l9.852-6.765.148.145z" opacity=".1"/><path fill="#000" d="M182.645 280.254c-.333-.163-.666-.332-.993-.495l-.894-1.125-11.72-14.833v.258c-.08 2.477-.924 22.106-7.507 23.92-7.025 1.931-15.499 2.417-19.361-10.638-3.863-13.055-10.922-41.582-18.17-43.276l10.783-8.824s7.139 8.334 10.048 16.31c-.11-.495-5.04-23.483-.993-27.551h35.371s5.461 15.522 9.204 23.211c2.914 5.97 7.288 20.085 10.103 29.637 2.79 9.433-7.005 17.761-15.871 13.406z"/><path fill="#000" d="M180 217.955c-5.26 3.14-28.351 1.862-35.864 1.35l-2.046-.149c-.22 0 .033-.125.033-.125l.21-2.137 5.6-14.355L177.915 185c-.607 1.847-.808 4.674-.76 7.91.138 10.4 2.845 25.045 2.845 25.045z" opacity=".1"/><path fill="#F2F1F2" d="M180 216.954c-5.5 3.142-29.649 1.863-37.505 1.352l-2.14-.145-.355-.03.39-.096 1.93-.482 4.146-16.012L177.82 184c-.635 1.848-.845 4.676-.795 7.914.145 10.395 2.975 25.04 2.975 25.04z"/><path fill="#000" d="M178.215 192.064c-6.297 1.448-20.155 5.697-25.478 15.952-3.551 6.829-6.54 9.758-8.623 10.984l-2.114-.148a1.34 1.34 0 00.035-.128l1.906-.492 4.094-16.336L179 184c-.622 1.876-.835 4.76-.785 8.064zM70.42 197l6.58 4.171c-.66.176-1.506.85-2.445 1.829-.548-1.691-3.991-4.052-5.555-5.06.85-.603 1.42-.94 1.42-.94zM141 218.52a.87.87 0 01-1-.14 3.47 3.47 0 001 .14z" opacity=".1"/><path fill="#FF5722" d="M157.138 146.02s-6.539.724-11.138-4.117c0 0-19.348 5.57-25.901 18.155C113.545 172.642 69 197.335 69 197.335s7.75 4.356 7.02 6.533l29.295-16.944s10.418-7.5 13.31-9.197c2.893-1.697 18.887-12.104 22.275 16.216 3.389 28.319 0 24.93 0 24.93s4.842 1.697 11.862-11.86c7.02-13.557 28.804-16.701 28.804-16.701l1.21-14.277s4.321-9.464.993-13.393a8.432 8.432 0 01-1.94-4.097c-.55-3.626 0-9.668 7.71-14.688C201.4 136.109 206 129.819 206 129.819s.242-4.603-7.02-6.781C191.715 120.86 162.182 109 162.182 109l-.992 4.117 23.302 16.444s-11.619 9.425-20.836 9.197c0 0 1.711 7.019-6.52 7.262z"/><path fill="#000" d="M162 134.304a51.588 51.588 0 01-1.39-6.304l-13.306 3.612a15.39 15.39 0 01-.304 7.89c5.562 1.526 11.473-.523 15-5.198z" opacity=".1"/><ellipse cx="150.5" cy="126" fill="#FFBDC6" rx="13.5" ry="14"/><path fill="#000" d="M158.583 93.114c3.833.436 7.473 2.1 11.246 3.007a5.532 5.532 0 002.91.115c1.465-.461 2.656-2.004 4.176-1.96.933 0 1.762.672 2.532 1.288a30.754 30.754 0 013.476 3.127c2.601 2.851 4.215 6.69 6.588 9.79 2.374 3.103 6.118 5.513 9.489 4.09-2.294 9.019-9.806 15.888-17.934 16.45-3.243.22-6.565-.461-9.703.5a8.506 8.506 0 01-2.447.602c-1.808 0-3.263-1.674-4.39-3.302-2.641-3.828-4.732-8.178-7.706-11.67-.993-1.152-2.14-2.25-3.53-2.46-1.39-.21-2.666.456-3.903 1.102-2.04 1.067-4.126 2.175-5.71 4.009-1.584 1.834-2.582 4.56-1.926 7.015.352 1.332 1.157 2.535 1.171 3.928.03 2.22-1.916 3.848-2.298 6.013a22.71 22.71 0 00-.095 2.736c-.169 2.966-2.09 5.396-4.096 7.26-.785.726-1.649 1.503-1.877 2.625-.154.762 0 1.574-.1 2.345-.292 1.925-2.194 2.902-3.877 3.157a11.192 11.192 0 01-5.82-.696c2.354-1.128 3.804-4.32 3.258-7.186-.75-3.968-4.702-6.814-4.365-10.858a12.716 12.716 0 011.093-3.572 32.832 32.832 0 001.867-6.765c.297-1.793.441-3.692-.115-5.396-.496-1.558-1.534-2.79-2.413-4.104a23.374 23.374 0 01-2.795-5.782 4.042 4.042 0 01-.268-1.91 3.934 3.934 0 011.216-2.003c2.16-2.29 4.469-4.675 7.364-5.327a16.204 16.204 0 014.18-.165c2.426.08 4.854-.024 7.265-.31 1.986-.236 5.342-.201 7.025-1.504 1.57-1.217 2.453-2.736 4.385-3.507a12.72 12.72 0 016.127-.682zM168 237s7.956 15.298 5.545 20m7.64 22l-12.086-14.754v.256s-.697-4.777 1.604-3.173c5.044 3.514 13.111 9.272 13.285 10.264.175.992-1.635 4.955-2.803 7.407z" opacity=".1"/><path d="M164.644 138.848s.98 4.065-2.173 6.097c4.846-.834 5.061-4.637 4.895-6.29-.9.146-1.81.21-2.722.193zm-90.77 57.284s43.95-24.55 50.422-37.065c4.626-8.982 15.778-14.369 21.701-16.697-4.317 1.48-18.866 7.059-24.33 17.66-6.447 12.513-50.422 37.069-50.422 37.069l2.629-.967zm99.327-59.198c7.48-2.343 14.628-8.193 14.628-8.193l-22.95-16.377.524-2.24-2.198-.887-.955 4.094 22.935 16.367a55.332 55.332 0 01-11.984 7.236zm.132 55.469a56.703 56.703 0 018.988-2.29l.04-.463a60.604 60.604 0 00-9.028 2.753zm-27.796 25.216h-.21a.428.428 0 01-.49-.07c.16.047.324.07.49.07.783-.459 1.958-4.055-.49-24.861-2.633-22.197-12.997-20.466-18.666-17.91 5.796-1.609 13.77-.218 16.037 18.872 2.473 20.806 1.293 24.402.49 24.86a5.265 5.265 0 002.84-.961zm-2.839.967c-.166 0-.33-.023-.49-.07a.428.428 0 00.49.07z" fill="#000" opacity=".1"/><path fill="#474463" d="M158.582 93.106c3.834.44 7.473 2.1 11.247 3.007a5.531 5.531 0 002.91.11c1.464-.456 2.656-2.005 4.175-1.96.934.03 1.763.672 2.533 1.288a31.244 31.244 0 013.475 3.127c2.602 2.852 4.216 6.69 6.59 9.793 2.373 3.102 6.117 5.513 9.488 4.09-2.294 9.02-9.806 15.891-17.935 16.452-3.242.226-6.564-.456-9.702.501a8.343 8.343 0 01-2.448.602c-1.807 0-3.262-1.674-4.39-3.303-2.64-3.829-4.731-8.174-7.705-11.667-.993-1.157-2.14-2.255-3.53-2.465-1.39-.21-2.667.46-3.903 1.107-2.041 1.068-4.126 2.17-5.71 4.01-1.584 1.839-2.582 4.555-1.927 7.016.353 1.333 1.157 2.535 1.172 3.929.03 2.225-1.917 3.849-2.299 6.014a22.716 22.716 0 00-.094 2.736c-.17 2.967-2.09 5.392-4.097 7.262-.784.721-1.648 1.503-1.877 2.62-.154.767 0 1.574-.099 2.351-.293 1.924-2.195 2.902-3.878 3.152a11.091 11.091 0 01-5.82-.696c2.354-1.123 3.804-4.32 3.258-7.182-.75-3.969-4.702-6.82-4.364-10.86a12.67 12.67 0 011.092-3.573 32.973 32.973 0 001.867-6.77c.298-1.79.442-3.69-.114-5.398-.497-1.554-1.535-2.792-2.413-4.105a23.43 23.43 0 01-2.796-5.778 4.099 4.099 0 01-.268-1.914 3.96 3.96 0 011.217-1.98c2.16-2.29 4.468-4.67 7.363-5.327a16.423 16.423 0 014.18-.16 48.893 48.893 0 007.265-.311c1.986-.236 5.343-.206 7.026-1.504 1.569-1.212 2.453-2.736 4.384-3.508a12.799 12.799 0 016.127-.706z"/><circle cx="250" cy="230" r="28" fill="#FFF"/><path fill="#3ACC6C" d="M286 226.5a37.5 37.5 0 11-37.5-37.5c20.71 0 37.5 16.79 37.5 37.5zm-41.833 19.85l27.817-27.817a2.417 2.417 0 000-3.422l-3.423-3.398a2.412 2.412 0 00-3.417 0L242.456 234.4l-10.594-10.619a2.427 2.427 0 00-3.422 0l-3.423 3.443a2.427 2.427 0 000 3.423l15.727 15.722a2.417 2.417 0 003.423 0v-.02z"/></g></svg>