<svg xmlns="http://www.w3.org/2000/svg" width="387" height="267"><defs><linearGradient id="a" x1="50.019%" x2="50.019%" y1="99.988%" y2="-.007%"><stop offset="0%" stop-color="gray" stop-opacity=".25"/><stop offset="54%" stop-color="gray" stop-opacity=".12"/><stop offset="100%" stop-color="gray" stop-opacity=".1"/></linearGradient></defs><g fill="none" transform="translate(-7 -17)"><path fill="#FFF" d="M126.685 30.982c13.095-11.83 33.654-14.24 52.366-13.298 58.773 2.959 111.827 31.692 157.719 64.195 16.613 11.767 32.97 24.458 43.763 40.651 21.956 32.986 15.441 78.683-15.083 105.855-10.386 9.247-22.978 16.333-35.903 22.619-22.98 11.17-47.772 20.136-73.86 22.69-18.601 1.819-37.416.334-55.924-2.199C148.1 264.4 97.387 248.712 54.88 221.862c-18.651-11.774-36.223-26.412-43.907-45.47-7.684-19.057-2.766-43.184 16.27-54.458 7.873-4.664 17.284-6.768 26.501-8.748 13.567-2.908 27.348-5.78 39.591-11.697 12.645-6.11 27.615-17.931 25.113-31.46-2.686-14.505-4.841-27.253 8.238-39.047z" opacity=".332"/><path fill="#6C63FF" d="M93.5 167.169s3.44-2.859 7-1.093c0 0-.995 2.454-5.43 2.424l-1.57-1.331z"/><path fill="#3ACC6C" d="M92.663 167.5s-1.038 4.245 2.124 7c0 0 1.754-1.797-.24-5.977l-1.884-1.023z"/><path fill="#6C63FF" d="M88.5 163.195s.126-3.394 8-2.564c0 0 .122 2.183-2.585 3.32-2.706 1.137-4.002.32-5.415-.756z"/><path fill="#3ACC6C" d="M88 163.5s-3.35 1.273-.037 9c0 0 2.215-.612 2.497-3.747.28-3.136-.946-4.171-2.46-5.253zm-4.487-4.368s-.627-5.91 6.962-5.622c0 0 .723 5.344-5.576 6.99l-1.386-1.368zm-6.013-6.205s.857-6.86 9-5.155c0 0 .246 5.894-7.613 6.728l-1.387-1.573zm-4-7.537s1.662-6.188 10-4.642c0 0-1.724 5.566-9.403 5.752l-.597-1.11zm-4-5.94s1.501-6.287 9-4.69c0 0-2.25 5.996-8.476 5.732l-.524-1.041zm-2-6.109s1.04-8.171 8-6.653c0 0-1.734 7.466-7.456 7.812l-.544-1.159zm-3-7.039s1.4-8.644 9-6.443c0 0-2.643 8.221-8.432 7.608l-.568-1.165zm-2-7.44s2.341-8.365 8-8.362c0 0-2.391 8.82-7.465 10l-.535-1.638zm-1-6.9s2.469-10.025 7-9.437c0 0-1.682 7.652-6.784 10.975l-.216-1.538zm-1-7.602s2.426-8.354 7-8.86c0 0-1.556 8.188-6.817 11l-.183-2.14zm-1-8.199s3.04-8.358 6-8.661c0 0-1.149 8.157-5.652 10l-.348-1.339zm0-7.284s1.85-8.565 5-9.377c0 0-.139 6.955-4.655 10l-.345-.623zm-2-9.067s1.784-7.14 4-8.31c0 0-.15 8.333-3.424 10l-.576-1.69zm-.95-5.552L55.5 61.5s5.573 9.466 1.527 15l-.477-2.242zm-3.849-12.503S49.264 52.967 48.5 52.5c0 0 6.307 5.556 5.988 13l-1.787-3.745z"/><path fill="#3ACC6C" d="M83.067 158.508s-6.045-.56-5.537 7.975c0 0 5.467.68 6.97-6.453l-1.433-1.522zM77.17 151.5s-6.426.243-5.596 8.977c0 0 5.431.826 6.926-7.379l-1.33-1.598zm-4.23-5.536s-5.963-2.747-9.44 5.13c0 0 5.498 2.265 10-3.9l-.56-1.23zm-3.982-5.98s-6.167-2.584-9.458 4.188c0 0 6.394 1.831 10-3.158l-.542-1.03zm-1.78-6.191s-6.158-5.464-10.678.477c0 0 6.249 4.449 11 .78l-.322-1.257zm-1.941-8.061s-6.237-5.433-10.737.653c0 0 6.934 4.391 11 .52l-.263-1.173zm-1.75-6.898s-4.76-6.798-9.987-5.045c0 0 4.946 7.203 10 6.684l-.013-1.64zm-2.152-6.869s-4.737-8.998-8.835-7.237c0 0 3.425 6.923 9 8.772l-.165-1.535zm-.377-8.497s-5.035-6.895-9.458-5.863c0 0 4.17 7.027 10 7.895l-.542-2.032zm-.458-7.296s-3.997-7.714-7-7.672c0 0 2.077 7.734 6.803 9l.197-1.328zm-1-7.427s-4.121-8.349-7-8.244c0 0 2.21 7.196 6.897 8.999l.103-.755zm-1-8.028s-3.386-6.559-6-7.217c0 0 1.882 8.074 5.724 9l.276-1.783zm-2.034-7.149L49.5 63.5s2.065 10.128 8 12l-1.034-1.932z"/><path fill="#3ACC6C" d="M51.05 62.84s-8.213-5.422-8.55-6.34c0 0 4.375 7.883 12 9l-3.45-2.66zm-.77-3.34s-9.453-8.095-11.78-8c0 0 7.533.052 12 7.545l-.22.455z"/><path fill="#444053" d="M58.5 81.444l-.324.056C56.01 68.38 53.282 60.686 50.5 59.828l.094-.328c2.945.904 5.688 8.487 7.906 21.944zm4 31.996l-.477.06a96.914 96.914 0 01-.372-3.797C60.789 98.63 59.708 88.47 58.5 80.87l.264-.37c1.211 7.614 2.502 18.072 3.367 29.163.099 1.266.223 2.535.369 3.777zm40.761 60.06c-.09-.037-9.16-3.632-18.781-12.663a72.753 72.753 0 01-14.075-18.174c-4.612-8.443-7.63-18.923-8.905-29.163l.538.226c2.86 22.986 14.102 38.35 22.876 46.606 9.527 8.952 18.502 12.51 18.586 12.543l-.239.625z"/><g opacity=".7"><path fill="#6C63FF" d="M107.758 145.65s3.997-1.333 6.93 1.19c0 0-1.574 1.733-5.778.38l-1.152-1.57zm-.448.007s-2.093 3.69-.228 7.093c0 0 1.98-1.21 1.521-5.64l-1.294-1.453zm-3.211-4.964s1.154-3.306 8.398-.13c0 0-.544 2.19-3.472 2.497-2.927.307-3.904-.89-4.927-2.367zm-.459-.15s-3.465.167-2.535 8.09c0 0 2.235.1 3.366-2.643 1.132-2.743.278-4.033-.831-5.447zm-2.99-5.963s1.053-5.667 8.61-3c0 0-.796 5.177-7.607 4.707l-1.003-1.707zm-3.419-7.667s2.74-6 9.946-2.026c0 0-1.425 5.45-9.091 3.873l-.855-1.847zm-1.993-7.483s3.416-5.667 10.56-1.73c0 0-3.3 5.02-10.352 3l-.208-1.27z"/><path fill="#3ACC6C" d="M93.393 112.133s3.432-5.893 10.293-1.97c0 0-4.076 5.374-10.095 3.187l-.198-1.217zm-.673-6.636s3.412-7.42 9.828-3.82c0 0-3.891 6.533-9.623 5.09l-.205-1.27zm-.191-7.85s3.692-7.41 10.032-3.23c0 0-4.71 6.666-9.838 4.446l-.194-1.216zm.485-7.124s4.62-7.153 9.953-5.473c0 0-4.808 7.577-9.927 7.17l-.026-1.697zm.937-6.83s5.28-8.69 9.468-6.766c0 0-3.841 6.696-9.706 8.28l.238-1.514zm1.614-8.01s4.692-7.163 9.095-6.3c0 0-3.828 7.264-9.544 8.37l.449-2.07zm1.442-7.483s5.33-7 8.233-6.393c0 0-3.475 7.373-8.296 7.763l.063-1.37zm1.468-6.93s4.27-8 7.313-7.947c0 0-2.264 6.89-7.197 8.667l-.116-.72zm1.317-9.237s3.91-6.246 6.498-6.666c0 0-2.607 7.913-6.409 8.47l-.089-1.804zm.68-6.12l2.795-12.14s1.884 10.25-3.046 14.334l.25-2.194zm-.139-12.856s-.762-9.627-1.376-10.334c0 0 4.574 7.36 2.02 14.527l-.644-4.193z"/><path fill="#6C63FF" d="M100.449 134.49s-5.28-2.213-7.198 5.64c0 0 4.723 2.16 8.062-3.857l-.864-1.783zm-3.422-7.843s-6.313-1.744-7.937 6.386c0 0 5.05 2.407 8.785-4.536l-.848-1.85zm-1.987-6.717s-5.01-4.283-10.56 1.73c0 0 4.693 3.71 10.761-.46l-.201-1.27z"/><path fill="#3ACC6C" d="M93.251 112.157s-5.101-4.494-10.381 1.416c0 0 5.55 3.8 10.576-.2l-.195-1.216zm-.498-6.47s-4.197-7-10.184-2.714c0 0 4.577 6.067 10.118 4l.066-1.286zm.145-8.14s-4.197-7.13-10.23-2.517c0 0 5.161 6.333 10.121 3.743l.11-1.226zm.752-7.09s-2.517-8.157-8.09-8c0 0 2.573 8.62 7.606 9.64l.485-1.64zm.426-6.77s-2.072-9.984-6.65-9.597c0 0 1.38 7.613 6.37 11.103l.28-1.506zm1.914-8.37s-2.692-8.147-7.17-8.464c0 0 1.838 8.017 7.075 10.584l.095-2.12zm1.538-7.14s-1.445-8.707-4.29-9.557c0 0-.366 8.157 3.703 10.797l.587-1.24zm1.132-7.037s-1.812-8.917-4.745-9.733c0 0 .208 7.256 4.432 10.386l.313-.653zm1.63-8.453s-1.188-7.294-3.412-8.69c0 0-.66 8.313 2.64 10.333l.772-1.643z"/><path fill="#3ACC6C" d="M100.185 45.58l-3.848-11.84s-.99 10.38 4.29 14.017l-.442-2.177zm-1.568-12.123s-6.18-7.37-6.227-8.3c0 0 1.891 8.476 8.702 11.74l-2.475-3.44zm.182-2.504s-6.458-10.85-8.686-11.45c0 0 7.102 2.297 9.016 11.054l-.33.396z"/><path fill="#444053" d="M99.868 53.913l-.33-.046c1.825-13.404 1.485-21.717-.964-23.4l.188-.277c2.597 1.79 2.977 9.993 1.106 23.723z"/><path fill="#444053" d="M93.994 85.58l-.492-.09a98.57 98.57 0 01.753-3.747c2.412-10.85 4.336-20.89 5.375-28.53l.373-.273c-1.043 7.667-2.848 18.05-5.26 28.917a80.684 80.684 0 00-.75 3.723z"/><path fill="#444053" d="M115.071 154.263c-.073-.06-7.504-6.176-13.86-17.666a73.293 73.293 0 01-7.808-21.557c-1.825-9.447-1.557-20.373.277-30.557l.436.374c-4.109 22.86 1.881 40.893 7.67 51.39 6.27 11.38 13.622 17.433 13.697 17.493l-.412.523z"/></g><path fill="#3ACC6C" d="M346.229 269.519s-14.276-.88-12.59 9.353c0 0-.338 1.806 1.265 2.628 0 0 .027-.76 1.466-.5a6.392 6.392 0 001.55.075 3.21 3.21 0 001.897-.801s4.011-1.696 5.571-8.403c0 0 1.155-1.464 1.11-1.84l-2.41 1.035s.824 1.779.176 3.254c0 0-.078-3.188-.54-3.109-.095.018-1.253.619-1.253.619s1.418 3.108.337 5.346c0 0 .406-3.816-.79-5.125l-1.688 1.015s1.655 3.198.534 5.806c0 0 .287-4.003-.892-5.56l-1.536 1.225s1.557 3.154.608 5.316c0 0-.125-4.66-.939-5.012 0 0-1.35 1.212-1.55 1.727 0 0 1.064 2.286.406 3.495 0 0-.406-3.108-.74-3.108 0 0-1.35 2.055-1.479 3.454 0 0 .058-2.097 1.155-3.661a3.984 3.984 0 00-2.05 1.084s.21-1.454 2.364-1.582c0 0 1.107-1.557 1.405-1.654 0 0-2.165-.183-3.475.411 0 0 1.155-1.382 3.87-.75l1.516-1.267s-2.847-.397-4.052.041c0 0 1.388-1.212 4.46-.328l1.651-1.008s-2.424-.535-3.87-.346c0 0 1.527-.842 4.356.07l1.182-.543s-1.78-.345-2.3-.414c-.52-.07-.546-.204-.546-.204a6.024 6.024 0 013.336.38s2.529-.957 2.485-1.119z"/><ellipse cx="336.5" cy="282" fill="#6C63FF" opacity=".1" rx="10" ry="1.5"/><path fill="#3ACC6C" d="M373.348 243.51s-7.685-.51-6.773 5.457c-.096.62.178 1.239.68 1.533 0 0 .017-.443.79-.293.277.053.557.069.836.046a1.642 1.642 0 001.02-.468s2.16-.99 3.002-4.902c0 0 .622-.854.596-1.072l-1.29.615s.442 1.036.094 1.897c0 0-.042-1.862-.29-1.815-.052 0-.674.357-.674.357s.76 1.808.187 3.12c0 0 .219-2.227-.426-2.988l-.913.59s.89 1.865.287 3.387c0 0 .155-2.333-.48-3.244l-.826.714s.835 1.84.323 3.102c0 0-.068-2.716-.507-2.923a5.536 5.536 0 00-.835.997s.574 1.336.22 2.04c0 0-.22-1.811-.397-1.818 0 0-.723 1.2-.797 2.022a4.7 4.7 0 01.623-2.144 2.11 2.11 0 00-1.107.633s.113-.847 1.29-.922c0 0 .597-.911.755-.965 0 0-1.164-.107-1.87.24 0 0 .622-.801 2.083-.44l.819-.736s-1.535-.233-2.183.025c0 0 .748-.715 2.402-.193l.89-.59a7.366 7.366 0 00-2.086-.2s.822-.49 2.344.043l.645-.318s-.967-.207-1.238-.24c-.27-.032-.297-.12-.297-.12a3.029 3.029 0 011.8.22s1.325-.55 1.303-.646z"/><ellipse cx="368" cy="250.5" fill="#6C63FF" opacity=".1" rx="5.5" ry="1"/><path fill="#3ACC6C" d="M327.313 248.513s-9.885-.589-8.717 6.235c-.125.709.23 1.417.876 1.752 0 0 0-.504 1.013-.338.355.058.716.076 1.075.054a2.278 2.278 0 001.312-.535s2.779-1.13 3.861-5.605c0 0 .8-.975.766-1.225l-1.666.7s.57 1.188.12 2.172c0 0-.051-2.128-.374-2.077-.065 0-.866.41-.866.41s.98 2.066.24 3.565c0 0 .282-2.544-.545-3.417l-1.175.677s1.144 2.131.367 3.873c0 0 .2-2.669-.614-3.72l-1.065.814s1.078 2.101.422 3.546c0 0-.086-3.106-.652-3.343 0 0-.931.809-1.072 1.14 0 0 .735 1.526.278 2.331 0 0-.278-2.067-.508-2.077 0 0-.928 1.37-1.03 2.31.046-.868.322-1.71.8-2.442-.535.1-1.028.352-1.419.724 0 0 .144-.97 1.649-1.055 0 0 .766-1.039.972-1.103 0 0-1.498-.122-2.404.274 0 0 .796-.917 2.675-.5l1.051-.843s-1.968-.267-2.806.027c0 0 .962-.809 3.091-.22l1.144-.677s-1.68-.358-2.682-.23c0 0 1.058-.558 3.015.048l.821-.332s-1.23-.237-1.59-.274c-.36-.037-.378-.135-.378-.135a4.33 4.33 0 012.312.254s1.734-.65 1.703-.758z"/><ellipse cx="320.5" cy="256.5" fill="#6C63FF" opacity=".1" rx="7" ry="1"/><path fill="#000" d="M246.5 251.532l-33.483 12.994-48.94 18.974c-1.847-3.439-4.57-8.143-7.942-13.727-11.589-19.269-30.769-49.238-47.839-75.574A8479.764 8479.764 0 0072.5 139.468l11.987-3.486 97.908-28.482L246.5 251.532z" opacity=".1"/><path fill="#FFF" d="M246.5 249.532l-33.483 12.994-48.94 18.974c-1.847-3.439-4.57-8.143-7.942-13.727-11.589-19.269-30.769-49.238-47.839-75.574A8479.764 8479.764 0 0072.5 137.468l11.987-3.486 97.908-28.482L246.5 249.532z"/><path fill="#000" d="M246.5 249.236l-33.48 12.967a251.533 251.533 0 01-56.877 5.236c-11.588-19.229-30.767-49.136-47.835-75.418L84.5 133.924l97.9-28.424 64.1 143.736z" opacity=".1"/><path fill="#0572A4" d="M272.5 241.607s-52.128 30.827-129.951 23.87L80.5 114.255l29.733-5.106L213.017 91.5l58.319 147.184 1.164 2.923z"/><path fill="#000" d="M270.5 239.15c-12.27.605-26.457.548-40.739-1.16-15.452-1.818-30.977-5.582-44.316-12.473-11.14-5.76-20.664-12.017-28.971-19.529-21.6-19.498-34.969-47.39-46.974-96.784L212.227 91.5 270.5 239.15z" opacity=".1"/><path fill="#FFF" d="M308.5 230.102s-38.384 7.524-77.417 2.89c-15.437-1.821-30.966-5.56-44.276-12.423-11.129-5.736-20.645-11.968-28.945-19.449-26.72-24.056-40.82-60.882-55.362-135.287 0 0 63.796 15.4 126.827-18.333 0 0 21.26 132.735 79.173 182.602z"/><path fill="#000" d="M231.5 232.5c-15.391-1.815-30.872-5.54-44.142-12.38-11.096-5.717-20.583-11.927-28.858-19.382 22.674-1.841 25.934-14.238 25.934-14.238 16.81 26.678 47.066 46 47.066 46z" opacity=".1"/><path fill="#067FB7" d="M135.5 93.386s34.498 3.848 66.788-13.886l2.212 6.944s-30.89 15.056-69 15.056v-8.114z" opacity=".3"/><path fill="#000" d="M136.5 127.506s33.94-2.74 71.722-21.006l1.278 2.922s-13.905 17.505-73 22.078v-3.994zm4 13.98s33.94-2.737 71.722-20.986l1.278 2.92s-13.902 17.507-73 22.08v-4.014zm3 15s33.94-2.737 71.722-20.986l1.278 2.92s-13.922 17.497-73 22.08v-4.014zm5 11.997s33.94-2.737 71.722-20.983l1.278 2.92s-13.902 17.498-73 22.08v-4.017z" opacity=".3"/><path fill="#000" d="M152.5 182.486s33.94-2.737 71.722-20.986l1.278 2.92s-13.905 17.5-73 22.08v-4.014z" opacity=".1"/><path fill="#067FB7" d="M213.525 100.843l9.538-3.25 3.247 9.547-9.538 3.25zm5.426 14.203l9.538-3.25 3.247 9.548-9.538 3.25zm8.699 27.33l9.538-3.25 3.247 9.547-9.538 3.25zm4.99 14.668l9.539-3.25 3.247 9.547-9.538 3.25zm-9.265-27.242l9.538-3.25 3.247 9.547-9.538 3.25z" opacity=".3"/><path fill="url(#a)" d="M332.075 168.03l-.356-.334c.917-.186 1.781-.27 1.781-.27s-3.146-11.428-8.452-15.241c-2.624-1.885-4.81-5.024-6.355-7.716a116.679 116.679 0 00-9.465-13.934l-.957-1.211-.412-.527c.575-.874 1.279-1.705 1.2-2.719a1.872 1.872 0 00-.066-.55l-.038.056c-.448-1.307-2.172-1.884-3.452-2.605-2.99-1.691-4.269-5.387-4.907-8.823-.498-2.669-.91-5.671-2.99-7.39-1.328-1.103-3.136-1.467-4.475-2.564-1.269-1.041-1.976-2.619-2.774-4.07-1.329-2.419-3.083-4.67-5.398-6.115-2.316-1.444-5.256-2.001-7.798-1.034-.973.374-1.857.954-2.82 1.358-2.392 1-5.133.867-7.502 1.925-2.917 1.3-4.814 4.176-6.548 6.905-.897 1.41-2.306 3.476-3.106 5.554v-.217a7.974 7.974 0 00-.618 2.89c-.016.422.03.844.136 1.253.359 1.335 1.429 2.072 2.698 2.586.073.424.17.844.292 1.257a12.32 12.32 0 007.94 8.143c.11.04.223.067.332.1.093.264.226.512.396.734 1.06 1.334 3.186.954 4.568-.017.056-.036.11-.083.163-.123.009.189.029.377.06.564.03.16.053.333.086.477 1.246 6.742 4.435 10.38 4.435 10.38s.296.448.777 1.189c-.252 3.719 1.439 7.108 3.392 9.727-1.684.977-5.315 2.892-7.561 2.732 0 0-8.252 1.07-9.21.534-.132-.074-.258.026-.378.253-2.272-1.39-9.538-5.4-10.16-.253-.56 4.67 6.06 5.267 9.213 5.29a88.005 88.005 0 00-.222 2.462l13.558-.93 7.06-1.045c-.781 1.038-1.662 1.962-2.522 2.412 0 0-6.382 5.187-7.485 5.234-.156 0-.206.157-.183.407-2.684 0-11.033.39-8.717 5.06 2.103 4.234 8.023 1.305 10.7-.313a79.902 79.902 0 001.17 2.195l10.94-7.822 2.369-2.002a8.401 8.401 0 002.355-.457c0 .03.024.06.034.087.084.245.147.497.189.754.664 3.833-1.568 12.773-1.568 12.773s-4.91 12.572-2.552 14.287c2.36 1.715.615 8.95.615 8.95.412.696.885 1.352 1.415 1.962.25.29.527.554.827.79-.11.3-.2.607-.272.918a7.508 7.508 0 00.389 4.617c1.621 3.95.634 9.674.634 9.674l-3.182 21.59c-1.529-.234-3.502-.428-4.236 0-1.127.636-.758 3.849 1.857 5.23a6.718 6.718 0 01-2.691 1.244c-2.326.534-3.96.874-5.037 1.08-.07 0-5.581-1.22-6.996-.413-1.416.808-.735 5.284 3.292 6.382 3.94 1.07 18.634 2.642 22.867 2.001l.27-.046c3.597-.714.438-5.461.039-6.038-.027-.194-.05-.397-.076-.617a31.55 31.55 0 01-.143-1.668c4.013.37 7.973.55 9.79.277.087 0 .166-.027.24-.044 3.186-.634.395-4.83.036-5.337a176.71 176.71 0 00-.05-.41v-.037c0-.097-.023-.2-.033-.3-.01-.1 0-.17-.027-.26-.026-.09 0-.16-.023-.244l-.04-.51v-.217c0-.134-.016-.267-.023-.404v-.224c0-.2 0-.407-.02-.613v-1.632c0-.223.02-.453.033-.683l.02-.247c0-.17.027-.334.043-.507 0-.084 0-.167.027-.25.027-.234.057-.468.09-.704 0-.07.023-.14.033-.21.03-.177.06-.357.093-.538 0-.086.033-.176.053-.266.04-.194.083-.387.13-.58 0-.054.023-.108.036-.161a17.784 17.784 0 01.273-.934c.056-.174.116-.334.18-.514l.079-.213c.09-.227.186-.45.286-.667a3.01 3.01 0 01.086-.17c.083-.174.173-.334.266-.514l.113-.197a9.57 9.57 0 01.398-.63c3.655-5.231 4.618-15.319 4.529-17.514-.09-2.195.435-6.748 1.09-7.422.438-.45 2.99-4.003 4.514-6.705.276-.494.515-.958.704-1.371 1.084-.377 1.801-.667 1.801-.667a15.528 15.528 0 01-.545-4.3c.027-2.84.804-6.579 4.014-9.614 4.737-4.484 5.398-8.927 5.461-10.635v-.317a7.288 7.288 0 00-.026-.467z"/><path fill="#A5636D" d="M320.411 195.715a57.85 57.85 0 01-4.384 6.689c-.634.673-1.143 5.221-1.055 7.406.087 2.185-.84 12.257-4.384 17.474-3.544 5.218-1.723 14.237-1.723 14.237l-5.655 1.979h-6.795l-4.68-1.397-1.235-3.4s1.646-.252 5.733-1.222a5.298 5.298 0 004.232-4.804l2.87-20.006s.846-5.05-.55-8.543a6.944 6.944 0 01.458-6.093l.091-.142s4.428-3.49 8.94-5.675c3.996-1.926 8.05-2.842 9.2.575.148.441-.338 1.576-1.063 2.922z"/><path fill="#000" d="M320.411 195.716a57.862 57.862 0 01-4.384 6.69c-.634.674-1.143 5.222-1.055 7.408.087 2.185-.84 12.259-4.384 17.477-2.495 3.68-2.33 9.243-2.023 12.21.131 1.241.293 2.02.293 2.02l-5.655 1.979h-6.788l-4.68-1.387-1.235-3.4s.411-.065 1.349-.247c.937-.181 2.36-.491 4.404-.976a5.299 5.299 0 004.212-4.805l2.87-20.01s.846-5.05-.55-8.545a6.947 6.947 0 01.458-6.094l.091-.141s4.428-3.492 8.94-5.677c3.996-1.926 8.05-2.842 9.2.576.148.44-.338 1.575-1.063 2.922z" opacity=".05"/><path fill="#000" d="M308.5 241.539l-5.543 1.961h-6.66l-4.587-1.388-1.21-3.369s.403-.063 1.322-.243a2.516 2.516 0 001.92 2.722l2.605.09c.367 0 .737.02 1.1.02a32.936 32.936 0 0010.769-1.805c.132 1.231.284 2.012.284 2.012z" opacity=".1"/><path fill="#BEBED0" d="M295.748 241.65l-2.688-.094s-2.508-.54-1.895-3.427c0 0-4.838-1.114-6.075-.377-1.237.737-.64 4.8 2.855 5.796 3.408.972 16.172 2.4 19.842 1.816l.235-.042c3.326-.691 0-5.533 0-5.533a33.908 33.908 0 01-12.274 1.86z"/><path fill="#A5636D" d="M312.725 196.411c-.18.352-.372.717-.59 1.1-1.67 2.988-4.35 6.75-4.818 7.238-.715.75-1.286 5.81-1.194 8.254.09 2.444-.948 13.64-4.95 19.45-2.047 2.99-2.51 7.057-2.476 10.33.01 1.11.077 2.218.2 3.32.148 1.352.337 2.196.337 2.196l-6.383 2.201h-7.682l-5.286-1.547-1.383-3.799s.462-.073 1.501-.275a144.98 144.98 0 004.973-1.08c2.623-.534 4.569-2.716 4.767-5.345l3.235-22.27s.955-5.628-.618-9.513a7.524 7.524 0 01-.377-4.546 7.19 7.19 0 011.012-2.397s1.234-.956 3.097-2.221a69.055 69.055 0 012.803-1.8c4.507-2.746 10.434-5.548 13.275-3.506a3.616 3.616 0 011.309 1.856c.115.385-.206 1.258-.752 2.354z"/><path fill="#000" d="M299.5 249.15l-6.47 2.35h-7.77l-5.358-1.652-1.402-4.054s.468-.078 1.522-.294a3.02 3.02 0 00.91 2.619c.539.475 1.22.74 1.928.751l2.452.082c.427 0 .858.025 1.286.025a37.663 37.663 0 0012.577-2.17 29.62 29.62 0 00.325 2.343z" opacity=".1"/><path fill="#BEBED0" d="M285.103 249.167l-2.42-.083a3.01 3.01 0 01-1.91-.73c-.616-.559-1.147-1.524-.802-3.147 0 0-5.41-1.251-6.806-.424s-.713 5.4 3.198 6.521c3.831 1.093 18.112 2.699 22.224 2.044l.26-.048c3.72-.78 0-6.232 0-6.232a37.69 37.69 0 01-13.744 2.099z"/><path fill="#000" d="M320.415 195.558c-2.284.781-5.637 1.817-7.476 1.86a3.418 3.418 0 01-.57-.026c-1.287-.173-5.263.104-8.91.425-1.463.127-2.87.261-4.033.379-1.733.177-2.926.304-2.926.304v-1.108a68.256 68.256 0 012.77-1.772c4.453-2.703 10.309-5.463 13.115-3.452 3.95-1.87 7.956-2.76 9.093.559.133.422-.347 1.523-1.063 2.83z" opacity=".1"/><path fill="#067FB7" d="M330.498 169.13c-.064 1.703-.7 6.122-5.252 10.588-5.803 5.693-3.342 13.866-3.342 13.866s-6.92 2.73-9.905 2.804a3.347 3.347 0 01-.571-.026c-1.792-.252-8.905.41-12.993.826a624.36 624.36 0 00-2.935.312v-24.179l32.066-7.821 2.905 2.905c.025.24.034.483.026.725z"/><path d="M296.223 196.893l-.522.056v.25s1.182-.128 2.9-.306c2.899-.294 7.326-.706 10.255-.828-2.027-.185-8.723.432-12.633.828zm34.023-28.275l-2.87-2.857-1.911.478 2.403 2.392c.017.238.017.477 0 .716-.062 1.669-.69 6.014-5.187 10.401-5.732 5.589-3.302 13.622-3.302 13.622s-5.656 2.217-8.895 2.675c.309 0 .617.016.924.05.188.026.376.036.565.03 2.949-.073 9.784-2.755 9.784-2.755s-2.444-8.033 3.301-13.622c4.498-4.387 5.125-8.732 5.188-10.401a5.274 5.274 0 000-.73z" fill="#000" opacity=".1"/><path fill="#A5636D" d="M266.5 152.795s-9.287-6.93-9.969-.689c-.682 6.242 9.969 5.35 9.969 5.35v-4.66z"/><path fill="#F7CDDD" d="M283.291 148.5s-5.332 3.326-8.282 3.12c0 0-8.062 1.02-9 .51-.938-.51-1.509 7.37-1.509 7.37l13.255-.881 8.497-1.224s4.248-2.442 4.248-4.547c0-2.105-7.209-4.348-7.209-4.348z"/><path fill="#FF5722" d="M283.291 148.5s-5.332 3.326-8.282 3.12c0 0-8.062 1.02-9 .51-.938-.51-1.509 7.37-1.509 7.37l13.255-.881 8.497-1.224s4.248-2.442 4.248-4.547c0-2.105-7.209-4.348-7.209-4.348z" opacity=".05"/><path fill="#A5636D" d="M276.065 165.51s-11.827-.474-9.178 4.876c2.65 5.35 11.613-1.144 11.613-1.144l-2.435-3.731z"/><path fill="#5C5C8E" d="M287.5 154.5s-9.167-7.332-7.875-16.261c1.292-8.93 7.875 6.835 7.875 6.835v9.426z"/><path fill="#A5636D" d="M285.5 114.497a12.018 12.018 0 01-3.377 8.34 11.29 11.29 0 01-1.733 1.477 12.38 12.38 0 01-3.937 1.82c-.56.14-1.13.241-1.704.303-.411.04-.826.063-1.248.063a11.709 11.709 0 01-3.954-.664 12.003 12.003 0 01-7.745-14 12 12 0 0123.698 2.674v-.013z"/><path fill="#000" d="M330.486 169.14c-1.081.202-2.417.566-2.417 1.131 0 .953-15.081 6.089-15.081 6.089s.564 1.326-.942 3.61c-1.505 2.282-13.763 15.401-13.763 15.401l.04.39.157 1.513.748 7.226s-4.714-1.71-6.223-1.522c-.487.064-1-.253-1.505-.707a7.39 7.39 0 011.001-2.431s1.222-.97 3.065-2.253v-24.245l32.023-7.842 2.9 2.913c.016.242.014.485-.003.727z" opacity=".1"/><path fill="#FF5722" d="M332.5 168.017s-3.782.376-3.782 1.327-15.12 6.075-15.12 6.075.565 1.324-.944 3.602c-1.51 2.278-13.799 15.373-13.799 15.373l.948 9.106s-4.726-1.707-6.239-1.519c-.67.084-1.422-.54-2.041-1.27a13.22 13.22 0 01-1.362-1.952s1.703-7.214-.566-8.921c-2.269-1.707 2.457-14.23 2.457-14.23s2.135-8.905 1.506-12.726a4.599 4.599 0 00-.181-.752c0-.027-.017-.057-.027-.084-1.339-3.65-15.85-34.274-15.85-34.274.01-.868.07-1.736.18-2.597.03-.239.071-.487.115-.74.073-.452.171-.901.294-1.343.077-.284.168-.563.274-.837.449-1.156 1.135-2.046 2.16-2.067 0 0 1.134-1.26 3.794-1.602 1.948-.256 4.73 0 8.494 1.602 8.88 3.79 10.96 3.986 10.96 3.986l4.462 5.88.917 1.206a116.268 116.268 0 019.106 13.878c1.486 2.688 3.591 5.81 6.115 7.688 5.104 3.807 8.129 15.19 8.129 15.19z"/><path fill="#000" d="M299.5 146.5s12.252 3.124 17 11l-17-11zm4 14s2.594 15.76 1.874 16.944c-.72 1.185-1.874-16.944-1.874-16.944zm-1.296 8.029c-.9 1.195-4.56 10.434-4.56 10.434l1.056 15.514.93 9.023s-4.639-1.691-6.125-1.505c-.657.083-1.4-.536-2.005-1.258.963-5.284 3.025-16.34 3.396-16.554.49-.283 2.998-9.166 3.13-11.653.131-2.487 3.616-8.03 3.616-8.03s1.47 2.833.562 4.029zm-3.76-15.051c-.23.708-.584 4.827-.584 4.827-.256 3.626-2.954 4.813-4.612 5.195a4.652 4.652 0 00-.177-.75c-1.113-3.215-15.571-34.258-15.571-34.258.015-1.575.21-3.143.578-4.673 3.147-.945 8.13.51 8.13.51 1.44-.195 6.14 9.348 6.14 9.348s3.132 7.306 3.477 8.302c.344.995 0 2.627.137 3.197.138.57 1.602 1.06 1.809 1.844.207.784.072 2.346.21 2.624s.696 3.124.463 3.834z" opacity=".1"/><path fill="#FF5722" d="M297.444 152.522c-.23.711-.586 4.833-.586 4.833-.21 3.02-2.12 4.362-3.715 4.936a7.657 7.657 0 01-2.232.453l-2.243 1.987-10.357 7.769s-3.86-7.272-2.812-7.313c1.047-.04 7.087-5.208 7.087-5.208 1.847-1.007 3.698-4.363 4.557-6.088a5.41 5.41 0 01-.112-.624c-.372-3.218-8.183-15.541-8.183-15.541s-3.02-3.622-4.195-10.33c-.033-.154-.056-.312-.086-.473a4.902 4.902 0 01-.06-.631c-.141-2.581 1.703-3.52 3.89-3.742a15.32 15.32 0 013.425.107c1.13.145 2.249.37 3.349.671.935-.127 3.24 3.836 4.752 6.645.813 1.524 1.4 2.712 1.4 2.712s3.14 7.32 3.487 8.313c.345.993 0 2.634.138 3.201.138.567 1.607 1.064 1.814 1.85.208.785.073 2.348.211 2.627.138.279.705 3.135.471 3.846z"/><path fill="#000" d="M309.5 135.783c-2.012 2.074-5.263 2.081-7.872 1.015-2.61-1.066-4.82-2.974-7.238-4.46-1.57-.967-3.234-1.759-4.78-2.757a23.34 23.34 0 01-.671-.454c-1.784-1.272-3.33-2.906-5.179-4.06a8.002 8.002 0 00-4.159-1.353 4.694 4.694 0 00-1.982.42 2.674 2.674 0 00-.336.165 8.56 8.56 0 00-1.677 1.269c-.523.474-1.023.978-1.573 1.42-.033-.155-.057-.314-.087-.476a4.894 4.894 0 01-.06-.636c-.416.04-.836.064-1.262.064a11.733 11.733 0 01-3.994-.677c0-.05 0-.101-.03-.152-.453-2.41-1.272-4.96-3.194-6.314-1.113-.785-2.891-1.106-4.434-1.692-1.469-5.158.568-10.68 5.022-13.614a12.038 12.038 0 0114.376.832c4.092 3.43 5.488 9.15 3.444 14.105 1.952-.257 4.74 0 8.513 1.614 8.898 3.817 10.985 4.013 10.985 4.013l4.47 5.922c-.482.744-1.029 1.478-1.08 2.348-.083 1.594 1.456 2.707 2.798 3.458z" opacity=".1"/><path fill="#4C3E42" d="M265.866 117.936c1.903 1.343 2.713 3.871 3.165 6.258.14.745.272 1.531.724 2.122.996 1.323 3.041.95 4.36 0 1.317-.95 2.357-2.39 3.828-3.062 1.952-.893 4.25-.242 6.08.917 1.829 1.158 3.36 2.78 5.126 4.028 1.71 1.219 3.616 2.088 5.396 3.186 2.394 1.474 4.582 3.378 7.165 4.425 2.584 1.048 5.811 1.044 7.79-1.007-1.328-.745-2.852-1.847-2.75-3.445.104-1.598 1.943-2.79 1.82-4.428s-2.028-2.28-3.397-3.085c-2.855-1.679-4.074-5.372-4.685-8.78-.474-2.665-.866-5.643-2.835-7.355-1.272-1.1-2.989-1.46-4.27-2.551-1.212-1.038-1.886-2.605-2.657-4.052-1.271-2.407-2.942-4.647-5.15-6.087-2.208-1.44-5.017-2.014-7.44-1.027-.93.372-1.777.95-2.694 1.343-2.284 1.007-4.897.862-7.158 1.913-2.786 1.296-4.596 4.156-6.253 6.872-1.401 2.327-4.18 6.43-3.393 9.451.783 3.072 5.163 2.907 7.228 4.364z"/><path d="M308.53 126.993a2.116 2.116 0 00-.063-.366c-.504.796-1.13 1.57-1.19 2.503-.012.216.006.433.054.643.56-.896 1.278-1.74 1.199-2.78zm-6.28 6.567c-2.576-1.04-4.755-2.93-7.143-4.393-1.778-1.09-3.679-1.954-5.384-3.164-1.762-1.253-3.289-2.863-5.114-4-1.824-1.136-4.113-1.796-6.063-.913-1.467.667-2.5 2.083-3.819 3.043-1.318.96-3.338 1.334-4.348 0-.45-.586-.583-1.366-.722-2.106-.447-2.37-1.258-4.88-3.153-6.214-2.063-1.45-6.43-1.286-7.222-4.333a4.763 4.763 0 01-.103-1.667c-.507 1.36-.768 2.727-.46 3.917.794 3.06 5.162 2.897 7.222 4.333 1.898 1.334 2.706 3.847 3.156 6.217.14.74.272 1.52.719 2.107.994 1.313 3.034.943 4.352-.017 1.318-.96 2.348-2.373 3.818-3.04 1.947-.883 4.239-.237 6.064.913 1.824 1.15 3.351 2.76 5.113 4 1.705 1.214 3.606 2.074 5.381 3.164 2.388 1.466 4.57 3.356 7.147 4.396s5.795 1.034 7.77-1a9.506 9.506 0 01-1.448-.963c-1.795.663-3.938.457-5.762-.28z" fill="#000" opacity=".1"/><path fill="#5C5C8E" d="M243.437 156.707l26.643-10.044a2.51 2.51 0 011.938.067 2.545 2.545 0 011.322 1.432 2.58 2.58 0 01-.069 1.957 2.544 2.544 0 01-1.42 1.334L245.208 161.5l-5.708-.578 3.937-4.215z"/><path fill="#FFF" d="M272.538 146.973c.489 1.359-.177 2.872-1.49 3.38l-26.642 10.309-4.29-.445-.616.69 5.708.593 26.643-10.312a2.572 2.572 0 001.42-1.369c.28-.633.304-1.356.07-2.008a2.598 2.598 0 00-1.037-1.311c.092.15.17.308.234.473z" opacity=".1"/><path fill="#EFC8C4" d="M243.635 156.5l1.865 5-4.922-.494-1.078-.11 1.473-1.563z"/><path fill="#727A9C" d="M241.107 158.5c.127.101.234.23.315.377a.583.583 0 010 .583 1.21 1.21 0 01-.3.23 1.09 1.09 0 00-.438.81l-1.184-.13 1.607-1.87z"/><path fill="#3ACC6C" d="M220.066 105.442l-4.276-2.303a.556.556 0 01-.262-.328.625.625 0 01.024-.435l.454-1.03a.534.534 0 01.295-.29.47.47 0 01.396.028l2.88 1.55 3.009-6.812c.125-.283.434-.402.69-.266l.933.504a.552.552 0 01.263.327c.045.143.036.3-.025.436l-3.69 8.357a.537.537 0 01-.296.289.472.472 0 01-.395-.027zm10.002 28.008l-4.278-2.304a.556.556 0 01-.262-.327.625.625 0 01.024-.436l.454-1.03c.126-.283.437-.4.694-.262l2.88 1.551 3.007-6.82c.125-.283.433-.402.691-.266l.93.504a.555.555 0 01.263.327c.045.143.037.3-.023.437l-3.691 8.356c-.128.283-.437.4-.695.263l.006.007zm-5-14.008l-4.276-2.301c-.257-.138-.364-.479-.241-.763l.456-1.028a.534.534 0 01.296-.29.47.47 0 01.395.028l2.882 1.55 3.008-6.818a.537.537 0 01.296-.289c.13-.05.272-.04.395.027l.932.5c.255.14.361.482.237.766l-3.692 8.356a.537.537 0 01-.297.289.473.473 0 01-.394-.027h.003zm8.998 26.001l-4.276-2.304a.556.556 0 01-.262-.327.625.625 0 01.024-.436l.454-1.03a.537.537 0 01.296-.288c.13-.05.271-.04.395.026l2.88 1.551 3.009-6.813c.126-.283.436-.402.694-.266l.929.504a.552.552 0 01.263.327c.045.144.036.3-.025.437l-3.687 8.356c-.127.283-.436.4-.694.263zM66.015 232.5s2.004 2.566-.922 6.437c-2.926 3.871-5.343 7.143-4.377 9.563 0 0 4.417-7.192 8.01-7.291 3.592-.099 1.242-4.383-2.71-8.709z"/><path fill="#000" d="M65.956 232.5c.177.247.317.518.416.803 3.545 4.03 5.449 7.791 2.026 7.903-3.178.086-6.989 5.578-7.898 6.965.027.112.063.222.106.329 0 0 4.468-7.182 8.102-7.28 3.634-.1 1.246-4.4-2.752-8.72z" opacity=".1"/><path fill="#FFD037" d="M69.5 235.022c0 .807-.226 1.478-.504 1.478-.277 0-.496-.656-.496-1.478 0-.821.277-.428.555-.428.277 0 .445-.381.445.428z"/><path fill="#FFD037" d="M70.028 236.009c-.782.348-1.465.56-1.524.47-.059-.09.528-.441 1.302-.797.775-.356.473-.096.531 0 .059.095.476-.021-.31.327z"/><path fill="#3ACC6C" d="M54.983 232.5s-2 2.566.926 6.437c2.925 3.871 5.339 7.143 4.376 9.563 0 0-4.413-7.192-8.008-7.291-3.596-.099-1.246-4.383 2.706-8.709z"/><path fill="#000" d="M55.048 232.5a3.19 3.19 0 00-.412.803c-3.544 4.03-5.442 7.791-2.024 7.903 3.17.086 6.976 5.578 7.888 6.965a2.484 2.484 0 01-.109.329s-4.459-7.211-8.098-7.31c-3.64-.099-1.239-4.37 2.755-8.69z" opacity=".1"/><path fill="#FFD037" d="M51.5 235.022c0 .807.219 1.478.496 1.478.278 0 .504-.656.504-1.478 0-.821-.277-.428-.555-.428-.277 0-.445-.381-.445.428zm-1.528.987c.785.348 1.465.56 1.524.47.059-.09-.527-.441-1.302-.797-.775-.356-.476-.096-.534 0-.059.095-.47-.021.312.327z"/><ellipse cx="60.5" cy="264.5" fill="#6C63FF" opacity=".1" rx="21" ry="3"/><path fill="#65617D" d="M70.495 244.743l-.098.83-.134 1.171-.06.489-.134 1.171-.062.488-.134 1.172-1.56 13.319c-.142 1.188-2.007 2.117-4.262 2.117h-8.1c-2.251 0-4.113-.929-4.26-2.117l-1.561-13.32-.138-1.17-.055-.489-.141-1.171-.056-.489-.138-1.171-.098-.83c-.075-.683.93-1.243 2.206-1.243h16.583c1.278 0 2.284.57 2.202 1.243z"/><path fill="#9D9CB5" d="M70.5 245.5l-.14 1H49.637l-.136-1zm0 2l-.142 1H49.642l-.142-1zm0 1l-.138 1H50.638l-.138-1z"/></g></svg>