<svg xmlns="http://www.w3.org/2000/svg" width="360" height="280"><g fill="none" fill-rule="evenodd"><path fill="#F2F2F2" fill-rule="nonzero" d="M266.592 159.161l-71.351-89.01a23.971 23.971 0 01-11.54 5.817c-13.432 2.641-26.55-6.516-29.3-20.453-1.944-9.852 1.819-19.45 8.933-25.165L139.005 0 .401 118.255l127.587 159.161 138.604-118.255z"/><path stroke="#3F3D56" stroke-width="2" d="M30.869 278.218h328.73"/><circle cx="229.71" cy="20.846" r="5.612" stroke="#3F3D56" stroke-width="2"/><circle cx="301.871" cy="179.599" r="5.612" stroke="#3F3D56" stroke-width="2"/><circle cx="63.742" cy="34.477" r="5.612" stroke="#3F3D56" stroke-width="2"/><circle cx="178.396" cy="51.314" r="20.045" fill="#F2F2F2" fill-rule="nonzero"/><path fill="#3F3D56" fill-rule="nonzero" d="M58.636 40.89h88.903c8.836 0 16.492 6.129 18.436 14.756l44.92 199.41a15.297 15.297 0 01-2.74 12.613 15.27 15.27 0 01-11.408 6.018l-91.392 4.506c-10.124.5-19.046-6.594-20.85-16.576L59.023 120.632l-1.896.542-4.875-26.722 1.951-.489L47.09 54.61a11.652 11.652 0 012.551-9.575 11.634 11.634 0 018.995-4.143z"/><path fill="#FFF" fill-rule="nonzero" d="M135.95 44.9h10.387a13.07 13.07 0 0112.772 10.276l43.155 197.627a8.088 8.088 0 01-1.443 6.592 8.102 8.102 0 01-5.941 3.209l-91.176 5.97a10.488 10.488 0 01-11.01-8.6L55.869 55.706a9.175 9.175 0 011.994-7.515 9.191 9.191 0 017.049-3.292h9.853a4.336 4.336 0 014.187 3.206 3.828 3.828 0 003.697 2.83h46.777a6.54 6.54 0 006.524-6.036z"/><path fill="#067FB7" fill-rule="nonzero" stroke="#067FB7" d="M70.958 95.412h94.61v1h-94.61zm2.405 15.234h95.412v1H73.363zm7.204 54.121l98.794-2.093.01.465-98.794 2.093zm1.162 13.953l100.654-2.326.01.465-100.653 2.325z"/><path fill="#3ACC6C" fill-rule="nonzero" d="M120.668 216.08c0 12.178 9.872 22.05 22.05 22.05 12.176 0 22.048-9.872 22.048-22.05 0-.276-.004-.55-.016-.824-.449-12.008-10.43-21.445-22.445-21.22-12.015.224-21.637 10.028-21.637 22.044z" opacity=".1"/><path fill="#3ACC6C" fill-rule="nonzero" d="M123.073 224.755c0 .274.005.547.017.819 4.372 9.27 14.583 14.265 24.577 12.023 9.994-2.242 17.098-11.121 17.1-21.372 0-.275-.005-.547-.017-.819-4.372-9.27-14.583-14.265-24.577-12.023-9.994 2.242-17.098 11.121-17.1 21.372z" opacity=".1"/><circle cx="256.971" cy="86.592" r="13.63" fill="#2F2E41" fill-rule="nonzero"/><path fill="#9F616A" fill-rule="nonzero" d="M272.038 257.278l2.572 11.319h-6.247l-2.572-12.829zm-30.301.094v10.477l-6.414.748v-11.225zm32.071-117.492s-.728 15.941-1.457 17.053c-.73 1.112-7.29 17.054-7.29 17.054l-3.28-10.38s5.103-8.527 4.374-13.347c-.729-4.82-.27-10.75-.27-10.75l7.923.37z"/><circle cx="252.962" cy="91.403" r="10.423" fill="#9F616A" fill-rule="nonzero"/><path fill="#9F616A" fill-rule="nonzero" d="M260.874 92.205s-.374 15.068 2.245 17.328c2.62 2.26-14.968.377-14.968.377s3.742-10.548.749-12.808c-2.994-2.26 11.974-4.897 11.974-4.897z"/><path fill="#08A800" fill-rule="nonzero" d="M247.735 108.757s2.208-4.07 5.152-3.7c2.945.37 12.514 1.11 12.882 1.85.369.74 1.473 3.33 2.209 4.07.736.74 6.257 1.85 6.625 6.289.368 4.439-13.25 31.445-13.25 31.445s1.84 6.29 1.472 7.77c-.368 1.48 1.84 5.919 1.472 7.768-.368 1.85 5.521 12.949 2.577 27.377v23.307s9.937 40.324 6.993 43.284c-2.945 2.96-12.882 1.11-14.723 0-1.84-1.11-9.57-56.973-9.57-56.973l-3.68-18.867-.368 41.434s.736 34.776-1.84 35.886c-2.577 1.11-12.514 1.48-13.25-.74-.574-1.732-3.387-47.794-4.598-67.985a75.812 75.812 0 011.62-20.782c1.533-6.984 3.757-15.189 6.29-18.519 4.785-6.29 7.73-26.267 7.73-26.267l-6.257-11.468s3.68-3.7 5.889-3.7c2.208 0 6.625-1.48 6.625-1.48z"/><path fill="#067FB7" fill-rule="nonzero" d="M272.025 114.655l1.902 1.318s1.344 23.656.262 25.126c-1.082 1.469-8.603.752-9.17-.543-.567-1.294 7.006-25.901 7.006-25.901z"/><path fill="#9F616A" fill-rule="nonzero" d="M239.299 135.975c1.09 7.547 2.046 14.265-3.53 20.343a104.564 104.564 0 01-18.827 16.267c-.684 1.807-10.724 15.078-11.235 9.784-.51-5.294 2.958-9.443 7.888-13.92 4.93-4.476 11.826-14.189 15.717-19.518 3.891-5.33 2.289-8.653 2.154-13.104-.135-4.452 6.303.202 7.833.148z"/><path fill="#2F2E41" fill-rule="nonzero" d="M234.962 262.183s-.373 4.11-1.491 5.21c-1.119 1.101-4.101 2.57-3.729 6.605.373 4.037 2.797 4.22 2.797 4.22l-.187-.917 1.119.367.186.55h10.439s.186-3.853-.186-5.687c-.373-1.835-.373-10.642-1.492-10.275-1.118.367-4.1.734-4.846 2.202-.746 1.468-2.983.953-2.61-2.275zm37.604 0s.373 4.11 1.491 5.21c1.119 1.101 4.101 2.57 3.728 6.605-.372 4.037-2.796 4.22-2.796 4.22l.187-.917-1.119.367-.186.55h-10.44s-.186-3.853.187-5.687c.373-1.835.373-10.642 1.492-10.275 1.118.367 4.1.734 4.846 2.202.746 1.468 2.983.953 2.61-2.275z"/><path fill="#067FB7" fill-rule="nonzero" d="M239.76 113.051l-5.264 1.099s0 8.054-1.504 11.35c-1.504 3.294-4.136 10.983-3.008 11.349 1.128.366 11.656 5.492 12.408 2.563.752-2.93 2.632-26.36-2.632-26.36z"/><circle cx="272.205" cy="68.953" r="13.63" fill="#2F2E41" fill-rule="nonzero"/><path fill="#2F2E41" fill-rule="nonzero" d="M283.713 80.183a13.65 13.65 0 01-12.42 1.87 13.706 13.706 0 01-8.71-9.076 13.715 13.715 0 008.965 11.209 13.654 13.654 0 0014.021-2.956 13.75 13.75 0 003.706-13.88 13.736 13.736 0 01-5.562 12.833z"/><circle cx="260.579" cy="89.399" r="10.022" fill="#2F2E41" fill-rule="nonzero"/><ellipse cx="252.16" cy="85.39" fill="#2F2E41" fill-rule="nonzero" rx="8.82" ry="6.815"/><ellipse cx="249.755" cy="92.606" fill="#A0616A" fill-rule="nonzero" rx="1.604" ry="2.806"/></g></svg>