<svg xmlns="http://www.w3.org/2000/svg" width="50" height="50"><g fill="#1D7BE2" stroke="#1D7BE2" stroke-width=".5"><path d="M47.072 23.745L26.562 3.234A7.676 7.676 0 0021.17 1H5.357A4.362 4.362 0 001 5.357V21.17a7.58 7.58 0 002.234 5.393l20.51 20.51a6.313 6.313 0 004.49 1.86 6.31 6.31 0 004.49-1.86l14.348-14.349a6.3 6.3 0 001.86-4.489 6.3 6.3 0 00-1.86-4.49zm-1.54 7.438L31.183 45.532c-1.579 1.574-4.32 1.574-5.898 0l-20.51-20.51a5.412 5.412 0 01-1.596-3.853V5.357A2.18 2.18 0 015.357 3.18H21.17a5.48 5.48 0 013.851 1.596l20.51 20.51a4.142 4.142 0 011.222 2.95 4.143 4.143 0 01-1.221 2.948z"/><path d="M26.662 28.202a1.086 1.086 0 001.54 0 1.089 1.089 0 000-1.54l-1.54-1.541 1.54-1.541 2.31 2.311a1.089 1.089 0 101.541-1.54l-3.08-3.082a1.089 1.089 0 00-1.541 0l-6.162 6.163a1.089 1.089 0 000 1.54l3.081 3.081a1.086 1.086 0 001.54 0 1.089 1.089 0 000-1.54l-2.31-2.31 1.54-1.541 1.54 1.54zm8.472-.77a1.089 1.089 0 00-1.54 0l-6.162 6.162a1.089 1.089 0 000 1.54l3.08 3.082a1.086 1.086 0 001.541 0 1.089 1.089 0 000-1.54l-2.31-2.312 1.54-1.54 1.54 1.54a1.086 1.086 0 001.541 0 1.089 1.089 0 000-1.54l-1.54-1.541 1.54-1.54 2.31 2.31a1.089 1.089 0 101.541-1.54l-3.081-3.081zM15.877 15.878a1.089 1.089 0 000-1.54l-1.54-1.542 1.54-1.54 2.31 2.31a1.089 1.089 0 101.54-1.54l-3.08-3.081c-.409-.409-1.132-.409-1.54 0l-3.08 3.08h-.002v.002l-3.08 3.08a1.089 1.089 0 101.54 1.54l2.31-2.31 1.541 1.54a1.086 1.086 0 001.54 0zm6.343 6.343a3.24 3.24 0 002.131-.952 3.27 3.27 0 000-4.621l-1.54-1.54a1.089 1.089 0 00-1.54 0l-3.054 3.052a.425.425 0 00-.057.058l-3.054 3.051a1.089 1.089 0 101.54 1.54l2.311-2.31.773.77a1.094 1.094 0 010 1.54l-1.543 1.542a1.089 1.089 0 101.54 1.54l1.543-1.541c.59-.59.907-1.353.95-2.129zm-.18-4.803l.77.77a1.089 1.089 0 01-.77 1.86h-.002c-.289 0-.561-.113-.768-.32l-.77-.77 1.54-1.54z"/></g></svg>