<svg xmlns="http://www.w3.org/2000/svg" width="162" height="48"><defs><linearGradient id="a" x1="61.024%" x2="26.115%" y1="4.84%" y2="71.968%"><stop offset="0%" stop-color="#00A0FF"/><stop offset=".7%" stop-color="#00A1FF"/><stop offset="26%" stop-color="#00BEFF"/><stop offset="51.2%" stop-color="#00D2FF"/><stop offset="76%" stop-color="#00DFFF"/><stop offset="100%" stop-color="#00E3FF"/></linearGradient><linearGradient id="b" x1="107.724%" x2="-130.67%" y1="49.424%" y2="49.424%"><stop offset="0%" stop-color="#FFE000"/><stop offset="40.9%" stop-color="#FFBD00"/><stop offset="77.5%" stop-color="orange"/><stop offset="100%" stop-color="#FF9C00"/></linearGradient><linearGradient id="c" x1="86.389%" x2="-49.886%" y1="30.829%" y2="136.002%"><stop offset="0%" stop-color="#FF3A44"/><stop offset="100%" stop-color="#C31162"/></linearGradient><linearGradient id="d" x1="-18.581%" x2="42.275%" y1="-11.683%" y2="35.066%"><stop offset="0%" stop-color="#32A071"/><stop offset="6.9%" stop-color="#2DA771"/><stop offset="47.6%" stop-color="#15CF74"/><stop offset="80.1%" stop-color="#06E775"/><stop offset="100%" stop-color="#00F076"/></linearGradient></defs><g fill="none" fill-rule="evenodd"><path fill="#000" fill-rule="nonzero" d="M155.9 47.97H5.996C2.638 47.97 0 45.33 0 41.972V5.996C0 2.638 2.638 0 5.996 0H155.9c3.358 0 5.996 2.638 5.996 5.996v35.977c0 3.358-2.638 5.996-5.996 5.996z"/><path fill="#A6A6A6" fill-rule="nonzero" d="M155.9.96c2.758 0 5.037 2.278 5.037 5.036v35.977c0 2.758-2.279 5.037-5.037 5.037H5.996C3.238 47.01.96 44.73.96 41.973V5.996C.96 3.238 3.238.96 5.996.96H155.9m0-.959H5.996C2.638 0 0 2.758 0 5.996v35.977c0 3.358 2.638 5.996 5.996 5.996H155.9c3.358 0 5.996-2.638 5.996-5.996V5.996c0-3.238-2.638-5.996-5.996-5.996z"/><path fill="#FFF" fill-rule="nonzero" d="M81.668 26.143c-2.878 0-5.157 2.159-5.157 5.157a5.119 5.119 0 005.157 5.157c2.878 0 5.156-2.159 5.156-5.157 0-3.118-2.278-5.157-5.156-5.157zm0 8.155c-1.56 0-2.878-1.32-2.878-3.118 0-1.799 1.319-3.118 2.878-3.118 1.559 0 2.878 1.2 2.878 3.118 0 1.799-1.32 3.118-2.878 3.118zm-11.153-8.155c-2.878 0-5.157 2.159-5.157 5.157a5.119 5.119 0 005.157 5.157c2.878 0 5.157-2.159 5.157-5.157 0-3.118-2.279-5.157-5.157-5.157zm0 8.155c-1.56 0-2.878-1.32-2.878-3.118 0-1.799 1.319-3.118 2.878-3.118 1.559 0 2.878 1.2 2.878 3.118 0 1.799-1.32 3.118-2.878 3.118zm-13.312-6.596v2.159h5.157c-.12 1.2-.6 2.158-1.2 2.758-.719.72-1.918 1.56-3.957 1.56-3.238 0-5.636-2.52-5.636-5.757 0-3.238 2.518-5.757 5.636-5.757 1.68 0 2.998.72 3.958 1.56l1.559-1.56c-1.32-1.199-2.998-2.158-5.397-2.158-4.317 0-8.035 3.598-8.035 7.915s3.718 7.915 8.035 7.915c2.399 0 4.078-.72 5.517-2.279 1.439-1.439 1.919-3.478 1.919-5.037 0-.48 0-.959-.12-1.319h-7.436zm54.445 1.68c-.48-1.2-1.678-3.239-4.317-3.239-2.638 0-4.797 2.039-4.797 5.157 0 2.878 2.159 5.157 5.037 5.157 2.279 0 3.718-1.44 4.197-2.279l-1.679-1.2c-.6.84-1.319 1.44-2.518 1.44-1.2 0-1.919-.48-2.518-1.559l6.835-2.878-.24-.6zm-6.955 1.678c0-1.919 1.559-2.998 2.638-2.998.84 0 1.68.48 1.919 1.08l-4.557 1.918zm-5.636 4.917h2.278v-14.99h-2.278v14.99zm-3.598-8.754c-.6-.6-1.56-1.2-2.758-1.2-2.519 0-4.917 2.279-4.917 5.157s2.278 5.037 4.917 5.037c1.199 0 2.158-.6 2.638-1.2h.12v.72c0 1.919-1.08 2.998-2.758 2.998-1.32 0-2.279-.96-2.519-1.799l-1.919.84c.6 1.319 2.04 2.998 4.558 2.998 2.638 0 4.796-1.56 4.796-5.277v-9.114H95.46v.84zm-2.638 7.075c-1.56 0-2.879-1.32-2.879-3.118 0-1.799 1.32-3.118 2.879-3.118s2.758 1.32 2.758 3.118c0 1.799-1.2 3.118-2.758 3.118zm29.26-13.311h-5.396v14.99h2.279v-5.636h3.118c2.518 0 4.917-1.8 4.917-4.677 0-2.879-2.399-4.677-4.917-4.677zm.12 7.195h-3.237v-5.157h3.238c1.679 0 2.638 1.44 2.638 2.519-.12 1.319-1.08 2.638-2.638 2.638zm13.792-2.159c-1.679 0-3.358.72-3.958 2.279l2.04.84c.479-.84 1.198-1.08 2.038-1.08 1.199 0 2.278.72 2.398 1.919v.12c-.36-.24-1.319-.6-2.278-.6-2.159 0-4.317 1.2-4.317 3.358 0 2.039 1.798 3.358 3.717 3.358 1.56 0 2.279-.72 2.878-1.44h.12v1.2h2.159v-5.756c-.24-2.639-2.279-4.198-4.797-4.198zm-.24 8.275c-.72 0-1.799-.36-1.799-1.32 0-1.198 1.32-1.558 2.399-1.558.959 0 1.439.24 2.038.48-.24 1.439-1.439 2.398-2.638 2.398zm12.592-7.915l-2.518 6.476h-.12l-2.639-6.476h-2.398l3.957 9.114-2.278 5.037h2.278l6.116-14.15h-2.398zm-20.147 9.594h2.278v-14.99h-2.278v14.99z"/><g fill-rule="nonzero"><path fill="url(#a)" d="M.48.47C.12.83 0 1.43 0 2.15v26.503c0 .72.24 1.32.6 1.679l.12.12 14.87-14.87v-.24L.48.47z" transform="translate(11.992 8.524)"/><path fill="url(#b)" d="M20.387 20.617L15.47 15.7v-.36l4.917-4.916.12.12 5.876 3.357c1.679.96 1.679 2.519 0 3.478l-5.996 3.238z" transform="translate(11.992 8.524)"/><path fill="url(#c)" d="M20.507 20.497L15.47 15.46.48 30.45c.6.6 1.439.6 2.518.12l17.509-10.073" transform="translate(11.992 8.524)"/><path fill="url(#d)" d="M20.507 10.424L2.998.47C1.918-.13 1.08-.01.48.59l14.99 14.87 5.037-5.036z" transform="translate(11.992 8.524)"/><path fill="#000" d="M32.38 28.901l-17.39 9.834c-.959.6-1.798.48-2.398 0l-.12.12.12.12c.6.48 1.439.6 2.398 0l17.39-10.074z" opacity=".2"/><path fill="#000" d="M12.472 38.735c-.36-.36-.48-.96-.48-1.679v.12c0 .72.24 1.32.6 1.68v-.12h-.12zm25.903-13.191L32.38 28.9l.12.12 5.876-3.357c.84-.48 1.2-1.08 1.2-1.68 0 .6-.48 1.08-1.2 1.56z" opacity=".12"/><path fill="#FFF" d="M14.99 9.114l23.385 13.312c.72.48 1.2.959 1.2 1.559 0-.6-.36-1.2-1.2-1.68L14.99 8.996c-1.679-.96-2.998-.24-2.998 1.678v.12c0-1.799 1.32-2.638 2.998-1.679z" opacity=".25"/></g><g fill="#FFF"><path d="M52.52 15.526h-.939V9.184h-2.04v-.888h5.019v.888h-2.04v6.342"/><path d="M52.52 15.64v-.122h-.818l.001-6.439h-2.038v-.657h4.77v.657h-2.037v6.562h.121v-.123.123h.122V9.324h2.038V8.178h-5.257v1.146h2.038v6.439h1.181v-.122h-.122m7.417-6.457h-3.261v2.293h2.941v.868h-2.941v2.293h3.261v.888h-4.182v-7.23h4.182v.888"/><path d="M59.936 9.202v-.123h-3.38v2.573h2.94v.636h-2.94v2.573h3.26v.657h-3.942V8.422h3.943v.78h.12v-.123.123h.118V8.178h-4.42v7.585h4.42v-1.146h-3.261v-2.084h2.942v-1.125h-2.942V9.324h3.261v-.122h-.119m1.554 6.324v-7.23h.945l2.559 4.402h.04l2.56-4.402h.944v7.23h-.944v-4.292l.04-1.211h-.04l-2.302 3.969h-.556l-2.301-3.969h-.04l.04 1.21v4.293h-.946"/><path d="M61.492 15.64h.123V8.423h.75l2.558 4.47h.183l2.557-4.47h.75v7.096h-.699v-4.233l.044-1.354h-.237l-2.3 4.03h-.413l-2.3-4.03h-.239l.045 1.354v4.233h-.822v.123h.123-.123v.122h1.067v-4.481l-.04-1.234-.123.005v.123h.04v-.123l-.106.06 2.336 4.093h.697l2.335-4.093-.106-.06v.123h.04v-.123l-.122-.005-.04 1.231v4.484h1.188V8.178H67.52l-2.593 4.531.106.06v-.122h-.04v.122l.107-.06-2.593-4.531H61.37v7.585h.122v-.122m11.406.003c-.799 0-1.445-.26-1.943-.783-.496-.521-.744-1.204-.744-2.047V8.296h.932v4.558c0 .568.15 1.028.451 1.38.3.351.737.526 1.304.526.568 0 1.003-.175 1.304-.526.302-.352.45-.812.45-1.38V8.296h.935v4.518c0 .85-.242 1.534-.726 2.052-.483.52-1.138.778-1.963.778"/><path d="M72.898 15.76v-.122c-.772-.001-1.378-.252-1.853-.756-.473-.506-.712-1.163-.712-1.996V8.42h.69v4.506c0 .597.157 1.097.48 1.48.325.387.804.58 1.395.578.592.001 1.07-.19 1.395-.578.323-.383.48-.883.48-1.48V8.421h.692v4.465c-.002.84-.234 1.5-.694 2.002-.46.5-1.073.749-1.873.75v.243c.848.002 1.544-.274 2.051-.829.507-.551.759-1.28.758-2.166V8.178h-1.175v4.75c-.001.556-.144.99-.424 1.321-.274.326-.666.49-1.21.493-.544-.003-.935-.167-1.21-.493-.28-.332-.422-.765-.423-1.322v-4.75H70.09v4.709c0 .878.257 1.609.777 2.162.52.555 1.206.835 2.03.833v-.121m9.558-7.464v.04l-2.667 3.1 2.848 4.05v.04h-1.132l-2.338-3.373-1.103 1.284v2.089h-.923v-7.23h.923v3.726h.04l3.16-3.726h1.192"/><path d="M82.449 8.3h-.122v.04h.122l-.092-.079-2.786 3.22 2.94 4.158v.002h.122v-.123h-1.092l-2.44-3.5-1.258 1.455v2.045h-.697V8.422h.697v3.783h.22l3.225-3.783h1.16V8.3h-.121.122v-.122h-1.273l-3.262 3.825.093.08v-.122h-.042v.122h.123V8.178H76.9v7.585h1.187v-2.199l.993-1.148 2.333 3.347h1.342v-.202l-2.875-4.064 2.69-3.111v-.208h-.122V8.3m2.618 4.398h2.428l-1.193-3.26h-.042l-1.193 3.26zm-2.071 2.828l2.754-7.23h1.062l2.755 7.23h-1.04l-.704-1.96h-3.073l-.715 1.96h-1.04z"/><path d="M85.005 12.77v.122h2.605l-1.284-3.556h-.212l-1.283 3.556h.174v-.123l.115.042 1.194-3.31-.114-.042v.122h.041v-.122l-.115.041 1.135 3.147h-2.256v.122l.115.042-.115-.042zm-2.073 2.87l.114.043 2.728-7.26h.892l2.667 7.095h-.78l-.705-1.989h-3.245l-.715 1.99h-.956v.122l.114.042-.114-.042v.122h1.128l.714-1.99h2.903l.704 1.99h1.304l-2.85-7.585h-1.23l-2.85 7.585h.177v-.122zm7.589-.114v-7.23h1.14l3.54 5.624h.04l-.04-1.393v-4.23h.936v7.229h-.976l-3.704-5.897h-.04l.04 1.394v4.503h-.936"/><path d="M90.406 15.64h.124V8.423h.97l3.609 5.711h.237l-.044-1.539V8.422h.707v7.096h-.804L91.43 9.531h-.237l.045 1.539v4.448h-.83v.123h.123-.124v.122h1.078v-4.697l-.04-1.415-.124.002v.123h.04v-.123l-.105.065 3.813 6.045h1.188V8.178h-1.202v4.42l.041 1.415.124-.003v-.121h-.041v.12l.105-.063-3.646-5.768h-1.355v7.585h.124v-.122m10.975-1.003h1.303c.848 0 1.52-.239 2.018-.718.496-.477.743-1.147.743-2.009 0-.854-.247-1.523-.743-2.005-.498-.48-1.17-.722-2.018-.722h-1.303v5.454zm-.944.888v-7.23h2.247c1.13 0 2.032.335 2.711 1.005.677.67 1.015 1.539 1.015 2.61 0 1.07-.338 1.94-1.015 2.61-.679.67-1.581 1.005-2.71 1.005h-2.248z"/><path d="M101.384 14.739v.122h1.302c.87.002 1.579-.252 2.1-.763.525-.511.782-1.23.78-2.128.002-.89-.256-1.607-.779-2.122-.521-.514-1.23-.769-2.1-.769h-1.425v5.782h.122v-.122h.122V9.324h1.18c.825.001 1.459.236 1.929.699.468.462.706 1.102.707 1.947-.001.853-.239 1.494-.706 1.953-.471.46-1.105.692-1.93.694h-1.302v.122h.122-.122zm-.943.902h.122V8.422h2.123c1.104.002 1.968.33 2.621.984.652.657.978 1.502.98 2.564-.002 1.062-.328 1.908-.98 2.565-.653.654-1.517.982-2.62.983h-2.246v.123h.122-.122v.122h2.245c1.152.001 2.093-.35 2.795-1.056.7-.703 1.051-1.626 1.05-2.737.001-1.112-.35-2.033-1.05-2.735-.702-.707-1.643-1.058-2.795-1.057h-2.368v7.585h.123v-.122zm7.183-.115h.92v-7.23h-.92z"/><path d="M107.624 15.64h.119V8.423h.682v7.096h-.801v.123h.119-.12v.122h1.041V8.178h-1.16v7.585h.12v-.122"/></g></g></svg>