<svg xmlns="http://www.w3.org/2000/svg" width="36" height="36"><path fill="#1D7BE2" d="M19.2 0c.975 0 1.774.727 1.852 1.652l.006.148v6h14.245c.308 0 .563.218.611.503l.009.097v16.8a.606.606 0 01-.52.592l-.1.008h-1.238V27a.606.606 0 01-.52.592l-.1.008H21.058v6.6c0 .944-.75 1.719-1.706 1.794L19.2 36H1.858c-.975 0-1.774-.727-1.852-1.652L0 34.2V1.8C0 .856.75.081 1.706.006L1.858 0H19.2zm.62 31.2H1.238v3c0 .298.224.546.519.592l.1.008H19.2a.614.614 0 00.611-.503l.008-.097v-3zm-9.291.6c.684 0 1.239.537 1.239 1.2 0 .663-.555 1.2-1.239 1.2S9.29 33.663 9.29 33c0-.663.555-1.2 1.239-1.2zM6.481 4.2H1.24V30h18.58V4.2h-5.242l-1.055 1.533a.622.622 0 01-.413.259L13.006 6H8.052a.63.63 0 01-.454-.189l-.064-.078L6.481 4.2zM3.097 27.6v.6h.62v1.2h-1.24a.614.614 0 01-.61-.503l-.009-.097v-1.2h1.239zm16.103 0v1.2a.606.606 0 01-.519.592l-.1.008h-1.24v-1.2h.62v-.6H19.2zm13.626-1.8H21.058v.6h11.768v-.6zM34.684 9H21.058v.6h8.671a.61.61 0 01.62.6 2.86 2.86 0 00.452 1.56 3.09 3.09 0 002.644 1.44c.308 0 .563.218.611.503l.009.097v6a.61.61 0 01-.62.6c-1.71.002-3.094 1.344-3.097 3a.606.606 0 01-.519.592l-.1.008h-8.67v.6h13.625V9zm-24.155.6c4.103.004 7.428 3.225 7.432 7.2 0 3.976-3.327 7.2-7.432 7.2s-7.432-3.224-7.432-7.2 3.327-7.2 7.432-7.2zm0 1.2c-3.42 0-6.194 2.686-6.194 6s2.773 6 6.194 6c3.42-.004 6.19-2.688 6.194-6 0-3.314-2.773-6-6.194-6zm18.625 0h-8.096v12h8.096c.267-1.774 1.662-3.18 3.462-3.523l.21-.035v-4.884c-1.9-.27-3.393-1.717-3.672-3.558zm-4.38 2.4v.6c.975 0 1.775.727 1.852 1.652l.006.148h-1.238a.606.606 0 00-.52-.592l-.1-.008v1.2c1.026 0 1.858.806 1.858 1.8 0 .944-.75 1.719-1.705 1.794l-.153.006v.6h-1.239v-.6c-.974 0-1.774-.727-1.851-1.652L21.677 18h1.24c0 .298.224.546.518.592l.1.008v-1.2c-1.026 0-1.858-.806-1.858-1.8 0-.944.751-1.719 1.706-1.794l.152-.006v-.6h1.24zm-10.992.201l.926.798-4.955 5.4a.63.63 0 01-.463.201h-.016a.627.627 0 01-.467-.225l-2.478-3 .967-.75 2.02 2.445 4.466-4.869zM24.774 17.4v1.2a.61.61 0 00.62-.6.61.61 0 00-.62-.6zM23.535 15a.61.61 0 00-.619.6c0 .298.225.546.519.592l.1.008V15zM3.716 6.6v1.2h-.62v.6H1.859V7.2c0-.298.225-.546.519-.592l.1-.008h1.24zm14.865 0c.307 0 .563.218.61.503l.009.097v1.2h-1.239v-.6h-.62V6.6h1.24zm.619-5.4H1.858a.614.614 0 00-.611.503l-.008.097V3h5.574a.63.63 0 01.453.189l.064.078L8.383 4.8h4.292l1.055-1.533a.622.622 0 01.413-.259L14.245 3h5.574V1.8a.61.61 0 00-.619-.6zm-6.813 1.2v1.2H8.671V2.4h3.716z"/></svg>