<svg xmlns="http://www.w3.org/2000/svg" width="36" height="36"><path fill="#1D7BE2" d="M10.373 27.636V36H0v-8.364h10.373zm11.593-4.806V36H11.593V22.83h10.373zm11.593-4.807V36H23.186V18.023H33.56zM20.813 31.24h-8.068v1.155h1.153v1.202h-1.152v1.201h8.068v-1.201H15.05v-1.202h5.762V31.24zM9.22 33.597H1.153v1.201H9.22v-1.201zm23.187 0h-8.068v1.201h8.068v-1.201zM9.22 31.24H1.152v1.155H9.22V31.24zm23.186 0h-8.068l.001 1.155h8.068l-.001-1.155zm0-2.402H24.34l-.001 1.154h8.068v-1.154zm-11.592 0h-8.068l-.001 1.154h8.068v-1.154zm-11.594 0H1.153l-.001 1.154H9.22v-1.154zm11.594-2.404h-8.068v1.202h8.068v-1.202zm11.593 0h-8.068v1.202h8.068v-1.202zm0-4.806h-8.068l-.001 1.201h5.764v1.202h-5.763v1.202h8.068V24.03h-1.153v-1.2l1.152-.001v-1.2zm-11.593 2.403h-8.068v1.202h8.068V24.03zM36 0v8.645c0 .953-.786 1.73-1.753 1.73A1.747 1.747 0 0132.5 8.787l-.005-.142V6.578L22.08 16.853l-5.301-2.906-14.3 11.286-.73-.9L16.66 12.564l5.215 2.858L33.663 3.796v4.85a.58.58 0 00.584.575c.29 0 .532-.21.577-.483l.008-.093V1.153h-7.596a.58.58 0 00-.584.576.58.58 0 00.49.569l.094.007h5.5L21.478 13.411l-4.72-2.91-3.657 2.834a7.662 7.662 0 01-1.614 1.251L.722 22.926 0 22.02l8.299-6.429a7.81 7.81 0 01-.672.03C3.422 15.62 0 12.25 0 8.11 0 3.97 3.422.6 7.627.6c4.206 0 7.627 3.369 7.627 7.51 0 .839-.14 1.646-.4 2.4l1.828-1.416 4.628 2.853 8.606-8.49h-2.68c-.966 0-1.752-.776-1.752-1.729 0-.906.71-1.651 1.609-1.723L27.236 0H36zm-3.593 19.225h-8.068v1.202h8.068v-1.202zM7.627 1.756c-3.558 0-6.454 2.851-6.454 6.355 0 3.503 2.896 6.354 6.454 6.354s6.454-2.85 6.454-6.354-2.896-6.355-6.454-6.355zm.305 1.248v1.272c.997.235 1.748 1.033 1.824 1.998l.007.163h-1.22c0-.615-.548-1.116-1.221-1.116s-1.22.5-1.22 1.116c0 .615.547 1.116 1.22 1.116 1.346 0 2.44 1 2.44 2.231 0 1.038-.778 1.913-1.83 2.161v1.272h-1.22v-1.272c-1-.236-1.753-1.038-1.825-2.008l-.006-.153h1.22c0 .615.548 1.116 1.221 1.116s1.22-.5 1.22-1.116c0-.615-.547-1.116-1.22-1.116-1.346 0-2.44-1-2.44-2.231 0-1.038.778-1.912 1.83-2.16V3.003h1.22zM3.661 7.209v1.202h-1.22V7.209h1.22zm9.153 0v1.202h-1.22V7.209h1.22z"/></svg>