<svg xmlns="http://www.w3.org/2000/svg" width="185" height="120"><defs><linearGradient id="a" x1="49.988%" x2="49.988%" y1="99.994%" y2="-.007%"><stop offset="0%" stop-color="gray" stop-opacity=".25"/><stop offset="54%" stop-color="gray" stop-opacity=".12"/><stop offset="100%" stop-color="gray" stop-opacity=".1"/></linearGradient></defs><g fill="none" transform="translate(-14 -21)"><path fill="#85848B" d="M14.357 139.397h183.817v1.069H14.357z"/><path fill="#504F60" d="M160.769 115.556c0 .92-5.963 3.604-13.047 3.604-7.083 0-12.602-2.684-12.602-3.604 0-.921 5.741-.625 12.831-.625s12.818-.298 12.818.625z"/><path fill="#000" d="M160.769 114.885c0 1.092-5.963 4.275-13.047 4.275-7.083 0-12.602-3.183-12.602-4.275" opacity=".2"/><path fill="#6C63FF" d="M88.59 96.57c1.147.166 2.337.271 3.435-.13.173-.061.363-.196.346-.391a.503.503 0 00-.078-.195 12.66 12.66 0 01-1.038-2.23.196.196 0 00-.064-.102.145.145 0 00-.11 0c-.507.15-.945.52-1.448.677-.257.08-.525.102-.789.067-.228-.03-.54-.242-.747-.215.118.853.405 1.649.493 2.519zm22.105-1.99c.735-.565 1.496-1.159 1.93-2.032a.382.382 0 00.052-.175.387.387 0 00-.062-.17 6.765 6.765 0 00-1.569-1.898 4.843 4.843 0 00-.874.905c-.185.219-.696.566-.7.9 0 .188.194.406.285.565.123.203.239.41.35.622.063.103.647 1.242.588 1.283z"/><path fill="#514E7F" d="M93.43 98.19a.706.706 0 01-.138.478.69.69 0 01-.291.164c-1.607.547-3.467-.135-5.07.404-.33.11-.642.27-.973.375a5.545 5.545 0 01-1.214.204c-.567.051-1.137.084-1.706.099a4.312 4.312 0 01-1.286-.107 1.533 1.533 0 01-.986-.743.68.68 0 01-.049-.528.565.565 0 01.106-.165c.108-.115.236-.214.378-.291l.59-.362c.278-.186.58-.338.897-.451.234-.073.482-.104.72-.165.83-.23 1.464-.856 2.054-1.457l.804-.815a.804.804 0 01.28-.212.812.812 0 01.346-.031 4.803 4.803 0 012.193.698c.168.12.35.22.541.303.472.174 1.077.042 1.512-.178.206-.106.16-.165.248-.353.086-.187.298-.307.482-.136a.48.48 0 01.114.207c.173.543.107 1.128.107 1.698a.712.712 0 00.035.263c.044.086.097.167.158.244.012.02.023.04.033.062.106.252.146.525.116.795z"/><path fill="#464353" d="M93.429 98.799a1.07 1.07 0 01-.139.604.67.67 0 01-.29.208c-1.608.692-3.467-.17-5.07.51-.33.14-.642.342-.973.476a4.524 4.524 0 01-1.213.258c-.567.065-1.138.106-1.706.125a3.439 3.439 0 01-1.286-.135c-.425-.131-.784-.473-.986-.94a1.069 1.069 0 01-.049-.669.76.76 0 01.106-.208c.093.235.161.548.22.66.161.338.435.575.752.652.235.018.47-.018.693-.106 1.456-.433 3.004-.44 4.403-1.096.48-.227.938-.529 1.442-.666.505-.138 1.04-.1 1.56-.152.822-.08 1.617-.377 2.427-.534.104.322.142.67.109 1.013z"/><path fill="#514E7F" d="M114.8 94.079c-.08.594-.488 1.106-.936 1.54-.448.435-.955.825-1.311 1.325-.44.62-.637 1.388-1.208 1.912a3.32 3.32 0 01-.731.482 5.314 5.314 0 01-.942.4c-.853.252-1.77.194-2.662.133a2.57 2.57 0 01-.845-.15 2.592 2.592 0 01-.35-.2 1.62 1.62 0 01-.55-.506.473.473 0 01-.053-.368.862.862 0 01.255-.358 5.9 5.9 0 01.643-.536 3.78 3.78 0 00.838-.676c.149-.206.258-.435.324-.675.13-.422.209-.855.236-1.293-.001-.29.031-.58.097-.865.135-.446.494-.844.453-1.305a.303.303 0 01.019-.198.303.303 0 01.168-.096 3.19 3.19 0 01.874-.188c.305-.02.603.089.812.294.125.139.207.338.39.392.09.023.186.026.278.01.45-.042.926-.094 1.28-.363.332-.275.524-.665.53-1.076 0-.154-.074-.314.184-.338.194-.024.347.169.446.287.357.441.723.902.856 1.44a.493.493 0 01.163-.03.728.728 0 01.583.276c.146.218.203.477.16.73z"/><path fill="#464353" d="M114.8 93.564c-.081.647-.492 1.204-.943 1.676-.452.473-.962.897-1.321 1.441-.442.675-.641 1.511-1.216 2.081-.22.207-.469.384-.737.524-.3.177-.619.323-.949.436-.858.273-1.783.211-2.68.145a2.416 2.416 0 01-.851-.164 2.565 2.565 0 01-.354-.217 1.687 1.687 0 01-.553-.551 1.35 1.35 0 01.553-.132c.398.022.689.397 1.07.512.544.164 1.085-.218 1.636-.349.36-.084.737-.062 1.093-.184.296-.114.57-.28.808-.489.327-.233.619-.513.864-.83.205-.318.374-.656.507-1.01.29-.677.633-1.33 1.024-1.955.058-.1.128-.19.208-.272.087-.08.185-.134.282-.204.369-.278.522-.736.65-1.184a2.07 2.07 0 01.146-.395.714.714 0 01.588.3c.158.242.22.535.175.821z"/><path fill="#A1616A" d="M78.063 40.293a3.78 3.78 0 011.003 1.272c.235.498 1.585 4.362 1.506 4.924.44-.482 2.175-.56 2.62-1.042.186-.202 1.188-1.209 1.338-1.443.15-.234 1.268-.727 1.39-.974.457-.889-3.238-4.257-2.765-5.135a.243.243 0 00.038-.138.229.229 0 00-.061-.107c-.303-.336-.705-.545-1.07-.794-.364-.25-.715-.596-.814-1.054a3.513 3.513 0 00-.945.694 74.529 74.529 0 00-2 1.932c-.256.258-.75.601-.87.97-.14.397.385.678.63.895z"/><path fill="#514E7F" d="M83.424 39.008c-.602.391-1.165.836-1.681 1.33-.487.465-.949 1.005-1.066 1.656-.05.256-.043.515-.084.775-.177 1.125-1.183 1.95-1.627 3.003a5.073 5.073 0 00-.283 1.006 11.45 11.45 0 00-.204 1.972c-.01.641.64 1.083.878 1.68.238.599.302 1.214.422 1.827.228 1.158.646 2.275 1.067 3.385.876 2.34 3.715 8.81 4.591 11.152 2.685-.651 9.832-2.148 12.21-3.52.792-.458-5.5-5.614-4.653-5.97a.316.316 0 00.23-.158.297.297 0 00.008-.273c-.847-3.585-3.498-6.53-4.701-10.02-.418-1.211-1.168-2.246-1.736-3.397-.516-1.043-.791-2.196-1.408-3.187a2.024 2.024 0 00-.45-.541 2.67 2.67 0 00-.495-.29c-.352-.166-.679-.264-1.018-.43z"/><circle cx="77.41" cy="35.802" r="4.275" fill="#A1616A"/><path fill="#464353" d="M81.685 37.228a1.497 1.497 0 011.605-.218c.288.142.541.428.476.728l2.118.03c.337-.008.674.021 1.003.088.332.068.629.243.838.496.025.032.054.071.098.076.035.001.07-.01.097-.03a1.933 1.933 0 011.054-.17c1.145.07 2.203.61 3.1 1.285a.958.958 0 01.361.424c.074.227-.014.511.18.673 0 1.876.683 3.628 1.138 5.455.081.326.411.614.64.87a3.5 3.5 0 01.685.965c.386.947-.146 2.062.23 3.013.158.403.465.733.721 1.083.338.403.552.887.618 1.398.016.228-.015.458 0 .682.024.307.084.61.18.905.154.55.315 1.1.484 1.648.274.887.632 1.843 1.473 2.315-2.03.326-4.172.644-6.107-.022a3.244 3.244 0 01-.762-.36c-.699-.47-1.036-1.275-1.338-2.035-.335-.852-.677-1.72-.745-2.627a2.86 2.86 0 00-.128-.852c-.197-.495-.722-.793-1.199-1.067a5.724 5.724 0 01-1.444-1.06 2.048 2.048 0 01-.585-1.593c.036-.281.153-.552.164-.835.011-.283-.123-.607-.41-.682-1.478-.423-2.184-2.076-2.513-3.501a10.63 10.63 0 01-.19-2.234l-.019-1.454a1.875 1.875 0 01-.664-1.379c.02-.152.016-.305-.01-.457a1.257 1.257 0 00-.339-.485 4.35 4.35 0 01-.81-1.073zm-3.98 5.149c-.049.462.059.937-.047 1.391-.041.175-.113.35-.165.513a2.96 2.96 0 00.195 1.95 10.9 10.9 0 001.018 1.727c.133.185.242.386.326.597.067.222.11.45.125.682.103.928.27 1.848.497 2.754.2.785 2.475 7.497 3.005 8.119a.675.675 0 00.407.271.75.75 0 00.347-.07l1.074-.403a.706.706 0 00.248-.133.62.62 0 00.154-.414c.077-.855-2.203-7.613-2.493-8.421-.877-2.44-2.043-4.79-2.613-7.316-.16-.7-.243-1.78-.768-2.339-.216-.231-.143-.133-.402-.012-.131.056-.258.12-.38.194-.307.21-.501.544-.528.91z"/><path fill="#067FB7" d="M80.87 46.25c.288 1.505.586 3.008.881 4.513l4.205-1.088c.034-.435-.2-.838-.358-1.238-.383-.95-.392-2.009-.702-2.985-.235-.743-.643-1.426-.863-2.175-.127-.435-.192-.885-.317-1.325a9.555 9.555 0 00-.494-1.265 7.89 7.89 0 00-.917-1.68c-.538.199-1.11.429-1.417.908-.157.27-.247.574-.261.885-.074.932.268 1.87.155 2.797a8.13 8.13 0 00.088 2.653z"/><path fill="#464353" d="M85.046 65.952c.232.865-.104 1.774-.378 2.63a20.101 20.101 0 00-.84 3.96 3.38 3.38 0 01-.207 1c-.13.29-.351.533-.503.808-.414.723-.404 1.605-.314 2.431.06.545.15 1.088.26 1.624.135.655.302 1.34.107 1.98.327-.071.548.345.527.672-.02.327-.128.692.032.974.404.145.407.691.395 1.115a9.24 9.24 0 00.281 2.178c.612 2.894 1.26 5.779 1.947 8.656 1.484.453 3.218.925 4.634.297.264-.116.527-.3.587-.58a.998.998 0 00-.056-.447l-.671-2.403c-.164-.581-.327-1.181-.24-1.778.064-.444.26-.923.04-1.315-.076-.135-.195-.24-.283-.369-.352-.506-.167-1.184-.14-1.798a1.403 1.403 0 00-.027-.411 2.037 2.037 0 00-.2-.452 6.812 6.812 0 01-.774-3.433.837.837 0 00-.061-.448 1.445 1.445 0 01-.114-.184.494.494 0 01.037-.33 3.053 3.053 0 01-.541-.518.738.738 0 00.13-1.165.393.393 0 00.303-.279.385.385 0 00-.115-.391c-.087-.059-.2-.085-.262-.173-.095-.128-.018-.306.06-.443l.409-.727c.306-.542.374-1.21.703-1.73.47-.755.778-1.597 1.082-2.43l1.182-3.211.796.68a2.5 2.5 0 01.654.732c.113.282.184.577.212.879.292 1.743 1.406 3.254 1.819 4.97.09.383.152.784.376 1.11.08.101.151.207.214.319.058.17.088.348.09.527.074.71.459 1.354 1.054 1.764.391.264.878.446 1.09.864a1.6 1.6 0 00.176.369c.19.224.6.25.68.532.046.157-.039.346.051.484a.466.466 0 00.195.144l1.144.562c1.279.629 1.932 2.075 2.876 3.127.326.343.614.719.86 1.12.408.718.596 1.62 1.285 2.076.185.094.354.217.499.365.216.28.137.672.156 1.025.02.353.294.773.634.666a2.43 2.43 0 000 1.305 6.734 6.734 0 004.052-1.615c.334-.287.655-.654.659-1.09a.386.386 0 00-.05-.215.626.626 0 00-.258-.192c-1.07-.57-1.391-1.894-1.932-2.967-.473-.948-1.172-1.764-1.757-2.644-1.272-1.893-2.14-4.184-4.064-5.434-.423-.275-.915-.519-1.128-.974-.117-.254-.132-.544-.225-.807s-.316-.519-.6-.519c.158-.38.126-.844.137-1.255a1.57 1.57 0 00-.064-.541 2.619 2.619 0 00-.283-.536 5.079 5.079 0 01-.723-2.767c.014-.5.103-1.015-.05-1.492-.077-.24-.212-.46-.305-.692a4.26 4.26 0 01-.22-1.3l-.105-1.661a8.053 8.053 0 00-.218-1.643c-.352-1.29-.703-6.693-1.906-7.302-1.204-.608-3.272 3.55-4.626 3.631a6.11 6.11 0 00-1.757.334c-.901.332-1.657.951-2.393 1.556l-2.491 2.06c-.527.426-.963.835-1.544 1.135zM73.151 30.567c.563-.746 1.53-1.142 2.482-1.175.952-.033 1.89.257 2.743.669.252.14.521.246.8.319.452.09.953-.03 1.36.175.542.279.646.988.6 1.577-.047.588-.161 1.241.162 1.751.114.146.219.298.312.457.139.303.057.654-.025.974-.211-.175-.33-.44-.518-.643s-.514-.34-.747-.187c-.232.152-.229.43-.241.678-.013.249-.078.546-.32.627a.525.525 0 01-.54-.205c-.414-.49-.248-1.273-.657-1.767-.233-.28-.62-.417-.835-.712-.17-.23-.213-.525-.36-.774-.149-.249-.493-.43-.722-.26a.95.95 0 00-.193.251 1.128 1.128 0 01-1.317.386 2.236 2.236 0 00-.57-.24.71.71 0 00-.65.35 1.33 1.33 0 00-.181.732c0 .35.065.724-.14 1.004a1.057 1.057 0 01-.29.266c-.3.188-.72.314-.999.1a.716.716 0 01-.223-.68c.054-.243.125-.483.213-.718.158-.543-.05-1.154.124-1.666.181-.46.428-.894.732-1.289z"/><path fill="#067FB7" d="M76.354 43.419a.701.701 0 00.036.387.592.592 0 00.195.202 3.792 3.792 0 001.837.646.526.526 0 01.254.071c.155.11.165.358.107.554a1.545 1.545 0 00-.117.59c.048.374.457.536.802.592.483.066 1.012.032 1.395-.295.26-.256.457-.577.576-.935.946-2.358 1.278-4.964 2.236-7.314.073-.154.121-.319.144-.49a.501.501 0 00-.179-.45c-.178-.12-.455-.052-.575-.24-.06-.094-.053-.223-.106-.323-.11-.213-.4-.179-.598-.302-.155-.09-.263-.274-.436-.31a.53.53 0 00-.45.211c-.563.569-.858 1.375-1.171 2.136a25.781 25.781 0 01-1.676 3.368c.074-.125-.356-1.073-.524-1.114-.296-.064-.673.497-.833.706-.502.66-.82 1.46-.917 2.31z"/><path fill="#000" d="M82.753 35.802a.924.924 0 00-.71.35c-.206.262-.246.609-.298.943a8.105 8.105 0 01-1.129 2.981" opacity=".1"/><path fill="#000" d="M82.753 36.87a1.144 1.144 0 00-.949.512c-.13.276-.21.57-.239.868a4.565 4.565 0 01-.949 1.826" opacity=".1"/><path fill="#D6D6DB" d="M124.433 70.38v-2.082c0-3.192-2.677-5.779-5.978-5.779H33.41c-3.3 0-5.978 2.587-5.978 5.78v3.838l97-1.757z"/><path fill="#8DD070" d="M57.11 59.864s-.244 15.174 2.442 20.166c2.685 4.993 3.836 26.712 3.836 26.712s28.154 2.918 47.773-3.494c19.618-6.41 61.363-9.033 61.363-9.033L165.49 46.72s-34.754-2.233-54.525 7.213c-19.77 9.445-53.855 5.932-53.855 5.932z"/><path fill="#000" d="M57.11 59.864s-.244 15.174 2.442 20.166c2.685 4.993 3.836 26.712 3.836 26.712s28.154 2.918 47.773-3.494c19.618-6.41 61.363-9.033 61.363-9.033L165.49 46.72s-34.754-2.233-54.525 7.213c-19.77 9.445-53.855 5.932-53.855 5.932z" opacity=".1"/><path fill="#8DD070" d="M62.622 66.155s-.885 12.382 1.337 16.338c2.222 3.956 2.326 21.616 2.326 21.616s25.482 1.164 43.609-4.913c18.127-6.077 56.218-10.02 56.218-10.02l-4.328-38.411s-31.518-.32-49.913 8.235c-18.395 8.555-49.249 7.155-49.249 7.155z"/><ellipse cx="110.061" cy="77.869" fill="#000" opacity=".1" rx="6.601" ry="14.086" transform="rotate(-7.1 110.061 77.87)"/><path fill="#000" d="M145.869 24.046s-33.875 8.578-49.85 23.676c-15.972 15.099-49.6 22.248-49.6 22.248s4.43 14.545 8.527 18.48c4.098 3.936 11.87 24.298 11.87 24.298s27.779-5.892 44.54-18.055c16.762-12.163 55.826-27.524 55.826-27.524L145.87 24.046z" opacity=".2"/><path fill="#8DD070" d="M46.418 67.832s4.428 14.547 8.522 18.482c4.094 3.936 11.87 24.297 11.87 24.297s27.783-5.891 44.546-18.054c16.764-12.163 55.825-27.52 55.825-27.52l-21.313-43.129s-33.873 8.578-49.847 23.677C80.046 60.684 46.418 67.832 46.418 67.832z"/><path fill="#000" d="M46.418 67.832s4.428 14.547 8.522 18.482c4.094 3.936 11.87 24.297 11.87 24.297s27.783-5.891 44.546-18.054c16.764-12.163 55.825-27.52 55.825-27.52l-21.313-43.129s-33.873 8.578-49.847 23.677C80.046 60.684 46.418 67.832 46.418 67.832z" opacity=".1"/><path fill="#8DD070" d="M53.899 71.096s3.018 12.131 6.37 15.244c3.353 3.112 8.957 19.996 8.957 19.996s24.645-6.639 40.023-17.976C124.627 77.023 159.7 61.675 159.7 61.675l-16.105-35.492s-30.133 9.28-44.995 23.072C83.738 63.047 53.9 71.096 53.9 71.096z"/><ellipse cx="102.62" cy="68.069" fill="#000" opacity=".1" rx="6.596" ry="14.098" transform="rotate(-24.97 102.62 68.07)"/><path fill="#000" d="M127.639 72.874v60.308c0 1.384-.552 2.71-1.533 3.688a5.244 5.244 0 01-3.702 1.527H32.412c-2.89-.001-5.231-2.335-5.231-5.215V66.794c2.579.954 2.579.954 5.231.874h89.992c2.887 0 5.23 2.329 5.235 5.206z" opacity=".1"/><path fill="#EBE9E9" d="M127.639 73.944v60.307c0 2.88-2.344 5.215-5.235 5.215H32.412c-2.89-.001-5.231-2.336-5.231-5.215V67.863c2.579.952 2.579.952 5.231.874h89.992c2.888 0 5.23 2.33 5.235 5.207z"/><path fill="#000" d="M126.57 95.649v19.236h-18.417c-5.195-.07-9.369-4.356-9.369-9.618 0-5.262 4.174-9.547 9.369-9.618h18.417z" opacity=".1"/><path fill="#D6D6DB" d="M126.57 95.649v19.236h-18.417c-5.195-.07-9.369-4.355-9.369-9.616 0-5.261 4.174-9.546 9.369-9.617l18.417-.003z"/><circle cx="108.937" cy="105.802" r="3.74" fill="#000" opacity=".1"/><circle cx="108.937" cy="104.733" r="3.74" fill="#067FB7"/><path fill="#FBBEBE" d="M159.138 95.117c.149 1.595-1.072 3.143-.716 4.705.077.335.222.65.275.988.147.928-.412 1.806-.946 2.582l-4.586 6.658a4.143 4.143 0 01-.655.8c-.875.772-2.191.692-3.343.923a5.744 5.744 0 00-2.241.98.141.141 0 00-.021.194 1.934 1.934 0 001.666.774c.121.158 0 .388-.175.5-.246.174-.584.216-.633.628a.675.675 0 00.084.415c.185.28.472.479.801.553 1.588.48 3.304-.364 4.492-1.512 1.189-1.148 2.042-2.598 3.207-3.767.646-.646 1.38-1.2 2.045-1.827 1.327-1.25 2.358-2.771 3.354-4.294.3-.459.6-.93.727-1.462.126-.531.066-1.068.208-1.583.186-.675.684-1.212 1.1-1.778.813-1.109 1.356-2.465 1.25-3.83-.108-1.364-.964-2.714-2.266-3.178a2.033 2.033 0 00-1.27-.076c-.533.163-.927.6-1.291 1.017l-.875.996a2.314 2.314 0 00-.508.762.792.792 0 00.175.847"/><path fill="#000" d="M159.138 95.117c.149 1.595-1.072 3.143-.716 4.705.077.335.222.65.275.988.147.928-.412 1.806-.946 2.582l-4.586 6.658a4.143 4.143 0 01-.655.8c-.875.772-2.191.692-3.343.923a5.744 5.744 0 00-2.241.98.141.141 0 00-.021.194 1.934 1.934 0 001.666.774c.121.158 0 .388-.175.5-.246.174-.584.216-.633.628a.675.675 0 00.084.415c.185.28.472.479.801.553 1.588.48 3.304-.364 4.492-1.512 1.189-1.148 2.042-2.598 3.207-3.767.646-.646 1.38-1.2 2.045-1.827 1.327-1.25 2.358-2.771 3.354-4.294.3-.459.6-.93.727-1.462.126-.531.066-1.068.208-1.583.186-.675.684-1.212 1.1-1.778.813-1.109 1.356-2.465 1.25-3.83-.108-1.364-.964-2.714-2.266-3.178a2.033 2.033 0 00-1.27-.076c-.533.163-.927.6-1.291 1.017l-.875.996a2.314 2.314 0 00-.508.762.792.792 0 00.175.847" opacity=".05"/><path fill="#3F3D56" d="M162.6 135.972c-.993.607-2.23.643-3.383.503-.186-.023-.406-.037-.52.107-.174.209.03.521.242.683a5 5 0 002.323.957c.753.107 1.512.158 2.272.151 2.082.037 4.163.072 6.212-.227a.878.878 0 00.347-.101.636.636 0 00.257-.39c.14-.536-.13-1.11-.54-1.481-.41-.372-.935-.578-1.448-.778l-1.804-.704c-.424-.165-1.102-.603-1.561-.568-.864.063-1.681 1.428-2.398 1.848z"/><path fill="#000" d="M162.6 135.972c-.993.607-2.23.643-3.383.503-.186-.023-.406-.037-.52.107-.174.209.03.521.242.683a5 5 0 002.323.957c.753.107 1.512.158 2.272.151 2.082.037 4.163.072 6.212-.227a.878.878 0 00.347-.101.636.636 0 00.257-.39c.14-.536-.13-1.11-.54-1.481-.41-.372-.935-.578-1.448-.778l-1.804-.704c-.424-.165-1.102-.603-1.561-.568-.864.063-1.681 1.428-2.398 1.848z" opacity=".05"/><path fill="#464353" d="M164.261 112.247c-.743.994-1.51 2.142-1.327 3.372.1.663.468 1.248.739 1.86.367.833.559 1.727.747 2.617.278 1.302.558 2.607.728 3.929.193 1.492-.717 5.812-.801 7.316-.02.362-.064.754-.314 1.015-.098.103-.228.186-.273.32a.552.552 0 00.06.38c.419.95 1.274 1.657 2.23 2.061.955.404 3.258 1.101 4.299 1.137a.852.852 0 00.405-.053.79.79 0 00.312-.36c.746-1.437.029-6.542.04-8.163.01-1.351.327-2.694.268-4.044-.048-1.083-.343-2.143-.44-3.224-.172-1.77.15-3.55.475-5.3.247-1.343.495-2.685.813-4.01.193-.81.418-1.627.857-2.33.343-.557.825-1.023 1.224-1.552a7.044 7.044 0 001.372-5.133c-.024-.173-2.572.65-2.797.749a8.68 8.68 0 00-2.493 1.614c-.59.566-1.055 1.322-1.571 1.955-.73.896-1.452 1.799-2.164 2.708a152.17 152.17 0 00-2.389 3.136z"/><path fill="#000" d="M164.261 112.336c-.743 1.004-1.51 2.165-1.327 3.405.1.671.468 1.262.739 1.88.367.839.559 1.743.747 2.64.278 1.316.558 2.633.728 3.966.193 1.51-.717 5.87-.801 7.387-.02.366-.064.763-.314 1.026-.098.103-.228.187-.273.323a.56.56 0 00.06.383c.419.96 1.274 1.673 2.23 2.091.955.418 3.258.782 4.299.817a.845.845 0 00.404-.054.784.784 0 00.313-.362c.746-1.45.029-6.273.039-7.911.01-1.366.328-2.72.27-4.085-.049-1.094-.344-2.164-.441-3.253-.172-1.79.15-3.586.475-5.353.247-1.354.495-2.71.812-4.05.194-.817.419-1.641.858-2.35.343-.563.825-1.034 1.224-1.569a7.159 7.159 0 001.372-5.182c-.024-.174-2.572.657-2.797.756a8.74 8.74 0 00-2.493 1.631c-.59.57-1.055 1.333-1.571 1.973a176.39 176.39 0 00-2.164 2.736c-.813 1.04-1.61 2.092-2.389 3.155z" opacity=".05"/><circle cx="155.425" cy="86.031" r="4.275" fill="#FBBEBE"/><path fill="#FBBEBE" d="M159.424 85.747a5.432 5.432 0 003.482 2.382l-.316 1.127c-.546 1.935-1.16 3.982-2.684 5.324.173-.656-.048-1.355-.425-1.925-.377-.57-.906-1.017-1.424-1.459l-2.414-2.05a.717.717 0 01-.173-.2.59.59 0 010-.45c.308-.94 1.185-1.526 1.9-2.16.36-.327.68-.693.957-1.09.482-.675.78.002 1.097.5z"/><path fill="#464353" d="M150.04 81.77l-.094-.754c.65.165 1.268-.374 1.684-.931.415-.557.8-1.214 1.433-1.447.77-.281 1.584.165 2.318.542a7.463 7.463 0 002.66.844c.148.004.296.028.439.07.478.164.706.75.775 1.28.07.531.051 1.095.287 1.568.17.359.485.625.679.98.509.948.017 2.246.548 3.177l-1.32-1.179c-.12-.107-.29-.22-.425-.129-.105.073-.113.23-.156.356-.127.367-.599.476-.94.33-.34-.145-.59-.46-.848-.749-.584-.67-1.28-1.261-2.094-1.547a2.751 2.751 0 00-2.206.142c-.616.339-1.067 1.13-1.822 1.157-1.035.038-1.466-1.84-1.945-2.582a.895.895 0 00.272-1.138c.07-.028.74-.106.755.01z"/><path fill="#A1616A" d="M97.094 57.123a8.704 8.704 0 00-1.038 1 1.9 1.9 0 00-.478 1.285.622.622 0 00.135.377c.09.108.245.15.385.108a.507.507 0 00.193-.156c.203-.224.42-.439.647-.643.083-.076.193-.156.304-.127a.33.33 0 01.131.08c.13.102.224.237.272.388.067.27-.104.54-.299.753-.194.212-.423.415-.502.682a.28.28 0 000 .22c.037.05.089.09.15.116a2.323 2.323 0 001.818.11c.385-.144.728-.39 1.125-.517.172-.043.338-.102.497-.176a.948.948 0 00.44-.607c.051-.245.06-.496.03-.744a7.96 7.96 0 00-.663-2.797.355.355 0 00-.111-.149.381.381 0 00-.193-.048c-.493-.047-1.302-.279-1.778-.11-.166.083-.31.2-.42.342-.088.09-.645.495-.645.613z"/><path fill="#464353" d="M97.51 56.585c0-.43-.519-1.471.306-1.54 0-.461-.638-.747-.519-1.237.038-.162.173-.295.188-.46.052-.472-.78-.729-.643-1.18.052-.177.235-.28.275-.455.094-.408-.62-.59-.634-1.008 0-.142.078-.274.07-.416 0-.176-.15-.31-.233-.464-.216-.394-.11-1.003-.504-1.207.26.023.345-.372.238-.614-.107-.242-.327-.453-.328-.721a1.112 1.112 0 000-.293c-.073-.258-.486-.28-.555-.53a2.307 2.307 0 01-.009-.29c-.027-.2-.228-.327-.416-.383a1.676 1.676 0 01-.557-.203c-.121-.094-.261-.25-.39-.177-.05.03-.073.086-.11.129-.155.185-.452.104-.648-.032-.577-.4-.864-1.12-.987-1.821-.123-.701-.12-1.426-.273-2.12a4.604 4.604 0 00-.187-.636c-.065-.176-.276-.454-.29-.632-.031-.407.792-.13 1.105-.089.303.03.604.09.897.177.312.12.619.258.918.412 1.248.563 2.755.632 3.758 1.579.33.31.608.719 1.037.86.196.039.39.09.58.154.476.228.55.872.81 1.339a2.7 2.7 0 01.212.388c.05.16.073.327.07.495l.036 1.224c.058 2.051.117 4.107-.097 6.146-.07.673-.173 1.365.022 2.012.052.176.125.343.173.52.043.21.065.423.066.637l.027.793a.252.252 0 01-.038.177.245.245 0 01-.209.05c-1.08-.098-2.173-.72-3.192-.344"/><ellipse cx="147.944" cy="115.42" fill="#504F60" rx="12.824" ry="1.603"/><path fill="url(#a)" d="M158.623 115.238c-.23-.974-.373-1.83-.373-1.83s.053-1.06-.427-1.856v-2.226c.137-.356.304-.7.5-1.027.353-.616 0-2.873 0-2.873s-1.319-3.182-1-5.201c.32-2.02-2.707-8.965-2.707-8.965a8.78 8.78 0 01.284-1.984 1.5 1.5 0 00.039-.417v-.05.015c-.046-1.331-1.108-3.826-1.108-3.826l.142-4.756s.678-2.8-.427-6.57a34.719 34.719 0 01-.79-3.177c-.018-.09-.036-.175-.05-.264 2.275-.35 4.014-.63 4.014-.63s-1.32-5.475-2.212-6.433c-.891-.96-1.604-3.97-1.604-3.97s-.464-3.865.286-4.995.856-3.08.856-3.08 1.71-1.225 1.926-1.78c.215-.554.57-1.779.57-2.428s-.214-1.224-.143-1.574c.07-.35-.5-1.643-.214-2.26a1.644 1.644 0 00.113-.61 8.242 8.242 0 00-.15-1.606 4.611 4.611 0 00-1.694-.897l-.037-.147-.098-.385a1.887 1.887 0 00-.167-.098v-.14l-.016-.557.268-1.249c.53-2.173-2.399-2.497-2.399-2.497a1.54 1.54 0 00-.83-.72c-.587-.205-.096 3.268.177 3.499.207.175.846 1.256 1.155 1.791l.05.088a1.23 1.23 0 00-.135.14l.111.754.018.115a3.124 3.124 0 00-.468.79s.53.58.429 1.224c-.1.644.164 1.461.177 1.505-.032-.037-.408-.44-.784-.341-.376.098-1.426.411-1.426.411s-.784.136-.706.308c.077.171-.53.924-.53.924l-2.107-1.98c-.021-.06-.044-.12-.062-.176a4.78 4.78 0 01-.177-.875c.23-.054.455-.125.675-.211.221-.076.42-.203.582-.371.214-.25.254-.59.34-.901.167-.61.53-1.15.783-1.729a5.575 5.575 0 00.397-3.11 2.018 2.018 0 00-.323-.91c-.344-.47-.97-.66-1.423-1.035-.453-.374-.746-.946-1.276-1.224-.478-.254-1.059-.224-1.599-.137a8.667 8.667 0 00-2.988 1.078c-.307.175-.646.39-1 .325-.303-.054-.529-.294-.72-.525a.174.174 0 01.01-.028.175.175 0 01-.024-.028 3.662 3.662 0 00-.328 1.565c0 .084 0 .175.01.25v.159a.396.396 0 01-.015.11.796.796 0 01-.198.282 1.89 1.89 0 00-.176.233c0-.028.017-.056.028-.086-.135.195-.21.424-.219.66a.67.67 0 00.159.472c.106.102.22.193.344.273a3.947 3.947 0 00-.063.7 4.037 4.037 0 001.987 3.448c.025.058.048.117.07.175.27.7.474 1.522.384 2.275 0 .054-.016.11-.025.164-.009.054-.053.058-.076.088 0 0-3.482.035-4.301-.7-.82-.735-2.069 1.797-2.069 1.797s-1.248.24-1.499 0c-.25-.24-1.71-.034-1.71-.034a3.164 3.164 0 00-2.176-.787 6.404 6.404 0 00-1.589-.875l-.039-.014a1.794 1.794 0 00-.785-.098s-1.712-1.4-2.212-2.155c-.5-.756-2.877-3.547-2.887-3.559v-.135l-.027-.406a1.48 1.48 0 01-.213.018l-.048-.142a7.79 7.79 0 00-.505-1.15s0-.512.15-.641c.15-.13-.061-2.01-.061-2.01s-1.543-3.575-2.925-.907c0 0-2.612 1.727-.42 3.739 0 0 .882.42.999.752.081.215.378.82.577 1.225l.09.175-.025.02.032.337.014.13c-.413.232-.693.463-.625.636a3.8 3.8 0 01.25.924s3.032 3.765 3.423 5.373c0 0 8.132 4.79 10.806 5.132l-.473 2.388c-.069.648-.104 1.3-.106 1.95.035.513-.321 2.84-.321 2.84s-.464 3.423-.856 3.902c-.392.48-.321 2.532-.321 2.532a17.16 17.16 0 01-.53 2.908c-.392 1.3-.108 2.91-.108 2.91s-1.353 3.079 1.89.991c0 0 1.59-.098 3.428-.16v.174c0 .235 0 .489-.012.754-.025 1.764-.035 4.2.046 6.033.143 3.251 1.142 9.684 1.142 9.684v3.239a4.37 4.37 0 00-.095.924 5.972 5.972 0 00.882 3.235l.25 2.155s.587 1.421.597 2.275c-.002.069-.01.137-.024.205-.023.108-.033.22-.029.33-.033.98.562 3.325.562 3.325s.035 2.36.392 2.498c.305.117-.408 1.36-.62 1.716a.484.484 0 01-.012-.066l-.044.07a1.663 1.663 0 00-.112.598.855.855 0 00.396.83c.678.41 1.041.752.466.888a6.037 6.037 0 00-.629.132c0-.027-.02-.055-.03-.08a.374.374 0 00-.234.414c.005.277.077.55.21.794.57 1.267.965 1.75.965 1.75l.274-.03a1.32 1.32 0 01-.16.292 1.134 1.134 0 01-.402.35c-.15.089-.316.145-.489.166-.39.013-.758.19-1.01.487-.352.456-.578 1.078.124 1.623l2.55.875s4.389.565 4.156-.411c-.233-.976-.374-1.83-.374-1.83a3.83 3.83 0 00-.353-1.73 2.244 2.244 0 00-.156-.256l.156-.016s.32-2.157.748-2.566c.099-.095.122-.175.099-.224.044-.118-.069-.186-.212-.226l-.032.086a2.099 2.099 0 00-.425-.047s-.143-1.129.321-1.54a.433.433 0 00.09-.336 1.79 1.79 0 00-.05-.46.225.225 0 01-.015.028c-.233-1.026-1.024-2.654-1.024-2.654s-.035-1.026.25-1.437c.287-.411-.036-5.578-.036-5.578s.107-2.496-.214-3.66c-.321-1.163.392-2.533.392-2.533v-.091l-.04-.394a.1.1 0 000 .024c-.073-.66-.209-1.86-.31-2.412-.142-.788.038-4.55.038-4.55l.64-1.609 1.142 2.773L148 88.906s.6.78.614 1.575v.116c-.01.081-.014.164-.014.246-.022.467.108.929.369 1.318 0 0 .321 1.75.82 2.189.5.439.5 1.3.5 1.3s.605 2.533.883 2.974c.24.374.252 1.4.25 1.72v.09s.085.907.081 1.666v.252c0 .208-.025.414-.074.616l-.01.035c0-.044 0-.086.012-.128a6.376 6.376 0 00-.176 1.575c-.016.91.123 1.988.68 2.625.963 1.095 1.568.958 1.568.958s-.462 1.369-1.034 1.643a.269.269 0 00-.06.039c0-.028-.01-.055-.014-.08a.663.663 0 00-.177.51c-.04.602.343 1.575.706 2.028.135.131.3.227.482.28a1.924 1.924 0 01-.286.147 1.04 1.04 0 01-.291.075c-.392.01-.76.188-1.01.486-.353.455-.579 1.077.124 1.622l2.55.875s4.36.555 4.13-.42z"/><path fill="#2D293D" d="M142.085 116.847l-2.28-.943c-.628-.588-.428-1.257-.11-1.748.221-.318.55-.509.902-.524a.99.99 0 00.435-.18c.144-.09.268-.22.361-.376.166-.306.256-.659.259-1.02 0 0 2.5-.848 3.185 0 .122.154.224.327.303.515.227.585.338 1.222.325 1.863 0 0 .127.92.334 1.972.207 1.051-3.714.44-3.714.44zm11.763-1.067l-2.286-.941c-.63-.588-.429-1.257-.11-1.747.22-.319.55-.51.902-.524a.76.76 0 00.261-.08c.06-.03.12-.063.177-.1.638-.406.622-1.4.622-1.4s2.506-.848 3.193 0a2.1 2.1 0 01.24.376c.43.858.382 2.001.382 2.001s.127.922.326 1.971c.2 1.05-3.707.445-3.707.445z"/><path fill="#000" d="M145.461 111.969c.14.117.256.25.346.394l-4.275.385c.19-.234.292-.504.296-.78 0 0 2.853-.65 3.633 0zm12.102-.672v.74c-.59 1.011-3.446.79-4.275.283.06-.026.12-.057.178-.09.645-.37.628-1.276.628-1.276s2.532-.772 3.226 0a1.9 1.9 0 01.243.343z" opacity=".1"/><path fill="#464353" d="M157.413 107.941c-.184.33-.342.674-.47 1.03v2.708c-.676 1.13-4.182.754-4.656.136-.474-.617-.969-2.222-.436-2.501.533-.279.978-1.646.978-1.646s-.575.137-1.485-.96c-.91-1.098-.64-3.531-.47-4.113.168-.582 0-2.537 0-2.537s.034-1.372-.235-1.818c-.27-.445-.843-2.98-.843-2.98s0-.857-.473-1.302c-.472-.446-.776-2.195-.776-2.195a2.279 2.279 0 01-.336-1.474c.1-.858-.574-1.783-.574-1.783l-1.147-3.704-1.08-2.777-.606 1.611s-.172 3.77-.033 4.558c.14.787.345 2.88.345 2.88s-.674 1.37-.37 2.537c.303 1.165.192 3.67.192 3.67s.304 5.175.033 5.587c-.27.412-.236 1.441-.236 1.441s1.38 3.015.945 3.427c-.435.412-.304 1.543-.304 1.543s.944 0 .54.412c-.403.412-.709 2.572-.709 2.572l-4.077.485s-.373-.478-.913-1.753c-.54-1.274.1-1.13.644-1.27.543-.138.2-.478-.442-.89-.641-.412-.269-1.337-.269-1.337s.978-1.68.64-1.816c-.338-.137-.37-2.504-.37-2.504s-.675-2.804-.506-3.565c.169-.76-.54-2.57-.54-2.57l-.236-2.16a6.026 6.026 0 01-.741-4.08v-3.331s-.945-6.444-1.08-9.701c-.086-2.087-.062-4.933-.034-6.71.017-.995.034-1.656.034-1.656l14.567-1.542s-.014.683.264 2.2c.15.813.382 1.867.748 3.183 1.045 3.77.405 6.58.405 6.58l-.136 4.767s1.28 3.187 1.012 4.285a9.281 9.281 0 00-.272 1.99s2.865 6.96 2.562 8.983c-.304 2.023.943 5.212.943 5.212s.341 2.261.003 2.878z"/><path fill="#000" d="M149.013 90.778l4.275-.473s-2.422 2.05-4.275.473z" opacity=".05"/><path fill="#000" d="M153.023 86.03s.151 1.554-.804 2.138c0 0 1.71-.266.804-2.137zm.265-5.343s-3.78 3.478-5.154 3.19c-1.374-.29 5.154-3.19 5.154-3.19zm-9.618 10.687s-3.111.673-3.205 1.862c-.093 1.19 3.205-1.862 3.205-1.862z" opacity=".1"/><path fill="#000" d="M143.97 106.336s-4.573.734-3.275 1.235c1.299.5 3.431.902 3.431.902s1.477.067-.157-2.137zm-3.104 1.791a.782.782 0 01-.379-.575l-.043.07s-.385.91.282 1.314c.075.046.149.093.215.138.124-.023.256-.04.384-.071.565-.134.208-.47-.46-.876zm5.329-.27c.115-.1.112-.359.042-.69-.18.26-.232.667-.235.976a.839.839 0 01.193-.286zm-.636-16.768a4.444 4.444 0 00-.28 1.24c.08-.293.187-.578.321-.852l-.041-.388zm9.476-1.769c.027-.12.04-.244.037-.368a9.484 9.484 0 00-.114.69 9.72 9.72 0 01.077-.321zm-9.575 13.752c.058-.082.09-.362.104-.75-.13.3-.198.622-.203.947a.89.89 0 01.1-.197zm.86 6.357a12.935 12.935 0 00-.481 2.068l-4.242.47s-.387-.47-.948-1.723a3.047 3.047 0 01-.12-.296c-.255.112-.36.365-.022 1.104.561 1.248.95 1.724.95 1.724l4.242-.472s.315-2.124.735-2.529c.215-.195.082-.296-.113-.346zm-5.594-6.053s.034 2.325.385 2.46c.18-.385.296-.75.138-.81-.358-.135-.385-2.462-.385-2.462s-.701-2.758-.526-3.506c.176-.748-.561-2.526-.561-2.526l-.246-2.124a5.652 5.652 0 01-.77-4.012v-3.275s-.984-6.335-1.123-9.538c-.09-2.05-.065-4.85-.036-6.595 0-.316.01-.595.016-.831l-.12.012s-.02.648-.036 1.629c-.029 1.746-.056 4.545.036 6.594.14 3.202 1.12 9.54 1.12 9.54v3.274a5.655 5.655 0 00.773 4.01l.244 2.124s.737 1.786.562 2.528c-.176.743.529 3.508.529 3.508zm12.485 7.684a3.857 3.857 0 01-.673-1.602c-.432.376.065 1.834.538 2.413.49.607 4.138.977 4.843-.136v-.641c-.956.901-4.245.54-4.708-.035zm5.329-3.81a6.69 6.69 0 00-.49 1.012v.477c.08-.172.193-.403.358-.675.111-.266.164-.55.154-.836 0 0-.016.015-.021.022zm-5.114.533c.134-.26.25-.528.346-.802 0 0-.597.135-1.544-.944-.688-.784-.728-2.267-.63-3.235-.179.574-.457 2.966.49 4.045.62.705 1.087.891 1.338.936zm-1.829-7.475c.062.664.085 1.33.07 1.997.017-.105.041-.209.072-.311.179-.574 0-2.494 0-2.494s.036-1.35-.246-1.788c-.282-.437-.868-2.933-.868-2.933s0-.843-.491-1.28c-.492-.438-.807-2.159-.807-2.159a2.15 2.15 0 01-.36-1.449c.107-.843-.594-1.753-.594-1.753l-1.193-3.64-1.123-2.73-.633 1.586s0 .2-.021.517l.513-1.288 1.122 2.725 1.193 3.64s.701.91.595 1.753a2.15 2.15 0 00.359 1.45s.316 1.723.807 2.157c.491.435.49 1.28.49 1.28s.597 2.495.876 2.93c.28.437.239 1.79.239 1.79z" opacity=".05"/><path fill="#FFCDD3" d="M154.3 37.816l-.241 1.196.014.532.01.392-1.337.14-.149-.283c-.277-.512-.852-1.553-1.037-1.714-.247-.21-.688-3.535-.164-3.338.323.128.588.373.744.688 0 0 2.633.308 2.16 2.387z"/><path fill="#000" d="M153.288 39.86l-.962.216-.107-.436c.267-.666.71-.826 1.06-.383l.009.602z" opacity=".1"/><path fill="#6C63FF" d="M154.357 40.847l-1.983.298-.042-.192-.113-.516s.785-.681 1.92-.17l.1.262.118.318z"/><path fill="#FFCDD3" d="M123.364 37.87l-1.894 1.138-.165-.4c-.18-.423-.449-1.06-.523-1.293-.112-.351-.902-.795-.902-.795-1.978-2.123.38-3.949.38-3.949 1.25-2.818 2.638.958 2.638.958s.194 1.99.057 2.123c-.137.133-.137.678-.137.678a8.918 8.918 0 01.546 1.54z"/><path fill="#000" d="M123.364 38.182l-1.966.826-.171-.29c.277-.182 1.261-.804 1.584-.778.155.015.31.018.466.01.055.142.087.232.087.232z" opacity=".1"/><path fill="#6C63FF" d="M123.364 38.824l-2.067 1.252-.041-.545-.03-.378s1.198-1.262 1.552-1.213c.18.032.36.032.54 0l.024.457.022.427z"/><path fill="#FFCDD3" d="M149.013 45.78s-10.222 1.141-8.312.527c1.33-.43 1.859-1.258 1.97-2.193.09-.779-.113-1.618-.38-2.337-.24-.638-.545-1.25-.908-1.828 0 0 7.81-4.253 6.25-.386a6.18 6.18 0 00-.444 1.831 5.124 5.124 0 00.202 1.855 5.517 5.517 0 001.622 2.531z"/><path fill="#000" d="M146.67 39.642a6.782 6.782 0 00-.44 1.922c-.732.643-1.533.6-2.564.6-.79 0-1.668.2-2.3-.198a10.892 10.892 0 00-.903-1.918s7.761-4.462 6.207-.406z" opacity=".1"/><circle cx="143.67" cy="37.939" r="4.275" fill="#FFCDD3"/><path fill="#000" d="M149.013 45.872s-10.222.994-8.312.458c1.33-.374 1.859-1.096 1.97-1.91.508-.47 1.53-.818 2.179-1a3.527 3.527 0 011.853-.027c.238.062.465.153.674.27.297.852.864 1.617 1.636 2.209zm5.344-5.209l-2.093.482-.045-.31a1.856 1.856 0 012.013-.685l.125.513zm-30.993-2.451l-2.095.796-.042-.347a17.86 17.86 0 012.11-.722l.027.273zM152.22 71.02c-3.786.578-9.166 1.317-10.02 1.068-.71-.207-2.973-.185-4.943-.12.018-.945.035-1.573.035-1.573l14.662-1.464s-.014.65.265 2.088z" opacity=".1"/><path fill="#3F3D56" d="M156.494 69.63s-12.552 2.155-13.898 1.75c-1.347-.406-8.264.032-8.264.032-3.113 2.086-1.813-.99-1.813-.99s-.273-1.608.103-2.906c.252-.954.425-1.927.516-2.91 0 0-.069-2.052.307-2.531.376-.479.822-3.897.822-3.897s.341-2.325.308-2.837c-.033-.512.102-1.95.102-1.95l.446-2.393c-2.566-.34-10.364-5.127-10.364-5.127-.376-1.607-3.283-5.367-3.283-5.367a3.955 3.955 0 00-.24-.923c-.204-.548 2.874-1.642 2.874-1.642s2.291 2.797 2.77 3.556c.48.759 2.12 2.154 2.12 2.154a1.65 1.65 0 01.752.098l.04.012c.55.216 1.065.51 1.53.874a2.974 2.974 0 012.087.787s1.399-.207 1.642.033c.243.24 1.436 0 1.436 0s1.196-2.53 1.983-1.796c.787.735 4.126.7 4.126.7.444-.591 1.526-1.014 2.203-1.224a2.958 2.958 0 011.784-.03c.252.075.488.194.7.35l2.03 1.982s.58-.753.512-.923c-.068-.17.684-.307.684-.307s.992-.308 1.368-.411c.376-.103.72.304.752.34-.012-.043-.27-.873-.175-1.503.094-.63-.41-1.224-.41-1.224 1.195-2.94 3.897-.479 3.897-.479s.308 1.607.035 2.222c-.273.616.273 1.915.205 2.257-.068.343.138.923.138 1.574 0 .65-.35 1.88-.547 2.426-.198.548-1.847 1.778-1.847 1.778s-.103 1.95-.822 3.077c-.719 1.128-.268 4.984-.268 4.984s.684 3.01 1.54 3.967c.855.958 2.119 6.418 2.119 6.418z"/><path fill="#000" d="M138.217 47.557s-.446-1.153-.852-1.252c-.404-.128-.797-.28-1.176-.454l.261-.431s1.522.358 1.767.746c.245.388 0 1.391 0 1.391zm-7.372-2.587c-.07.243-3.206.45-3.206.45l1.585-1.069.04.01c.568.15 1.1.355 1.581.61z" opacity=".1"/><circle cx="121.761" cy="40.611" r="1" fill="#575988"/><circle cx="122.83" cy="40.611" r="1" fill="#575988"/><circle cx="122.83" cy="41.679" r="1" fill="#575988"/><circle cx="122.83" cy="41.679" r="1" fill="#575988"/><circle cx="155.425" cy="42.214" fill="#575988" r="1"/><circle cx="155.425" cy="42.214" fill="#575988" r="1"/><circle cx="155.425" cy="42.214" fill="#575988" r="1"/><path fill="#000" d="M137.257 57.176c-.033-.037 7.808 8.9 13.893 3.736.006.001-9.61 1.178-13.893-3.736zm-4.274 4.274s4.837.137 5.343 1.582v1.504a.898.898 0 01-.9 0c-.488-.275-3.413-1.816-4.443-1.074V61.45z" opacity=".1"/><path fill="#3F3D56" d="M132.983 61.45s4.837.138 5.343 1.584v1.5a.896.896 0 01-.901 0c-.487-.27-3.411-1.814-4.442-1.071V61.45z"/><path fill="#000" d="M136.189 51.832a13.7 13.7 0 001.667 2.84 11.19 11.19 0 002.607 2.504s-4.203-4.758-4.274-5.344zm-2.138-5.343s.896 3.191 3.206 4.274l-3.206-4.274zm-1.013.001c-.015-.064-.556 2.724 2.082 4.273 0 0-1.12-.485-2.082-4.273zm20.251-2.137c-.053 0 1.667.727 2.136 1.067 0 0-1.12-1.116-2.136-1.067z" opacity=".1"/><path fill="#2D293D" d="M142.698 41.546a.625.625 0 00.682.619c1.21.075 2.472.127 3.584-.341a1.37 1.37 0 00.546-.362c.198-.243.238-.574.318-.877.157-.593.491-1.12.732-1.684.407-.953.544-2 .394-3.025a2.043 2.043 0 00-.304-.884c-.32-.459-.906-.644-1.33-1.009-.426-.365-.699-.922-1.195-1.193-.448-.249-.995-.218-1.499-.133-.99.168-1.94.524-2.795 1.048-.289.17-.605.38-.936.317-.29-.054-.501-.298-.682-.526a3.686 3.686 0 00-.285 1.73.742.742 0 01-.009.26.784.784 0 01-.186.274c-.299.341-.485.895-.19 1.246.129.152.327.235.451.39.224.278.149.682.144 1.037a.533.533 0 00.088.35.513.513 0 00.49.118c.17-.05.347-.067.522-.05a.87.87 0 01.454.342c.552.717.77 1.497 1.006 2.353z"/><path d="M147.896 41.375a1.397 1.397 0 01-.557.36c-1.143.465-2.429.413-3.659.341a.874.874 0 01-.381-.083c-.188-.108-.26-.332-.317-.537-.24-.85-.462-1.632-1.033-2.342a.893.893 0 00-.464-.35 1.476 1.476 0 00-.533.05.531.531 0 01-.5-.116.524.524 0 01-.09-.35c0-.358.081-.758-.147-1.035-.127-.155-.329-.239-.46-.392a.762.762 0 01-.078-.793c-.218.34-.31.767-.058 1.06.131.152.333.235.46.39.229.28.152.681.147 1.035a.52.52 0 00.089.351.531.531 0 00.501.117 1.39 1.39 0 01.533-.049c.19.06.352.18.464.34.57.71.792 1.49 1.033 2.345.028.21.135.403.301.54a.86.86 0 00.383.081c1.236.075 2.523.13 3.659-.34.213-.074.405-.198.557-.361a1.04 1.04 0 00.175-.32c.001.022-.01.04-.025.058zm-7.885-5.773a.58.58 0 00.124-.201.726.726 0 000-.26c-.034-.486.03-.973.19-1.434l-.023-.026a3.586 3.586 0 00-.29 1.726c.005.065.005.13 0 .195zm2.589 8.657s4.904.672 5.344-.09m4.276-1.955s2.628 0 3.205 1.068" fill="#000" opacity=".1"/><path fill="#3F3D56" d="M167.594 136.48a4.354 4.354 0 01-2.955 1.099c-.278 0-.662.052-.664.329a.462.462 0 00.081.225c.344.57.887.995 1.525 1.192.592.179 1.226.148 1.844.116l1.804-.092c.339-.019.677-.036 1.016-.078.339-.042.708-.111 1.062-.169.87-.123 1.75-.163 2.627-.12.234.008.508 0 .647-.17.139-.168.068-.49.015-.743-.108-.52 0-1.066-.1-1.589-.169-.917-.967-1.62-1.84-1.952-.814-.306-2.253-.658-3.022-.146-.812.537-1.308 1.436-2.04 2.098z"/><path fill="#464353" d="M169.76 104.915c.16.79.898 1.394.919 2.2.019.646-.426 1.188-.747 1.741-.302.573-.557 1.17-.763 1.788a27.706 27.706 0 01-2.237 4.61c-.427.707-.904 1.462-.807 2.283.068.384.199.754.387 1.092l1.28 2.632c.28.526.499 1.084.653 1.663.11.5.12 1.017.186 1.526.2 1.615.932 3.24.5 4.805-.038.135-.171.297-.275.204.423.817.762 1.64.73 2.568-.017.486-.16.993.012 1.445.073.19.2.366.2.57 0 .133-.06.259-.074.39-.036.372.295.683.638.802.342.118.716.11 1.062.217.665.207 1.141.8 1.706 1.212a3.548 3.548 0 001.965.662.48.48 0 00.29-.06.493.493 0 00.16-.364c.063-.67-.2-1.328-.703-1.756a.784.784 0 01-.26-.282.705.705 0 01-.025-.317 24.659 24.659 0 00-.075-4.345 6.833 6.833 0 01-.066-1.384c.036-.385.148-.766.107-1.15-.04-.383-.23-.733-.34-1.102-.199-.657-.144-1.364-.171-2.051-.035-1.194-.299-2.368-.562-3.534-.104-.457-.218-.936-.53-1.275-.266-.288-.696-.564-.595-.947.056-.141.139-.27.244-.376.25-.325.36-.741.303-1.152a.494.494 0 00.575-.28c2.077-1.015 3.752-3.047 4.5-5.3.043-.166.111-.326.2-.473.193-.279.528-.399.824-.553.932-.485 1.575-1.395 2.165-2.286.34-.515.682-1.049.836-1.657.08-.393.119-.794.114-1.196l.053-2.075a1.16 1.16 0 00-.038-.407 1.018 1.018 0 00-.216-.328 3.815 3.815 0 00-2.126-1.188c-.545-.1-1.103-.08-1.656-.129-1.07-.091-2.128-.436-3.2-.353-1.683.13-3.182 1.338-3.975 2.882-.278.544-.571 1.017-1.168 1.028z"/><path fill="#067FB7" d="M159.512 91.517c.024.309-.02.619-.128.91-.138.28-.483.498-.785.384.091-.196-.15-.42-.376-.395a.69.69 0 00-.495.405c-.15.286-.2.61-.143.924.072.392.31.768.247 1.161-.05.327-.302.652-.168.955.087.139.196.263.323.37.367.43.316 1.058-.116 1.43l3.383.064c-.124.538.13 1.088.42 1.567 1.644 2.666 4.505 4.444 7.73 4.805a.64.64 0 00-.325.453.62.62 0 00.162.526c.276.26.742.228 1.087.06.345-.169.615-.448.93-.664a2.968 2.968 0 011.911-.49c.424.039.835.17 1.26.19 1.252.063 2.325-.795 3.53-1.145.877-.257 1.873-.257 2.61-.78.318-.225.579-.594.486-.959a1.59 1.59 0 00-.357-.563c-.424-.523-.674-1.15-.978-1.745a10.494 10.494 0 00-2.444-3.119 21.8 21.8 0 00-2.425-1.75 4.179 4.179 0 00-.654-.376c-.297-.124-.626-.184-.894-.34-.397-.239-.625-.66-.931-.998-.67-.746-1.7-1.088-2.526-1.674-.554-.393-1.044-.91-1.706-1.1-.322-.093-.663-.1-.985-.192-.731-.21-1.264-.829-1.98-1.08-.567-.197-1.193-.145-1.788-.215a4.313 4.313 0 01-1.869-.678 2.247 2.247 0 00-.595-.33c-.906-.262-.98 1.345-1.073 1.901-.12.828-.338 1.65-.338 2.488z"/><path fill="#FBBEBE" d="M161.277 97.25c.149 1.596-1.07 3.143-.714 4.707.075.333.22.65.273.987.149.927-.411 1.805-.945 2.58l-4.585 6.66a4.196 4.196 0 01-.654.8c-.875.771-2.191.693-3.343.922a5.805 5.805 0 00-2.24.98.143.143 0 00-.028.2c.387.52 1.013.812 1.665.774.12.156 0 .388-.167.5-.245.173-.584.213-.633.627a.687.687 0 00.084.416c.185.279.472.476.801.55 1.588.482 3.303-.363 4.49-1.511 1.189-1.149 2.041-2.598 3.207-3.766.645-.647 1.379-1.2 2.043-1.827 1.327-1.252 2.36-2.771 3.353-4.294.3-.459.602-.93.727-1.461.124-.532.066-1.07.208-1.585.185-.674.684-1.213 1.099-1.777.813-1.109 1.358-2.465 1.25-3.831-.11-1.367-.963-2.714-2.265-3.179a2.055 2.055 0 00-1.269-.076c-.534.163-.927.6-1.291 1.019l-.875.994c-.213.22-.38.48-.492.764a.792.792 0 00.175.848"/><path fill="#067FB7" d="M162.831 90.36c-.636.033-1.336.089-1.785.491a2.221 2.221 0 00-.451.625c-.436.787-.862 1.61-.893 2.487-.026.7.203 1.386.324 2.078.1.575-.154 1.163-.202 1.745.79-.214 1.832-.505 2.547-.867.488-.247.96-.528 1.491-.685.76-.225 2.034.163 2.756.474.039-.448-.342-1.23-.301-1.68a1.69 1.69 0 01.113-.556c.108-.19.236-.37.382-.539.565-.812.474-1.853-.223-2.58-.642-.638-1.645-.877-2.603-.981-.603-.062-1.21-.08-1.817-.056"/></g></svg>