<svg xmlns="http://www.w3.org/2000/svg" width="48" height="44"><g fill="#1D7BE2"><path d="M23.973 30.888c-1.34 0-2.464 1.123-2.464 2.464 0 1.34 1.123 2.464 2.464 2.464 1.291 0 2.464-1.124 2.405-2.405a2.406 2.406 0 00-2.405-2.523z"/><path d="M46.78 39.62c1.548-2.67 1.558-5.854.02-8.515L31.365 4.375C29.837 1.683 27.078.086 23.983.086c-3.095 0-5.855 1.607-7.383 4.278L1.146 31.125c-1.538 2.69-1.528 5.893.03 8.564 1.537 2.642 4.287 4.229 7.362 4.229h30.83c3.085 0 5.855-1.607 7.412-4.298zm-3.35-1.931a4.658 4.658 0 01-4.071 2.355H8.529c-1.676 0-3.184-.857-4.022-2.306a4.664 4.664 0 01-.01-4.702l15.455-26.75a4.574 4.574 0 014.03-2.335c1.686 0 3.194.877 4.032 2.345l15.445 26.75c.828 1.44.818 3.174-.03 4.643z"/><path d="M23.362 13.59c-1.173.335-1.902 1.4-1.902 2.69.059.78.108 1.568.167 2.347l.503 8.84c.059 1.006.838 1.735 1.843 1.735s1.794-.778 1.843-1.794c0-.61 0-1.172.06-1.793.108-1.903.226-3.805.334-5.707.06-1.232.168-2.464.227-3.696 0-.444-.06-.838-.227-1.232a2.47 2.47 0 00-2.848-1.39z"/></g></svg>