<svg xmlns="http://www.w3.org/2000/svg" width="169" height="123"><g fill="none" fill-rule="evenodd"><circle cx="72.429" cy="57.359" r="57.359" fill="#F2F2F2" fill-rule="nonzero"/><ellipse cx="22.759" cy="119.023" fill="#F2F2F2" fill-rule="nonzero" rx="22.759" ry="3.641"/><ellipse cx="133.785" cy="113.328" fill="#F2F2F2" fill-rule="nonzero" rx="35.215" ry="5.634"/><path fill="#2F2E41" fill-rule="nonzero" d="M125.961 59.17s.3 1-1.399 1.9c-1.699.899-2.199 4.297-.2 5.296 1.999 1 2.599 2.299 1.6 3.198-1 .9-2.799 3.298-.4 3.898 2.398.6 2.698 1.798 1.998 2.298s1.6-.9 1.6-.9.399 2.4 2.498 1.8c2.098-.6 7.994-11.993 4.996-13.592-2.998-1.599-10.693-3.897-10.693-3.897z"/><path fill="#FFB9B9" fill-rule="nonzero" d="M129.583 68.82s1.037 3.629-.777 3.888a7.082 7.082 0 00-3.11 1.296l3.369 4.405h6.22l3.887-3.887s-5.183-3.887-4.146-6.22c1.036-2.332-5.443.519-5.443.519z"/><path fill="#FFB9BA" fill-rule="nonzero" d="M129.583 68.82s1.037 3.629-.777 3.888a7.082 7.082 0 00-3.11 1.296l3.369 4.405h6.22l3.887-3.887s-5.183-3.887-4.146-6.22c1.036-2.332-5.443.519-5.443.519z" opacity=".1"/><path fill="#FFB9BA" fill-rule="nonzero" d="M131.138 113.914l5.961 2.073 4.146.26-.259-3.629-8.552-2.529z"/><path fill="#575A89" fill-rule="nonzero" d="M138.783 113.137s0 3.628.519 3.628c.518 0 7.515-.778 9.589 0 2.073.777 5.183-2.073 3.628-3.628-1.555-1.555-4.091-3.888-5.674-3.37-1.583.519-8.062 1.815-8.062 1.815v1.555zm-19.048-3.369s-3.11 6.22-1.036 6.738c2.073.518 4.405-.26 4.665-.519.259-.259 3.887-1.295 4.405-.777.519.518.519-2.073.519-2.073l-8.553-3.37z"/><path fill="#043145" fill-rule="nonzero" d="M122.327 101.215s-4.924 6.738-1.296 8.553c3.628 1.814 20.992 1.814 22.288 0 1.296-1.815 1.814-7.516 0-8.034-1.814-.519-20.992-.519-20.992-.519z"/><path fill="#067FB7" fill-rule="nonzero" d="M122.327 101.215s-4.924 6.738-1.296 8.553c3.628 1.814 20.992 1.814 22.288 0 1.296-1.815 1.814-7.516 0-8.034-1.814-.519-20.992-.519-20.992-.519z" opacity=".2"/><circle cx="131.657" cy="64.674" r="5.961" fill="#FFB9BA" fill-rule="nonzero"/><path fill="#39CD6C" fill-rule="nonzero" d="M122.327 74.004l5.183-1.037s1.296 4.147 5.442 3.37c4.147-.778 5.184-3.37 5.184-3.37s3.11 1.296 3.369 1.296c.259 0 3.628 1.296 3.628 2.073 0 .778-3.888 8.552-3.888 8.552l.519 13.995-19.178-.518 1.296-13.736-1.555-10.625z"/><path fill="#FFB9BA" fill-rule="nonzero" d="M119.476 80.742s-1.555 13.735-.518 14.772c1.036 1.036 5.183 3.887 5.183 3.887v-3.11l-2.073-3.887 2.073-9.07-4.665-2.592zm26.824-.389s-.908 14.124-.908 14.643c0 .518-2.332 2.332-3.11 2.332-.777 0-1.296-1.296-1.296-1.296l1.814-2.073-1.295-10.626 4.794-2.98z"/><path fill="#067FB7" fill-rule="nonzero" d="M143.837 100.179s11.662-6.48 11.921 0c.26 6.479-5.96 9.07-5.96 9.07s-16.068 4.818-16.716 3.057c-.648-1.761-1.944-4.612-.907-4.87 1.037-.26 2.332-.778 2.85-.26.519.518 6.998-3.887 6.998-3.887l1.814-3.11z"/><path stroke="#000" stroke-width=".45" d="M149.28 99.401s-2.333 1.037-3.11 1.814c-.778.778-4.147 2.074-4.147 2.074" opacity=".2"/><path fill="#39CD6C" fill-rule="nonzero" d="M123.882 74.522l-1.555-.518s-5.702 5.96-3.887 7.515c1.814 1.555 2.85 2.074 3.369 2.592.518.518 3.11.777 3.11.777l-1.037-10.366zm18.918 1.296l2.333.518s1.814 3.887 2.332 4.406c.519.518-.777.259-1.555 1.296-.777 1.036-1.555 2.85-3.11 2.85s-3.628-2.591-3.628-2.591l3.628-6.48z"/><path fill="#067FB7" fill-rule="nonzero" d="M122.845 102.511s-9.848-6.997-13.217-1.814c-3.369 5.183 14.513 12.18 17.105 13.217 2.591 1.037 4.924 2.073 4.924 2.073s2.332-5.701 2.332-6.738c0-1.036-1.814-1.036-2.332-1.036-.519 0-2.851-.519-3.37-1.296-.518-.778-5.442-4.406-5.442-4.406z"/><path stroke="#000" stroke-width=".45" d="M117.403 100.697s2.591 2.073 4.924 2.592c2.332.518 3.11 1.814 3.11 1.814" opacity=".2"/><path fill="#575A89" fill-rule="nonzero" d="M121.058 90.953l.207 10.973a1.374 1.374 0 001.388 1.347l20.42-.23a1.374 1.374 0 001.356-1.294l.62-10.743a1.374 1.374 0 00-1.371-1.453H122.43a1.374 1.374 0 00-1.373 1.4z"/><path fill="#2F2E41" fill-rule="nonzero" d="M131.975 57.186s.332 1.107-1.55 2.104c-1.882.996-2.435 4.76-.221 5.867 2.214 1.107 2.878 2.547 1.771 3.543-1.107.996-3.1 3.653-.443 4.318 2.657.664 2.99 1.992 2.214 2.546-.775.553 1.772-.996 1.772-.996s.443 2.657 2.767 1.992c2.325-.664 4.645-12.739 2.053-15.848-2.41-2.892-8.363-3.526-8.363-3.526z"/><path fill="#2F2E41" fill-rule="nonzero" d="M131.268 56.047c0-1.622 4.853-.457 6.933 1.808 1.441 1.568 3.63 3.927 1.796 5.59-1.834 1.663 3.143 3.844 4.477 4.505 1.335.66 3.97 2.682 1.59 4.038-2.379 1.356-2.34 2.725-1.445 3.049.896.324-1.974-.482-1.974-.482s.29 2.678-2.128 2.665c-2.418-.013-9.355-13.3-7.697-16.994 1.54-3.434-1.552-4.18-1.552-4.18z"/><path fill="#2F2E41" fill-rule="nonzero" d="M132.319 55.691c-6.49-.39-7.14 4.494-7.14 4.494.045 2.827 4.533 1.45 5.78 1.87 1.504-1.081 4.404-3.129 6.477-4.59a9.807 9.807 0 00-5.117-1.774z"/><path stroke="#3F3D56" stroke-width=".45" d="M130.47 86.86s-5.82-27.28-42.253-47.069"/><path fill="#3F3D56" fill-rule="nonzero" d="M89.718 39.196l.073.3-1.474.357.464 1.443-.293.094-.565-1.758z"/><path fill="#39CD6C" fill-rule="nonzero" d="M10.53 114.734c0 3.455-2.054 4.662-4.588 4.662a7.879 7.879 0 01-.525-.018c-2.286-.162-4.063-1.43-4.063-4.644 0-3.325 4.25-7.521 4.569-7.832l.019-.018s4.588 4.395 4.588 7.85z"/><path fill="#3F3D56" fill-rule="nonzero" d="M5.775 118.867l1.678-2.344-1.683 2.602-.004.269a7.487 7.487 0 01-.349-.016l.181-3.457-.001-.027.003-.005.017-.326-1.686-2.609 1.691 2.364.004.07.137-2.613-1.444-2.695 1.462 2.237.142-5.415v-.018.017l-.023 4.27 1.437-1.692-1.443 2.06-.038 2.339 1.342-2.245-1.348 2.589-.021 1.3 1.948-3.124-1.955 3.577-.047 2.892z"/><path fill="#2F2E41" fill-rule="nonzero" d="M32.412 113.839l.981-.73s.65 3.63-.075 4.173c-.725.544-3.443 1.45-3.443 2.537 0 1.088-6.162 2.537-6.343.906-.181-1.63.544-2.537.544-2.537s2.9-2.9 3.262-3.443c.362-.544 1.268-1.63 1.268-1.63l3.806.724z"/><path fill="#2F2E41" fill-rule="nonzero" d="M17.914 68.715s.028.16.075.452c.043.259.103.625.175 1.076.762 4.645 2.982 18.318 2.831 18.769-.181.544-1.45 2.537 0 3.08.14.053.29.224.451.492.312.577.568 1.183.767 1.808.864 2.508 1.789 6.522 2.323 9.302.234 1.222.393 2.204.44 2.719.017.119.019.24.006.358-.181.725 1.087 3.262 1.63 3.987.545.725 1.45 1.45 1.27 2.175-.182.725 4.53 2.718 5.074 1.45.543-1.269.543-1.994.724-2.356.182-.363.363-2.9-.543-3.262-.906-.363-.363-6.705-1.269-7.974-.302-.422-.764-1.852-1.248-3.572a117.62 117.62 0 01-.571-2.11c-.765-2.95-1.443-5.916-1.443-5.916l.182-21.202-9.968-1.269-.255.564-.51 1.118-.14.311zm-.544 34.795s-1.449-1.45-2.174 0c-.725 1.45-1.45 7.067-2.718 8.336-1.269 1.268-2.9 7.61-1.088 7.973 1.813.363 3.806-.543 3.987-1.63.182-1.088 3.987-6.706 3.987-7.25 0-.543-2.537-2.537-2.537-2.537l.544-4.892z"/><path fill="#2F2E41" fill-rule="nonzero" d="M39.66 58.748s-2.355 21.203-2.899 23.196c-.543 1.994-3.443 9.605-4.35 10.874-.905 1.268-6.704 11.598-7.43 12.141-.724.544-2.174 1.994-2.174 1.994s-2.718 2.718-3.08 3.262c-.363.543-3.444-1.088-3.625-2.175-.181-1.087.181-2.9.363-3.624.18-.725-.363-1.813.18-2.356.544-.544 3.263-3.262 3.263-4.53 0-1.27 4.711-8.7 6.524-10.33 1.812-1.631 1.45-4.35 1.45-4.35V71.797l-9.968-3.08s.544-8.7 1.813-8.7c1.268 0 17.94-2.899 19.934-1.268z"/><circle cx="24.982" cy="22.505" r="5.98" fill="#FFB9BA" fill-rule="nonzero"/><path fill="#FFB9BA" fill-rule="nonzero" d="M26.975 27.216s.725 2.719 1.631 3.443c.906.725-2.356 3.806-2.356 3.806l-6.161.362-1.087-3.443s1.993-3.987 1.45-6.524c-.544-2.537 6.523 2.356 6.523 2.356z"/><path fill="#067FB7" fill-rule="nonzero" d="M29.512 30.297s-1.63.181-1.993.725c-.362.544-2.9 2.174-4.893 1.812-1.993-.362-3.262-.906-3.624-.725-.363.181-1.088 3.987-1.088 3.987l1.994 5.799-.363 15.947-.543 4.35s-1.088-1.45 3.262-.544c4.349.906 9.967-.725 11.779-.906 1.812-.181 4.893-.725 5.074-1.812.181-1.088-.544-5.075-.544-5.075l-2.9-12.141-1.811-6.524-4.35-4.893z"/><path fill="#39CD6C" fill-rule="nonzero" d="M27.798 29.48s1.533-.814 2.077-.09c.543.726 7.43 1.813 7.43 2.357 0 .543 1.45 15.222 1.087 16.49-.362 1.27.725 2.719.725 2.719l1.269 5.437s3.443 10.329 1.993 10.691c-1.45.363-2.718 0-3.262 0s-.362-6.886-1.812-8.698c-1.45-1.812-3.443-6.343-3.806-7.249-.362-.906-4.893-13.41-4.711-14.86.18-1.45-.99-6.798-.99-6.798zm-7.528.817s-1.45 0-1.63.362c-.182.363-1.994 2.719-2.719 3.262-.725.544-3.262 2.9-3.262 3.444 0 .543 5.255 4.53 5.255 4.53s2.175 10.692 1.088 14.316c-1.088 3.625-2.719 12.323-1.994 12.867.725.544 2.356.725 2.356 0s1.087-8.517 1.994-10.148c.906-1.631 3.624-11.96 2.537-14.86-1.088-2.9-3.625-13.773-3.625-13.773z"/><path fill="#FFB9BA" fill-rule="nonzero" d="M44.191 48.238s.181 5.617-1.812 8.517c-1.993 2.9-3.262 6.161-3.262 6.161s-3.262-.906-3.806-1.993c-.543-1.087-3.986-.181-3.986-.544 0-.362 4.168-2.174 4.53-2.537.363-.362 1.631-.362 2.356-1.087.725-.725.906-2.356.906-2.356l.725-4.712 4.35-1.45z"/><path fill="#2F2E41" fill-rule="nonzero" d="M29.1 18.817c.46-.042.935-.088 1.342-.307.911-.491 1.153-1.89.459-2.659a3.436 3.436 0 00-.637-.512l-1.378-.938c-.609-.414-1.232-.836-1.943-1.031-.643-.177-1.322-.159-1.987-.118-1.291.08-2.59.247-3.806.692-1.214.446-2.347 1.192-3.083 2.257-1.166 1.687-1.183 3.963-.54 5.912.642 1.948 1.862 3.644 3.065 5.306l.624-3.043c.055-.272.127-.569.353-.73.56-.398 1.246.42 1.933.415.442-.003.813-.366.98-.775.168-.41.18-.862.218-1.303.082-.932.408-2.23 1.291-2.744.823-.48 2.185-.338 3.11-.422z"/><path fill="#000" fill-rule="nonzero" d="M28.765 68.862s-.612 17.704-.974 18.247c-.363.544 0-18.303 0-18.303l.974.056z" opacity=".1"/><path fill="#39CD6C" fill-rule="nonzero" d="M35.855 31.747h1.45s6.161 8.336 5.436 8.88c-.724.543 0 1.993 0 1.993l1.45 2.718s1.812 1.631 1.269 1.994c-.544.362-1.269 1.812-1.269 1.812s-3.624-.544-4.712 1.63l-2.35-2.966-1.274-16.061z"/><path fill="#F2F2F2" fill-rule="nonzero" d="M31.393 36.482l4.974-2.054 3.829 9.27-4.975 2.055z"/><ellipse cx="35.407" cy="38.951" fill="#067FB7" fill-rule="nonzero" rx="1.076" ry="1" transform="rotate(-22.438 35.407 38.951)"/><path fill="#FFB9BA" fill-rule="nonzero" d="M32.23 46.244s-13.047 10.873-15.222 7.43c-2.174-3.443 2.356-6.342 2.356-6.342s3.987.18 8.517-2.719l4.53-1.993s4.137-5.905 5.546-3.656c1.41 2.248-2.406 6.161-5.726 7.28z"/><path fill="#39CD6C" fill-rule="nonzero" d="M14.652 36.64l-1.993.725V42.8l-.725 1.087s.181 2.175.725 2.719c.544.543 1.631.362 1.269 1.63a6.869 6.869 0 00-.182 2.538s3.262 4.168 3.443 3.624c.182-.544 2.719-7.249 3.081-7.249.363 0-3.624-10.51-3.624-10.51h-1.994z"/><path fill="#2F2E41" fill-rule="nonzero" d="M38.483 64.094s1.874-1.812.937-1.902c-.937-.091-4.2-1.903-4.743-.997-.544.906 3.806 2.9 3.806 2.9z"/><ellipse cx="74.12" cy="28.141" fill="#57B894" fill-rule="nonzero" rx="2.614" ry="1.384"/><path stroke="#3F3D56" stroke-width=".35" d="M84.116 32.754c-5.895-2.226-11.79-2.226-17.685 0v-7.227a30.607 30.607 0 0117.685 0v7.227z"/><path stroke="#3F3D56" stroke-width=".35" d="M81.655 31.26c-4.254-1.607-8.509-1.607-12.763 0v-5.217a22.09 22.09 0 0112.763 0v5.217z"/><ellipse cx="75.043" cy="27.526" stroke="#3F3D56" stroke-width=".35" rx="2.614" ry="1.384"/><ellipse cx="75.766" cy="36.836" fill="#57B894" fill-rule="nonzero" rx="2.614" ry="1.384" transform="rotate(-11.535 75.766 36.836)"/><path stroke="#3F3D56" stroke-width=".35" d="M86.482 39.358c-6.221-1.003-11.997.176-17.327 3.536l-1.446-7.081a30.607 30.607 0 0117.327-3.537l1.446 7.082z"/><path stroke="#3F3D56" stroke-width=".35" d="M83.772 38.385c-4.49-.723-8.658.127-12.506 2.553l-1.043-5.111a22.09 22.09 0 0112.506-2.553l1.043 5.111z"/><ellipse cx="76.547" cy="36.049" stroke="#3F3D56" stroke-width=".35" rx="2.614" ry="1.384" transform="rotate(-11.535 76.547 36.05)"/><ellipse cx="75.223" cy="45.439" fill="#57B894" fill-rule="nonzero" rx="1.384" ry="2.614" transform="rotate(-86.019 75.223 45.439)"/><path stroke="#3F3D56" stroke-width=".35" d="M84.875 50.735c-5.726-2.63-11.607-3.04-17.642-1.228l.502-7.21a30.607 30.607 0 0117.641 1.228l-.501 7.21z"/><path stroke="#3F3D56" stroke-width=".35" d="M82.524 49.073c-4.133-1.899-8.377-2.194-12.733-.886l.362-5.204a22.09 22.09 0 0112.733.886l-.362 5.204z"/><ellipse cx="76.187" cy="44.889" stroke="#3F3D56" stroke-width=".35" rx="1.384" ry="2.614" transform="rotate(-86.019 76.187 44.889)"/><path stroke="#3F3D56" stroke-width=".45" d="M63.805 32.922s-11.302-1.546-19.373 3.184"/><path fill="#3F3D56" fill-rule="nonzero" d="M44.704 34.516l.294.093-.46 1.446 1.476.352-.072.3-1.796-.43z"/></g></svg>