<svg xmlns="http://www.w3.org/2000/svg" width="48" height="50"><g fill="#1D7BE2" stroke="#1D7BE2" stroke-width=".5"><path d="M44.7 25.62a1.401 1.401 0 010-1.24l1.784-3.647a4.15 4.15 0 00-1.791-5.512l-3.587-1.903a1.401 1.401 0 01-.728-1.002l-.702-4a4.15 4.15 0 00-4.688-3.406l-4.021.568a1.401 1.401 0 01-1.178-.382l-2.918-2.824a4.15 4.15 0 00-5.796 0l-2.918 2.824a1.402 1.402 0 01-1.178.383l-4.02-.57a4.15 4.15 0 00-4.69 3.407l-.7 4a1.402 1.402 0 01-.729 1.002L3.253 15.22a4.15 4.15 0 00-1.79 5.512l1.783 3.648c.192.394.192.845 0 1.239l-1.784 3.648a4.15 4.15 0 001.791 5.511l3.587 1.904a1.4 1.4 0 01.728 1.002l.702 4a4.148 4.148 0 004.688 3.406l4.021-.569a1.4 1.4 0 011.178.383l2.918 2.823a4.155 4.155 0 002.898 1.179 4.155 4.155 0 002.898-1.179l2.918-2.823a1.403 1.403 0 011.178-.383l4.02.569a4.15 4.15 0 004.69-3.407l.7-4c.077-.43.342-.796.729-1.001l3.587-1.904a4.15 4.15 0 001.79-5.511L44.7 25.619zm-1.3 6.723l-3.587 1.904a4.141 4.141 0 00-2.151 2.961l-.702 4a1.404 1.404 0 01-1.586 1.152l-4.02-.569a4.14 4.14 0 00-3.482 1.132l-2.919 2.823a1.405 1.405 0 01-1.96 0l-2.919-2.824a4.137 4.137 0 00-3.481-1.13l-4.02.568a1.405 1.405 0 01-1.587-1.153l-.702-4a4.14 4.14 0 00-2.152-2.96l-3.586-1.904a1.404 1.404 0 01-.606-1.865l1.783-3.648a4.141 4.141 0 000-3.66L3.94 19.522a1.404 1.404 0 01.606-1.865l3.586-1.903a4.141 4.141 0 002.152-2.962l.702-4a1.404 1.404 0 011.586-1.152l4.02.569a4.141 4.141 0 003.482-1.131l2.918-2.824a1.405 1.405 0 011.961 0l2.919 2.824c.93.9 2.2 1.312 3.481 1.13l4.02-.568c.758-.107 1.455.4 1.587 1.153l.701 4a4.14 4.14 0 002.152 2.96l3.587 1.904c.676.358.942 1.178.606 1.865l-1.783 3.648a4.141 4.141 0 000 3.66l1.783 3.648c.336.688.07 1.507-.606 1.865z"/><path d="M34.048 14.925a1.379 1.379 0 00-1.95 0l-18.2 18.2a1.379 1.379 0 001.95 1.95l18.2-18.2a1.379 1.379 0 000-1.95zm-15.59-2.335a5.062 5.062 0 00-5.056 5.056 5.062 5.062 0 005.056 5.056 5.062 5.062 0 005.055-5.056 5.062 5.062 0 00-5.055-5.055zm0 7.354a2.3 2.3 0 01-2.298-2.298 2.3 2.3 0 012.298-2.298 2.3 2.3 0 012.298 2.298 2.3 2.3 0 01-2.298 2.298zm11.03 7.354a5.062 5.062 0 00-5.056 5.056 5.062 5.062 0 005.056 5.056 5.062 5.062 0 005.056-5.056 5.062 5.062 0 00-5.056-5.056zm0 7.354a2.3 2.3 0 01-2.298-2.298 2.3 2.3 0 012.298-2.298 2.3 2.3 0 012.298 2.298 2.3 2.3 0 01-2.298 2.298z"/></g></svg>