<svg xmlns="http://www.w3.org/2000/svg" width="149" height="132"><defs><linearGradient id="a" x1="0%" y1="50%" y2="50%"><stop offset="0%" stop-color="gray" stop-opacity=".25"/><stop offset="53.514%" stop-color="gray" stop-opacity=".12"/><stop offset="100%" stop-color="gray" stop-opacity=".1"/></linearGradient></defs><g fill="none"><path fill="#EBE9E9" d="M74 2L27 30.418S27 89.03 74 121c47-31.97 47-90.582 47-90.582L74 2z"/><path fill="#3597C4" d="M74.807 2L74 2.486v117.96c.268.185.536.37.807.554C122 89.03 122 30.418 122 30.418L74.807 2z" opacity=".06"/><path fill="url(#a)" d="M3.957 7.678l9.102 7.94L24.342.129l4.55 3.61-15.833 19.1L.165 9.121z" opacity=".7" transform="translate(60 52)"/><path fill="#FFF" d="M65 59.4l7.2 6.6 10.2-15 3.6 3-13.8 18L62 60.6z"/><path fill="#4D8AF0" d="M29.754 7.525a.824.824 0 01-.459-.995.413.413 0 00-.724-.365.396.396 0 00-.046.08.824.824 0 01-.995.46.413.413 0 00-.365.724.396.396 0 00.08.046.824.824 0 01.46.995.413.413 0 00.724.365.396.396 0 00.046-.08.824.824 0 01.995-.46.413.413 0 00.365-.724.396.396 0 00-.08-.046zm-26 56a.824.824 0 01-.459-.995.413.413 0 00-.724-.365.396.396 0 00-.046.08.824.824 0 01-.995.46.413.413 0 00-.365.724.396.396 0 00.08.046.824.824 0 01.46.995.413.413 0 00.724.365.396.396 0 00.046-.08.824.824 0 01.995-.46.413.413 0 00.365-.724.396.396 0 00-.08-.046z" opacity=".5"/><circle cx="130" cy="44" r="1" fill="#F55F44" opacity=".5"/><circle cx="21" cy="117" r="1" fill="#F55F44" opacity=".5"/><circle cx="147" cy="83" r="1" fill="#F55F44" opacity=".5"/><path fill="#4D8AF0" d="M121.754 13.525a.824.824 0 01-.459-.995.413.413 0 00-.724-.365.396.396 0 00-.046.08.824.824 0 01-.995.46.413.413 0 00-.365.724.396.396 0 00.08.046.824.824 0 01.46.995.413.413 0 00.724.365.396.396 0 00.046-.08.824.824 0 01.995-.46.413.413 0 00.365-.724.396.396 0 00-.08-.046zm18 108a.824.824 0 01-.459-.995.413.413 0 00-.724-.365.396.396 0 00-.046.08.824.824 0 01-.995.46.413.413 0 00-.365.724.396.396 0 00.08.046.824.824 0 01.46.995.413.413 0 00.724.365.396.396 0 00.046-.08.824.824 0 01.995-.46.413.413 0 00.365-.724.396.396 0 00-.08-.046zm-137-90a.824.824 0 01-.459-.995.413.413 0 00-.724-.365.396.396 0 00-.046.08.824.824 0 01-.995.46.413.413 0 00-.365.724.396.396 0 00.08.046.824.824 0 01.46.995.413.413 0 00.724.365.396.396 0 00.046-.08.824.824 0 01.995-.46.413.413 0 00.365-.724.396.396 0 00-.08-.046z" opacity=".5"/><circle cx="14" cy="49" r="1" fill="#47E6B1" opacity=".5"/><circle cx="148" cy="57" r="1" fill="#47E6B1" opacity=".5"/><g fill="#47E6B1" opacity=".5"><path d="M101.233 0h1v3h-1z"/><path d="M102.9 1.235v.53h-2.833v-.53z"/></g><g fill="#47E6B1" opacity=".5"><path d="M103.233 114h1v3h-1z"/><path d="M104.9 115.235v.53h-2.833v-.53z"/></g><g fill="#47E6B1" opacity=".5"><path d="M5.233 121h1v3h-1z"/><path d="M6.9 122.235v.53H4.067v-.53z"/></g><g fill="#47E6B1" opacity=".5"><path d="M122.233 68h1v3h-1z"/><path d="M123.9 69.235v.53h-2.833v-.53z"/></g><path fill="#47E6B1" d="M137.5 20.6l1.2 1.257L140.4 19l.6.571L138.7 23l-1.7-2.171z" opacity=".5"/><path fill="#6C63FF" d="M102.125 41.273l3.85-.148.192 4.911-3.85.148z"/><path fill="#FFB9B9" d="M88.857 58.368s-5.951-2.804-5.856-.383C83.096 60.407 89 62 89 62l-.143-3.632z"/><path fill="#067FB7" d="M90.856 75.925s-2.518 6.118-3.448 10.532c-.93 4.415-2.347 10.49-.525 14.798 1.822 4.309 7.004 16.971 7.057 18.338.053 1.366-.444 2.753.657 2.71 1.101-.041 7.093-1.914 7.337-2.744.243-.83-2.045-2.932-2.045-2.932l-5.648-17.57 5.893-11.448 4.251 17.077.833 21.314s4.086-1.252 4.68-.18c0 0 1.83-2.534 2.063-3.637.232-1.104-.865-22.133-.865-22.133s3.751-23.953.723-23.837c-3.028.117-14.888-7.09-20.963-.288z"/><path fill="#575A89" d="M95.34 121.828s-2.835 5.948-3.104 6.223c-.268.276-2.116 3-.719 2.948 1.397-.051 4.696-1.5 7.125-3.715 2.428-2.214 5.63-6.05 5.34-6.305-.29-.255-2.28-.979-2.28-.979l-6.362 1.828zm10.592 3.664s-.162 2.721-.651 3.827c-.49 1.106-.428 2.732.897 2.68 1.325-.053 4.75-.732 4.75-.732s.203-1.637-.072-1.898c-.276-.26-1.449-3.2-.95-4.035.5-.834-3.974.158-3.974.158z"/><path fill="#FFB9B9" d="M108.842 37s2.821 4.669 3.922 5.75c1.1 1.08-1.995 3.459-1.995 3.459l-5.54.791s.07-5.35-.215-5.902c-.285-.551 3.828-4.098 3.828-4.098z"/><path fill="#067FB7" d="M104.003 42.236s1.164 2.118 2.244 2.076c1.08-.042 6.664-2.422 6.903-3.242.239-.82 1.85 5.876 1.85 5.876L101.334 71 98 68.696l1.615-14.123 1.327-7.622 3.061-4.715z"/><path fill="#08A800" d="M113.212 63.621c-.562 1.151-.913 2.352-.864 3.582.002.054.004.109.01.163.133 2.523 1.081 5.44 1.422 7.562.247 1.522.176 2.633-.733 2.894-2.204.63.322 1.08-8.207 3.86-8.53 2.781-10.018.381-10.04-.164-.021-.545 1.208-4.687.92-4.949-.29-.262-4.045 3.43-5.18 2.927-1.134-.503-.13-3.27-.13-3.27s2.557-5.83 2.503-7.193c-.054-1.363 3.872-7.79 3.872-7.79l2.67-17.027s1.026-2.222 2.407-2.548c1.38-.325 2.526.45 2.526.45l-2.31 5.001-2.438 8.828.408 3.26s2.834-5.84 4.696-8.094c1.862-2.255 5.83-7.592 5.83-7.592s.927-3.063.228-3.978c-.7-.918 2.917-1.055 4.46 2.708.817 1.994 2.144 4.969 2.976 7.738.74 2.453 1.09 4.746.357 6.057-1.122 2.003-3.944 4.635-5.383 7.575z"/><path fill="#000" d="M117.648 56.06c-.974 2.099-3.425 4.858-4.675 7.94a85.428 85.428 0 00-.725-2.828s-1.527-9.66 2.99-12.155c.749-.086 1.497.161 2.1.693.644 2.572.947 4.976.31 6.35z" opacity=".1"/><path fill="#08A800" d="M97.591 56l-4.184 1.19-5.81.219-.597 4.92 9.547.671s2.385-6.535 1.044-7z"/><path fill="#FFB9B9" d="M104.21 73s-5.226 1.112-4.033 3.13c1.193 2.017 5.823-.104 5.823-.104L104.21 73z"/><path fill="#000" d="M112.591 68c.132 2.512 1.072 5.417 1.409 7.53-1.86 1.733-3.63 3.263-4.297 3.289-1.378.052-3.593-.135-4.408.168-.816.303-1.295-4.843-1.295-4.843s.487-1.649 2.66-2.547c1.466-.608 4.276-2.256 5.931-3.597z" opacity=".1"/><path fill="#08A800" d="M116.43 49.018s4.82-.722 4.56 6.903c-.26 7.626.508 12.493-1.431 13.925-1.94 1.431-8.238 7.92-9.662 7.973-1.425.052-3.715-.135-4.559.168-.843.303-1.338-4.846-1.338-4.846s.504-1.65 2.75-2.55c2.246-.899 7.537-4.086 7.493-5.173-.044-1.086-1.338-4.846-1.338-4.846s-1.8-9.18 3.524-11.554z"/><circle cx="104" cy="37" r="6" fill="#FFB9B9"/><path fill="#2F2E41" d="M100.174 28.2c-.144.123-.316.21-.501.25a.358.358 0 01-.415-.286c-.136.282-.29.582-.569.727-.278.145-.71.023-.75-.287-.04.236-.145.456-.302.636-.173.164-.486.206-.637.021.122.664.047 1.347.085 2.021.038.674.219 1.389.73 1.832.745.646 1.867.487 2.847.364a.868.868 0 01.446.025c.368.155.351.665.356 1.062a2.957 2.957 0 002.595 2.804c.39.06.787-.037 1.105-.269.278-.235.42-.618.74-.795.518-.287 1.148.132 1.527.587.38.455.754 1.014 1.341 1.098.778.11 1.37-.68 1.66-1.406a8.165 8.165 0 00-.163-6.368c-1.623-3.524-7.169-4.082-10.095-2.016z"/></g></svg>