<svg xmlns="http://www.w3.org/2000/svg" xmlns:xlink="http://www.w3.org/1999/xlink" width="124" height="36"><defs><filter id="a" width="104.4%" height="125%" x="-2.2%" y="-8.9%" filterUnits="objectBoundingBox"><feOffset dy="2" in="SourceAlpha" result="shadowOffsetOuter1"/><feGaussianBlur in="shadowOffsetOuter1" result="shadowBlurOuter1" stdDeviation="2"/><feColorMatrix in="shadowBlurOuter1" values="0 0 0 0 0 0 0 0 0 0 0 0 0 0 0 0 0 0 0.15 0"/></filter><path id="b" d="M0 0h320v56H0z"/></defs><g fill="none" fill-rule="evenodd"><g transform="translate(-8 -10)"><use fill="#000" filter="url(#a)" xlink:href="#b"/><use fill="#FFF" xlink:href="#b"/></g><g fill-rule="nonzero"><path fill="#93BB4D" d="M44.626 8.457c3.244 6.486 1.597 12.871-2.207 16.675 0 0 4.075-5.79 1.868-13.007-2.208-7.217-9.374-10.155-10.308-9.816-.934.34-3.583 1.427-6.164 3.617-2.581 2.191-2.598 2.208-2.598 2.208s7.862 1.274 11.394 7.845c3.532 6.572 1.053 12.515-1.698 15.3-2.734 2.785-6.18 4.45-9.696 4.551-3.872.102-8.44-1.987-10.817-4.585 0 0 5.366 3.193 10.12 2.666 3.278-.356 6.114-1.137 8.695-4.534 1.002-1.324 1.511-2.768 1.834-4.398.68-3.464.272-7.268-3.09-10.783C28.086 10.138 20.53 9.883 18.61 9.9c0 0 5.027-5.128 9.153-7.336C31.787.412 33.938.02 34.044.001c.003-.001 7.05 1.357 10.582 8.456zM11.734 25.013c.594.629 2.615 2.632 5.196 3.55 3.6 1.273 5.96.916 7.15.763 2.462-.305 4.33-2.003 4.33-2.003s.594.696.73 1.392c.135.696 0 1.29 0 1.29s-1.97 1.36-4.042 1.597c-2.072.238-4.5.085-7.081-1.104-2.581-1.189-4.687-3.328-5.57-4.5l-.73-.968c-.017-.017 0-.034.017-.017zm13.55-6.775c.042.013.06.06.04.095l-.022.024-.73.543c-.85.611-1.495 1.783-1.495 1.783s4.144.357 6.538 2.751c2.33 2.313 1.685 5.751 1.649 5.936l-.002.006c-.006-.177-.243-5.317-6.47-6.485-3.64-.695-6.828-.31-6.99-.29h-.006l1.002-1.086c1.155-1.257 3.685-3.158 4.551-3.447.696-.238 1.613.05 1.936.17zm31.23-8.813c1.12.067 1.697.254 1.578.866l-.424 2.156h2.445a.54.54 0 01.218.057l.02.028c.046.618-.16 1.53-.466 2.124l-.094.169h-2.582l-1.07 5.145s-.424 1.63.561 1.698a3.549 3.549 0 001.41-.22.319.319 0 01.424.27c.05.561.017 1.563-.747 2.14-1.121.867-4.008.204-4.45-.56-.44-.764-.305-1.97-.135-3.277.17-1.29 1.019-5.264 1.019-5.264h-1.546v-.51c0-.589.148-1.15.443-1.65l.118-.184h1.46l.56-2.53s.12-.51 1.257-.458zm8.15 3.005a.55.55 0 01.406.466l.002.095-1.24 6.435s-.39 1.97.611 2.174c1.02.204 2.446-.934 3.125-2.462.56-1.29 1.223-4.942 1.426-6.096a.643.643 0 01.307-.45l.084-.043.206-.076a3.154 3.154 0 011.944-.016l.21.075.034.017a.398.398 0 01.244.362l-.006.08-2.072 10.494a.6.6 0 01-.5.485l-.094.007h-1.393a.64.64 0 01-.64-.674l.012-.09.17-.866c.017-.068-.068-.102-.102-.05-.373.458-1.358 1.528-2.802 1.8-1.85.356-3.226-.222-3.82-1.597-.598-1.345 1.012-7.934 1.084-8.226l.002-.01.306-1.189c.093-.373.244-.633.74-.726l.143-.02.272-.02c.452-.023.902.008 1.341.121zm25.872-.306c.007 0 1.128.018 2.028.867.326.307.543.523.687.674l.01-.046.203-.798a.601.601 0 01.578-.442h1.477c.323 0 .577.306.51.612l-2.055 10.375a.651.651 0 01-.629.526l-1.511.017a.567.567 0 01-.56-.696l.241-1.043c-.264.333-1.608 1.926-3.128 1.926-1.617 0-2.357-.277-2.424-.303-.005-.002-1.482-.563-1.584-3.229-.102-2.666 1.02-5.756 2.53-7.149 1.46-1.344 3.489-1.296 3.627-1.29zm-10.092.018l.25.001.255.015c1.715.153 2.48 1.155 2.53 2.853.034 1.444-1.137 6.827-1.494 8.44a.6.6 0 01-.488.452l-.09.006H79.32a.314.314 0 01-.306-.373c.238-1.172.985-4.806 1.274-6.351.34-1.868-.153-2.293-.9-2.394-.747-.102-2.276 1.307-2.785 2.241-.408.764-1.223 4.857-1.494 6.334a.673.673 0 01-.545.518l-.1.008h-1.886a.426.426 0 01-.432-.429l.008-.08 1.902-10.24a.78.78 0 01.547-.632l.115-.03.224-.037c.448-.06.902-.034 1.341.088l.218.068.034.017a.304.304 0 01.211.291l-.007.066-.204 1.341c0 .017.034.034.05.017.103-.17.307-.51.612-.815.566-.565 1.764-1.337 3.248-1.375zm20.048.175l.206.062.097.041a.65.65 0 01.353.57l-.008.102-1.953 10.121a.852.852 0 01-.74.69l-.11.006H96.64a.491.491 0 01-.483-.49l.007-.087 2.072-10.392a.724.724 0 01.416-.511l.093-.033.255-.068a2.903 2.903 0 011.492-.01zm-12.36 4.29c-.577 1.257-.628 2.055-.662 2.174-.034.119-.255 1.444.17 2.225.237.441.832.747 1.545.526.686-.212 1.828-.849 2.458-2.379l-.03-.015s.696-1.817.764-2.65c.013-.153.01-.288-.002-.406a1.06 1.06 0 00-.201-.391c-.29-.357-.832-.9-1.546-.951-1.103-.085-1.919.61-2.496 1.868zM40.245 7.76c.196.136.382.284.55.451l.367-.28.51.61-.39.304c.32.574.466 1.33.305 2.38l-1.189-.425s.31-.679.099-1.345l-1.357 1.053c.046.09.092.176.137.258.39.713.646 1.783.136 2.326-.51.544-1.24.799-2.071.357a4.078 4.078 0 01-1.005-.765l-.371.29-.577-.629.419-.323a3.193 3.193 0 01-.13-.22c-.255-.476-.391-1.325-.221-2.31l1.171.527s-.158.688.033 1.352l1.397-1.067c-.352-.782-.713-1.547-.394-2.136.662-1.206 1.613-1.07 2.581-.408zm-18.832 3.872l-2.14 1.681-10.46-1.68h12.6zm16.972-.536l-1.3 1.009c.038.036.078.071.12.104.935.714 1.342.153 1.342-.288 0-.265-.065-.543-.162-.825zm62.89-3.336c.714 0 1.223.714.968 1.376l-.288.798c-.187.56-.73.95-1.325.95h-1.053c-.611 0-1.002-.407-1.07-1.001a1.617 1.617 0 01.102-.696l.12-.34a1.628 1.628 0 011.545-1.087h1.001zm-62.422.748c-.26.299-.214.757-.054 1.228l1.257-.96c-.508-.506-1.01-.49-1.203-.268z"/><path fill="#467CB8" d="M25.285 11.785c.866.017 1.58.68 1.58.68s-.086.05-1.003.661c-.917.612-1.817 1.597-1.817 1.597s1.664.237 3.09.679c1.444.441 3.584 1.698 5.095 4.194 1.495 2.496 1.274 5.91 1.274 5.91.068-.9-1.936-6.64-6.98-8.236-4.38-1.376-8.796-.255-8.796-.255s1.987-2.072 3.464-3.21c1.478-1.137 3.227-2.037 4.093-2.02zm89.575.594h1.359c.407 0 .713.374.628.764-.322 1.529-1.019 4.908-1.341 6.385-.425 1.953.577 2.072.577 2.072 1.545.05 2.564-1.257 3.04-2.055.163-.258.282-.538.367-.822l.057-.214 1.325-5.484a.836.836 0 01.7-.638l.115-.008h1.41c.44 0 .78.38.744.802l-.015.098-2.105 10.138a.636.636 0 01-.528.501l-.1.008h-1.359a.527.527 0 01-.52-.54l.01-.088.272-1.307-1.324 1.273s-1.902 1.545-4.059.764c-2.093-.758-1.659-3.516-1.631-3.677l.001-.008 1.325-7.08c.094-.471.477-.825.936-.877l.116-.007h1.359zm-9.764-4.805h1.664c.392 0 .683.318.658.687l-.012.094-1.715 8.303c-.014.041.027.082.07.07l.031-.019 3.685-3.752a2.312 2.312 0 011.603-.716l.18.002 1.19.051c.508.032.75.601.47.98l-.063.073-4.042 4.008a.295.295 0 00-.073.267l.022.072 2.445 5.044a.881.881 0 01-.683 1.266l-.115.007h-1.41c-.427 0-.814-.22-1.035-.586l-.068-.127-2.31-5.18c-.013-.04-.06-.037-.086-.008l-.015.026-.9 5.01a.947.947 0 01-.821.774l-.113.006h-1.834a.419.419 0 01-.416-.408l.008-.084 3.023-15.3a.763.763 0 01.566-.547l.096-.013h1.664zM18.255 14.45l-2.072 2.292L.085 14.451h18.17z"/></g></g></svg>